<svg width="510" height="510" viewBox="0 0 510 510" fill="none" xmlns="http://www.w3.org/2000/svg">
<path d="M356.66 318.75C373.83 326.315 345.865 327.25 308.295 330.225C270.725 333.285 249.475 330.565 221.51 330.14C193.63 329.715 152.32 331.67 149.515 323.34C146.625 315.01 170 309.4 172.125 304.725C174.165 300.135 122.485 302.685 123.76 297.33C124.185 295.545 125.8 293.93 128.435 292.485C151.215 279.82 249.9 278.63 297.925 278.29C351.475 277.865 406.98 277.1 429.08 289.765C432.055 291.465 433.33 292.91 433.245 294.185C432.905 302.515 376.805 302.94 360.06 305.575C340.51 308.55 339.49 311.185 356.66 318.75Z" fill="#C7D4FF"/>
<path d="M331.5 304.81C344.165 309.74 323.51 310.25 295.8 312.205C268.005 314.075 252.28 312.375 231.71 312.035C211.055 311.695 180.625 312.97 178.5 307.53C176.375 302.09 193.63 298.52 195.16 295.545C196.69 292.57 158.44 294.185 159.375 290.615C159.715 289.425 160.905 288.405 162.775 287.47C179.605 279.31 252.535 278.715 287.98 278.46C327.505 278.205 377.315 275.57 384.88 283.645C388.535 287.555 346.29 294.61 333.88 296.225C319.515 298.18 318.75 299.88 331.5 304.81Z" fill="#99ADF9"/>
<path d="M356.66 318.75C373.83 326.315 345.865 327.25 308.295 330.225C270.725 333.285 249.475 330.565 221.51 330.14C193.63 329.715 152.32 331.67 149.515 323.34C146.625 315.01 170 309.4 172.125 304.725C174.165 300.135 122.485 302.685 123.76 297.33C124.185 295.545 125.8 293.93 128.435 292.485C129.115 293.76 131.835 295.035 139.4 295.63C156.655 296.905 181.05 297.84 182.495 301.495C183.94 305.15 158.525 315.18 161.755 320.28C164.985 325.295 233.41 323.255 274.295 324.7C315.18 326.145 351.56 323.51 346.885 320.705C342.21 317.9 330.82 311.695 339.405 306.085C347.99 300.475 395.335 299.54 415.31 297.585C423.47 296.82 429.25 295.46 433.16 294.185C432.82 302.515 376.72 302.94 359.975 305.575C340.51 308.55 339.49 311.185 356.66 318.75Z" fill="#99ADF9"/>
<path d="M402.9 288.065C397.715 288.49 398.14 293.59 406.98 292.4C415.735 291.295 413.015 287.215 402.9 288.065Z" fill="#99ADF9"/>
<path d="M372.215 291.89C367.03 292.315 367.455 297.415 376.295 296.225C385.135 295.205 382.33 291.04 372.215 291.89Z" fill="#99ADF9"/>
<path d="M148.92 289.765C143.735 290.19 144.16 295.29 153 294.1C161.84 293.08 159.035 289 148.92 289.765Z" fill="#99ADF9"/>
<path d="M176.63 307.36C171.445 307.785 171.87 312.885 180.71 311.695C189.465 310.59 186.745 306.51 176.63 307.36Z" fill="#99ADF9"/>
<path d="M450.755 314.5C444.89 318.495 435.88 319.345 422.535 319.515C412.93 319.685 407.49 316.625 408.17 313.65C408.68 311.44 412.675 309.315 420.835 308.465C436.05 306.935 449.99 308.805 451.86 311.78C452.455 312.63 452.115 313.565 450.755 314.5Z" fill="#C7D4FF"/>
<path d="M162.945 277.27C155.89 281.35 144.84 282.455 128.35 282.965C116.535 283.305 109.735 280.415 110.585 277.44C111.18 275.23 116.025 272.935 126.055 272C144.67 270.13 161.925 271.66 164.39 274.635C165.07 275.4 164.645 276.25 162.945 277.27Z" fill="#C7D4FF"/>
<path d="M433.33 151.385C433.33 151.385 444.89 150.195 457.725 166.855C467.925 180.03 465.63 195.755 465.63 195.755C465.63 195.755 473.45 179.605 462.91 164.56C451.605 148.495 433.33 151.385 433.33 151.385Z" fill="#C7D4FF"/>
<path d="M427.21 203.32C427.21 203.32 430.27 210.46 427.38 220.66C424.49 230.86 419.05 235.11 419.05 235.11C419.05 235.11 428.825 232.475 431.205 221.085C433.67 209.61 427.21 203.32 427.21 203.32Z" fill="#C7D4FF"/>
<path d="M181.815 211.14C181.815 211.14 180.625 204.51 189.975 192.015C199.325 179.52 212.925 174.76 212.925 174.76L196.435 140.675C196.435 140.675 202.64 164.56 193.545 171.7C184.365 178.84 169.235 169.66 169.235 169.66C169.235 169.66 178.245 185.47 175.355 192.44C172.55 199.41 157.25 200.6 157.25 200.6L181.815 211.14Z" fill="#99ADF9"/>
<path d="M234.43 345.95L224.23 358.19C223.21 359.465 221.255 359.635 219.98 358.53C218.705 357.51 218.535 355.555 219.64 354.28C219.725 354.195 219.895 354.025 219.98 353.94L232.05 343.485C232.73 342.89 233.835 342.975 234.43 343.655C235.025 344.42 234.94 345.355 234.43 345.95Z" fill="#99ADF9"/>
<path d="M248.625 347.395L246.585 372.215C246.5 373.575 245.225 374.595 243.865 374.51C242.505 374.425 241.485 373.15 241.57 371.79V371.705L244.885 346.97C245.055 345.95 245.99 345.27 247.01 345.355C248.03 345.525 248.71 346.46 248.625 347.395Z" fill="#99ADF9"/>
<path d="M263.16 346.46L269.875 364.055C270.47 365.585 269.705 367.37 268.175 367.965C266.645 368.56 264.86 367.795 264.265 366.265C264.18 366.18 264.18 366.01 264.18 365.84L259.93 347.48C259.76 346.545 260.27 345.695 261.205 345.44C262.055 345.27 262.905 345.695 263.16 346.46Z" fill="#99ADF9"/>
<path d="M276.845 343.655L286.96 350.455C288.32 351.39 288.745 353.26 287.81 354.62C286.875 355.98 285.005 356.405 283.645 355.47C283.475 355.385 283.305 355.215 283.22 355.13L274.465 346.63C273.7 345.865 273.7 344.675 274.465 343.995C275.06 343.23 276.08 343.145 276.845 343.655Z" fill="#99ADF9"/>
<path d="M454.92 216.41C449.905 232.05 427.975 240.04 427.975 240.04C427.975 240.04 428.23 239.785 428.655 239.36C431.8 235.79 444.805 219.3 433.67 197.88C421.09 173.57 379.525 181.9 379.525 181.9L378.59 175.865L377.57 169.575C377.57 169.575 400.18 149.43 430.695 160.905C459.765 171.87 459.935 200.855 454.92 216.41Z" fill="#FEC272"/>
<path d="M438.77 230.01C436.39 233.75 432.65 236.895 428.74 239.36C431.885 235.79 444.89 219.3 433.755 197.88C421.175 173.57 379.61 181.9 379.61 181.9L378.675 175.865C387.685 174.59 411.485 172.55 427.635 181.9C446.845 193.035 446.76 217.515 438.77 230.01Z" fill="#FCAA51"/>
<path d="M386.835 201.025C386.41 214.54 384.2 226.27 381.14 233.07C374.595 247.86 370.005 256.275 360.4 263.755C356.83 266.56 352.58 269.195 347.225 272C327.59 282.285 274.125 282.965 274.125 282.965C272 283.135 269.875 283.305 267.75 283.39C248.285 284.41 229.925 282.285 218.62 276.165C213.35 273.36 209.61 269.62 207.995 265.03C202.64 249.39 200.685 225.505 236.215 164.985C259.08 126.055 287.64 110.67 314.67 110.84C329.035 110.925 342.89 115.43 355.3 123.08C355.81 123.42 356.405 123.76 356.915 124.1C380.885 139.57 387.685 173.91 386.835 201.025Z" fill="#FEC272"/>
<path d="M314.67 110.755C298.69 117.215 274.125 133.28 251.855 173.23C223.55 223.975 219.13 261.46 218.535 276.08C213.265 273.275 209.525 269.535 207.91 264.945C202.555 249.305 200.6 225.42 236.13 164.9C259.165 125.97 287.725 110.585 314.67 110.755Z" fill="#FFCB8D"/>
<path d="M386.835 201.025C386.41 214.54 384.2 226.27 381.14 233.07C372.13 253.3 366.86 261.63 347.225 271.915C327.59 282.2 274.125 282.88 274.125 282.88C272 283.05 269.875 283.22 267.75 283.305C267.155 275.23 269.195 264.35 273.955 250.155C288.405 206.805 311.355 190.825 337.28 185.81C359.635 181.56 377.06 192.44 386.835 201.025Z" fill="#FCAA51"/>
<path d="M386.835 201.025C386.41 214.54 384.2 226.27 381.14 233.07C374.595 247.86 370.005 256.275 360.4 263.755C366.35 247.265 372.045 224.57 372.555 197.2C373.15 160.99 363.12 136.425 355.3 123.08C355.81 123.42 356.405 123.76 356.915 124.1C380.885 139.57 387.685 173.91 386.835 201.025Z" fill="#FCAA51"/>
<path d="M387.26 207.315C385.9 223.21 379.27 248.71 373.065 265.625C370.6 272.34 368.22 277.78 366.18 280.585C362.78 285.43 356.15 287.555 349.52 287.98C342.55 288.49 335.495 287.3 332.265 285.515C326.315 282.37 311.525 255.255 314.84 225.675C315.01 223.89 315.265 222.105 315.605 220.32C321.555 188.785 336.345 179.945 358.785 182.41C363.205 182.92 367.88 183.685 372.215 185.215C381.225 188.445 388.45 194.565 387.26 207.315Z" fill="#FEC272"/>
<path d="M373.065 265.625C370.6 272.34 368.22 277.78 366.18 280.585C359.21 290.53 338.64 288.915 332.265 285.6C326.315 282.455 311.525 255.34 314.84 225.76C316.71 239.445 323.51 258.655 346.205 263.585C357.17 266.05 366.01 266.39 373.065 265.625Z" fill="#FCAA51"/>
<path d="M387.26 207.315C385.9 223.21 379.27 248.71 373.065 265.625C370.6 272.34 368.22 277.78 366.18 280.585C362.78 285.43 356.15 287.555 349.52 287.98C356.235 275.91 371.705 243.015 372.47 197.115C372.555 193.035 372.47 189.04 372.3 185.215C381.225 188.445 388.45 194.565 387.26 207.315Z" fill="#FCAA51"/>
<path d="M365.585 291.805C364.82 291.975 363.63 292.145 362.185 292.23C361.08 292.315 359.89 292.485 358.53 292.57C355.98 292.74 353.09 292.91 350.115 292.995C348.925 292.995 347.65 293.08 346.46 293.08C343.91 293.165 341.445 293.08 339.15 293.08C338.81 293.08 338.47 293.08 338.215 293.08C337.28 293.08 336.345 292.995 335.58 292.995C335.24 292.995 334.9 292.91 334.645 292.91C333.285 292.825 332.265 292.57 331.5 292.4C326.315 290.785 323.17 285.685 327.165 279.48C331.16 273.275 339.83 268.345 351.305 268.345C362.78 268.345 372.385 275.06 372.895 282.285C373.405 289.425 370.94 290.785 365.585 291.805Z" fill="#FEC272"/>
<path d="M350.2 281.69V292.995C349.01 292.995 347.735 293.08 346.545 293.08V281.69C346.545 280.67 347.395 279.82 348.33 279.82C349.265 279.82 350.2 280.67 350.2 281.69Z" fill="#FFA245"/>
<path d="M339.32 281.86V293.08C338.98 293.08 338.64 293.08 338.385 293.08C337.45 293.08 336.515 292.995 335.75 292.995V281.945C335.75 280.84 336.6 279.905 337.535 279.905C338.47 279.82 339.32 280.755 339.32 281.86Z" fill="#FFA245"/>
<path d="M362.27 281.69V292.23C361.165 292.315 359.975 292.485 358.615 292.57V281.69C358.615 280.67 359.465 279.82 360.4 279.82C361.335 279.82 362.27 280.67 362.27 281.69Z" fill="#FFA245"/>
<path d="M222.615 225.42C215.645 240.04 220.66 275.57 215.645 286.535C210.63 297.5 197.03 303.11 183.09 302.855C181.56 302.855 180.115 302.6 178.67 302.26C166.94 299.37 158.61 286.365 165.155 270.98C172.465 253.725 189.805 245.055 197.03 219.47C203.575 196.52 212.755 192.44 222.105 191.42C225.25 191.08 227.205 192.44 228.31 194.905C231.115 201.11 227.715 214.88 222.615 225.42Z" fill="#FF8D76"/>
<path d="M222.615 225.42C215.645 240.04 220.66 275.57 215.645 286.535C210.63 297.5 197.03 303.11 183.09 302.855C181.56 302.855 180.115 302.6 178.67 302.26C176.8 297.925 176.035 291.465 178.5 282.115C184.705 258.655 196.69 254.235 198.9 237.745C201.195 221.255 201.45 211.055 207.4 202.13C212.755 194.14 225.505 194.65 228.31 194.905C231.115 201.11 227.715 214.88 222.615 225.42Z" fill="#FC7059"/>
<path d="M334.05 273.615C333.115 276.505 331.585 278.97 329.63 281.095C321.98 289.425 308.04 292.145 299.88 290.785C289.68 289.085 279.65 268.6 280.67 253.385C281.69 238.17 270.725 218.195 268.005 208.25C265.965 200.855 266.305 195.245 268.515 191.845C269.28 190.655 270.3 189.72 271.49 189.04C274.295 187.595 284.665 183.09 295.46 199.24C306.17 215.475 305.405 224.145 317.39 236.13C329.375 248.2 338.555 259.42 334.05 273.615Z" fill="#FF8D76"/>
<path d="M329.715 281.095C322.065 289.425 308.125 292.145 299.965 290.785C289.765 289.085 279.735 268.6 280.755 253.385C281.775 238.17 270.81 218.195 268.09 208.25C266.05 200.855 266.39 195.245 268.6 191.845C275.06 190.91 285.26 191.93 290.02 205.275C297.33 225.59 296.31 236.045 307.615 245.99C318.92 255.935 328.27 266.73 329.715 280.925C329.715 281.01 329.715 281.01 329.715 281.095Z" fill="#FC7059"/>
<path d="M315.52 287.64C314.415 296.99 309.485 303.28 298.18 307.275C281.265 313.225 265.54 305.32 259.335 304.3C252.96 303.195 243.355 309.315 233.665 312.715C223.975 316.2 205.785 317.475 196.095 307.87C190.995 302.77 187.68 295.545 187.085 287.98C186.49 281.35 188.02 274.38 192.1 268.26C200.77 255.34 205.36 242.675 206.72 217.77C208.08 192.865 227.46 182.835 246.075 181.22C251.94 180.71 268.26 179.86 280.67 190.825C293.165 201.79 292.145 224.23 296.395 235.195C300.645 246.16 312.12 252.875 314.84 271.575C315.775 277.78 316.115 283.05 315.52 287.64Z" fill="#FEC272"/>
<path d="M266.985 273.02C264.52 279.735 258.485 284.58 254.405 284.58C250.325 284.58 242.42 280.67 238.595 277.1C234.515 273.275 234.26 269.62 235.195 267.155C235.195 267.07 235.28 266.9 235.365 266.815C236.47 264.435 243.1 262.31 251.43 261.205C257.805 260.355 265.03 260.185 266.73 261.29C267.155 261.63 267.58 262.055 267.92 262.735C268.77 264.69 268.855 268.09 266.985 273.02Z" fill="#FCAA51"/>
<path d="M315.52 287.64C314.415 296.99 309.485 303.28 298.18 307.275C281.265 313.225 265.54 305.32 259.335 304.3C252.96 303.195 243.355 309.315 233.665 312.715C223.975 316.2 205.785 317.475 196.095 307.87C190.995 302.77 187.68 295.545 187.085 287.98C191.08 294.525 199.41 305.66 210.375 307.53C226.015 310.165 235.28 296.225 256.955 296.225C284.835 296.225 286.875 306.85 304.3 297.755C309.145 295.12 312.8 291.465 315.52 287.64Z" fill="#FCAA51"/>
<path d="M266.475 297.33C266.305 299.2 266.05 301.325 265.455 303.45C263.84 309.4 257.21 313.055 251.77 309.4C248.285 307.105 246.585 301.835 245.82 298.265C245.395 296.14 245.225 294.695 245.225 294.695L255.595 283.645L266.645 291.295C266.56 291.295 266.73 293.93 266.475 297.33Z" fill="#FC7059"/>
<path d="M266.475 297.33C261.12 297.84 256.19 294.355 256.19 294.355C256.19 294.355 254.235 296.395 250.07 297.925C248.71 298.435 247.18 298.52 245.82 298.35C245.395 296.225 245.225 294.78 245.225 294.78L255.595 283.73L266.645 291.38C266.56 291.295 266.73 293.93 266.475 297.33Z" fill="#F45145"/>
<path d="M222.785 287.215C220.32 290.02 226.185 296.395 235.705 297.67C245.31 298.945 254.405 293.845 255.425 289.85C256.445 285.855 255.51 279.48 255.51 279.48H252.28C252.28 279.48 253.3 288.575 245.055 292.23C232.305 297.84 224.485 285.175 222.785 287.215Z" fill="#1C3177"/>
<path d="M257.04 277.695C257.04 277.695 257.635 286.28 265.54 289.425C273.36 292.57 276.93 290.53 279.905 289.17C283.135 287.64 283.135 284.41 285.43 285.345C286.62 285.855 286.195 290.105 282.115 292.825C277.27 296.055 272.51 296.48 265.88 294.865C259.25 293.25 255.68 290.275 254.83 286.62C253.98 282.965 253.47 278.8 253.47 278.8L257.04 277.695Z" fill="#1C3177"/>
<path d="M266.985 269.195C264.52 275.91 258.485 280.755 254.405 280.755C250.325 280.755 242.42 276.845 238.595 273.275C234.515 269.45 234.26 265.795 235.195 263.33C235.195 263.245 235.28 263.075 235.365 262.99C236.47 260.61 243.1 258.485 251.43 257.38C257.805 256.53 265.03 256.36 266.73 257.465C267.155 257.805 267.58 258.23 267.92 258.91C268.77 260.95 268.855 264.265 266.985 269.195Z" fill="#1C3177"/>
<path d="M266.985 269.195C264.52 275.91 258.485 280.755 254.405 280.755C250.325 280.755 242.42 276.845 238.595 273.275C234.515 269.45 234.26 265.795 235.195 263.33C235.62 263.33 236.045 263.5 236.47 264.01C238.51 266.22 240.295 270.98 247.69 275.145C255.17 279.31 258.57 276.25 261.885 271.915C265.2 267.58 265.795 260.1 267.41 259.08C267.58 258.995 267.665 258.91 267.835 258.91C268.77 260.95 268.855 264.265 266.985 269.195Z" fill="#0B2359"/>
<path d="M223.04 258.06C226.467 258.06 229.245 253.95 229.245 248.88C229.245 243.81 226.467 239.7 223.04 239.7C219.613 239.7 216.835 243.81 216.835 248.88C216.835 253.95 219.613 258.06 223.04 258.06Z" fill="#1C3177"/>
<path d="M278.667 253.601C282.075 253.244 284.41 248.866 283.882 243.824C283.353 238.781 280.162 234.983 276.754 235.34C273.345 235.697 271.01 240.074 271.539 245.117C272.067 250.16 275.258 253.958 278.667 253.601Z" fill="#1C3177"/>
<path d="M218.79 219.98C215.305 222.955 213.35 226.355 212.415 228.905C211.395 231.37 212.585 232.305 215.56 232.39C218.535 232.475 223.55 228.82 226.27 224.57C228.99 220.235 224.145 215.305 218.79 219.98Z" fill="#FF8D76"/>
<path d="M278.29 214.54C282.2 216.92 284.58 220.065 286.025 222.36C287.47 224.655 286.365 225.76 283.475 226.27C280.5 226.78 275.06 223.975 271.66 220.235C268.26 216.495 272.255 210.8 278.29 214.54Z" fill="#FF8D76"/>
<path d="M61.9651 400.605C58.0551 400.52 55.5051 400.35 55.0801 400.35C52.8701 400.18 51.2551 398.31 51.3401 396.1C51.5101 393.89 53.2951 392.19 55.5901 392.36C56.0151 392.36 85.5951 395.42 109.99 385.39C119 381.735 124.015 378.42 124.95 375.785C125.63 373.83 124.1 370.94 121.55 366.35C120.7 364.82 119.765 363.205 118.83 361.42C116.79 357.425 116.62 353.005 118.32 348.755C123.845 335.155 147.22 326.145 154.275 323.765C193.46 310.335 222.955 315.52 224.145 315.775C226.27 316.2 227.715 318.24 227.375 320.45C226.95 322.66 224.91 324.02 222.7 323.68C222.445 323.595 193.885 318.665 156.825 331.415C140.675 336.94 128.435 345.015 125.63 351.815C124.78 353.94 124.865 355.895 125.885 357.85C126.735 359.465 127.585 361.08 128.435 362.525C131.495 367.88 134.3 372.98 132.43 378.505C130.645 383.775 124.78 388.025 112.965 392.87C92.9901 401.03 75.2251 400.945 61.9651 400.605Z" fill="#1C3177"/>
<path d="M215.985 326.06C217.43 329.46 220.915 331.585 226.695 332.605C235.45 334.135 241.06 331.925 241.06 331.925L240.89 328.695L239.7 309.825C239.7 309.825 232.22 308.805 224.4 311.355C217.515 313.65 214.54 317.39 215.135 323.085C215.305 324.105 215.56 325.125 215.985 326.06Z" fill="#F0F6FF"/>
<path d="M239.577 309.644C237.843 309.754 236.756 314.857 237.148 321.041C237.54 327.225 239.264 332.149 240.997 332.039C242.73 331.929 243.818 326.827 243.426 320.643C243.033 314.459 241.31 309.534 239.577 309.644Z" fill="#C2D7EF"/>
<path d="M215.985 326.06C217.43 329.46 220.915 331.585 226.695 332.605C235.45 334.135 241.06 331.925 241.06 331.925L240.89 328.695C237.49 328.525 233.155 328.27 228.99 327.845C223.04 327.08 218.62 326.485 215.985 326.06Z" fill="#C2D7EF"/>
<path d="M249.645 317.645L241.91 318.41C240.89 318.495 239.955 317.73 239.87 316.71L239.785 316.2C239.7 315.18 240.465 314.245 241.485 314.16L249.22 313.395C250.41 313.31 251.43 314.16 251.515 315.265C251.685 316.54 250.835 317.56 249.645 317.645Z" fill="#87AACC"/>
<path d="M250.41 327.165L242.675 327.93C241.655 328.015 240.72 327.25 240.635 326.23L240.55 325.72C240.465 324.7 241.23 323.765 242.25 323.68L249.985 322.915C251.175 322.83 252.195 323.68 252.28 324.785C252.45 326.06 251.6 327.08 250.41 327.165Z" fill="#87AACC"/>
<path d="M456.365 398.82C450.585 398.65 399.755 396.78 385.05 378.59C375.105 366.265 380.97 357.935 386.07 350.54C387.26 348.84 388.45 347.055 389.555 345.27C391.34 342.21 391.425 338.895 389.725 335.75C387.94 332.435 381.31 324.615 358.7 323.68C326.315 322.235 284.325 324.02 283.9 324.105C281.69 324.19 279.82 322.49 279.735 320.28C279.65 318.07 281.35 316.2 283.56 316.115C283.985 316.115 326.4 314.245 359.125 315.69C384.795 316.88 393.72 326.4 396.78 332.01C399.84 337.62 399.67 343.91 396.525 349.35C395.335 351.475 393.975 353.345 392.7 355.13C387.685 362.355 385.135 366.01 391.34 373.66C402.135 387.005 442.51 390.66 457.13 390.915C459.34 391 461.04 392.785 461.04 394.995C460.955 397.205 459.17 398.905 456.96 398.905C456.705 398.82 456.535 398.82 456.365 398.82Z" fill="#1C3177"/>
<path d="M289.085 322.83C287.895 326.315 284.665 328.78 278.97 330.225C270.385 332.435 264.605 330.65 264.605 330.65L264.52 327.42L264.18 308.55C264.18 308.55 271.575 306.85 279.48 308.805C286.535 310.505 289.765 313.99 289.68 319.77C289.595 320.875 289.425 321.895 289.085 322.83Z" fill="#F0F6FF"/>
<path d="M289.085 322.83C287.895 326.315 284.665 328.78 278.97 330.225C270.385 332.435 264.605 330.65 264.605 330.65L264.52 327.42C267.92 326.995 272.17 326.4 276.335 325.55C282.2 324.445 286.45 323.51 289.085 322.83Z" fill="#C2D7EF"/>
<path d="M264.634 330.808C266.37 330.776 267.685 325.728 267.571 319.532C267.457 313.337 265.957 308.341 264.22 308.373C262.483 308.405 261.168 313.453 261.282 319.648C261.397 325.844 262.897 330.84 264.634 330.808Z" fill="#C2D7EF"/>
<path d="M264.41 318.824C264.832 318.817 265.144 317.136 265.106 315.071C265.068 313.006 264.695 311.338 264.272 311.346C263.85 311.354 263.538 313.034 263.576 315.099C263.614 317.164 263.988 318.832 264.41 318.824Z" fill="#87AACC"/>
<path d="M264.411 328.515C264.833 328.507 265.145 326.827 265.107 324.762C265.069 322.697 264.696 321.029 264.273 321.037C263.851 321.044 263.539 322.725 263.577 324.79C263.615 326.855 263.989 328.523 264.411 328.515Z" fill="#87AACC"/>
<path d="M210.46 321.725C210.46 322.405 210.46 323.085 210.375 323.68C209.95 328.015 207.825 331.16 203.235 333.285C201.96 333.88 200.43 334.39 198.645 334.73C195.585 335.495 191.76 335.92 187.17 336.175C186.15 336.26 185.045 336.26 183.855 336.26C183.005 336.26 182.24 336.26 181.39 336.26C178.5 336.26 175.78 336.175 173.23 336.005C171.53 335.835 169.83 335.58 168.385 335.325C162.095 333.965 158.015 330.99 157.25 325.125C157.76 329.46 148.58 301.24 183.685 297.925C199.92 296.31 210.46 312.035 210.46 321.725Z" fill="#FCAA51"/>
<path d="M210.46 321.725C210.46 322.405 210.46 323.085 210.375 323.68C206.975 328.27 198.985 330.48 183.685 330.735C171.53 330.99 161.755 330.14 157.25 325.04C157.76 329.375 148.58 301.155 183.685 297.84C199.92 296.31 210.46 312.035 210.46 321.725Z" fill="#FEC272"/>
<path d="M173.23 336.005C171.53 335.835 169.83 335.58 168.385 335.325C168.13 333.03 167.62 327.505 168.045 322.915C168.64 316.88 170.935 316.54 171.615 317.645C172.295 318.75 171.87 325.21 172.635 331.16C172.805 332.86 173.06 334.56 173.23 336.005Z" fill="#FFA245"/>
<path d="M203.235 333.285C201.96 333.88 200.43 334.39 198.645 334.73C198.475 333.115 198.305 331.16 198.05 329.12C197.37 323.17 195.415 316.965 195.755 315.775C196.095 314.585 198.475 314.33 200.43 320.11C202.385 325.465 203.15 332.35 203.235 333.285Z" fill="#FFA245"/>
<path d="M187.17 336.175C186.15 336.26 185.045 336.26 183.855 336.26C183.005 336.26 182.24 336.26 181.39 336.26C181.39 333.965 181.305 330.905 181.135 328.1C180.88 322.575 180.71 319.005 182.41 318.665C184.11 318.325 185.895 324.445 186.66 330.905C186.915 333.115 187.085 334.815 187.17 336.175Z" fill="#FFA245"/>
<path d="M294.525 317.305C294.525 317.985 294.61 318.665 294.695 319.26C295.205 323.595 297.33 326.74 301.92 328.695C303.28 329.29 304.81 329.715 306.51 330.14C309.57 330.82 313.395 331.245 317.985 331.415C319.005 331.415 320.11 331.5 321.3 331.5C322.15 331.5 322.915 331.5 323.765 331.5C326.655 331.5 329.375 331.415 331.925 331.075C333.625 330.905 335.24 330.65 336.77 330.31C342.975 328.865 347.055 325.89 347.735 319.94C348.84 309.91 337.195 294.44 320.96 293.08C304.725 291.72 294.355 307.53 294.525 317.305Z" fill="#FCAA51"/>
<path d="M294.525 317.305C294.525 317.985 294.61 318.665 294.695 319.26C298.18 323.85 306.17 325.89 321.47 325.975C333.625 326.06 343.4 325.04 347.82 319.94C348.925 309.91 337.28 294.44 321.045 293.08C304.725 291.72 294.355 307.53 294.525 317.305Z" fill="#FEC272"/>
<path d="M331.925 331.075C333.625 330.905 335.24 330.65 336.77 330.31C337.025 328.015 337.45 322.49 336.94 317.9C336.26 311.865 333.965 311.525 333.285 312.63C332.69 313.735 333.2 320.195 332.52 326.145C332.35 327.93 332.095 329.545 331.925 331.075Z" fill="#FFA245"/>
<path d="M301.92 328.695C303.28 329.29 304.81 329.715 306.51 330.14C306.595 328.525 306.765 326.57 307.02 324.53C307.615 318.58 309.485 312.375 309.06 311.185C308.72 309.995 306.34 309.74 304.385 315.52C302.685 320.875 302.005 327.76 301.92 328.695Z" fill="#FFA245"/>
<path d="M317.985 331.33C319.005 331.33 320.11 331.415 321.3 331.415C322.15 331.415 322.915 331.415 323.765 331.415C323.765 329.12 323.765 326.06 323.85 323.255C324.02 317.73 324.105 314.16 322.49 313.82C320.79 313.48 319.09 319.685 318.41 326.145C318.155 328.355 318.07 330.055 317.985 331.33Z" fill="#FFA245"/>
</svg>
