<?xml version="1.0" encoding="utf-8"?>
<!-- Generator: Adobe Illustrator 22.0.1, SVG Export Plug-In . SVG Version: 6.00 Build 0)  -->
<svg version="1.1" id="Capa_2" xmlns="http://www.w3.org/2000/svg" xmlns:xlink="http://www.w3.org/1999/xlink" x="0px" y="0px"
	 viewBox="0 0 84.4 33.5" style="enable-background:new 0 0 84.4 33.5;" xml:space="preserve">
<style type="text/css">
	.st0{fill:#FFFFFF;}
</style>
<path d="M-528.3,10.8c-3,1.2-5.9,2.3-8.7,3.4c-0.6,0.2-1.2,0.5-1.8,0.8c-0.9,0.4-1.6,0-2.1-0.8c-0.5-0.9-0.2-1.6,0.5-2.2
	c0.5-0.5,1.2-0.8,1.9-1.1c2.7-1.2,5.4-2.3,8.4-3.6c-0.8-0.8-1.4-1.6-2.1-2.1c-4.4-3-9.3-4.8-14.6-5.2c-1.5-0.1-3.1,0.3-4.6,0.5
	c-1.2,0.1-2.3,0.1-2.6-1.3c-0.3-1.3,0.6-2,1.7-2.4c2.6-1,5.2-1,7.9-0.6c5.1,0.8,10,2.5,14.2,5.5c1.7,1.2,3.1,2.8,4.8,4.5
	c1.3-0.2,3-0.5,4.6-0.7c10.3-1.3,20.5-0.4,30.7,1.4c6.8,1.2,13.6,3,20.4,4.5c0.7,0.2,1.4,0.3,2.3,0c-1.2-0.9-2.4-1.8-3.6-2.8
	c-0.6-0.5-1.3-1.1-1.7-1.7c-0.5-0.8-0.5-1.8,0.4-2.5c0.8-0.6,1.5-0.4,2.2,0.2c3.6,2.7,7.2,5.4,10.7,8.1c0.5,0.4,1,0.8,1.5,1.3
	c1.2,1.3,1,2.7-0.5,3.7c-0.5,0.4-1.1,0.6-1.7,0.8c-2.8,1.1-5.6,2.2-8.4,3.3c-0.4,0.2-0.9,0.3-1.3,0.4c-1,0.2-1.8-0.2-2.3-1.1
	c-0.5-1-0.1-1.9,0.8-2.4c1.3-0.7,2.7-1.3,4.1-2.2c-18.4-5.1-36.9-9.4-56.4-6.5c0,0.8-0.1,1.4,0,2c0.9,6.8-1.7,12.3-6.6,16.6
	c-6.8,5.9-14.9,8-23.8,7.4c-3.8-0.3-7.4-1.2-10.8-3c-9-4.7-13-14.2-10.1-24c4.1-13.6,19.7-23.1,33-20.1c1.1,0.2,2.1,0.6,3.1,1.1
	c1,0.5,1.6,1.3,1.1,2.4c-0.5,1-1.4,1.1-2.4,0.8c-1.3-0.3-2.6-0.9-4-1c-11.5-1.3-24.1,7.4-27.1,18.5c-2,7.3,0.9,14.4,7.5,18.2
	c9.3,5.4,24.1,3.4,31.7-4.3c2.2-2.2,3.7-4.8,4.3-7.8C-527.3,15-527.2,13.1-528.3,10.8z"/>
<g>
	<path d="M-546.4,194.3c-8.1-1.3-15.5-4.4-21.6-10c-4.3-4-7.3-8.8-8.3-14.6c-1.3-7.1,0.5-13.5,5.3-18.9c7.4-8.3,16.8-12.2,27.8-12.3
		c3.5,0,7.1,0.7,10.6,1.4c1.3,0.2,2.6,0.9,3.7,1.7c0.5,0.3,0.7,1.5,0.5,2.1c-0.2,0.9-1.2,1.1-2.1,0.8c-1-0.3-1.9-0.8-2.8-1
		c-12.1-2.9-23-0.5-32.4,7.6c-9,7.9-9.4,19.4-1.4,28.4c4.8,5.3,10.9,8.4,17.6,10.2c7.6,2,15.2,2.4,22.8-0.1c6.1-2,10.7-5.8,12.7-12
		c2.3-7.1,1-13.8-3.9-19.6c-0.7-0.8-1.5-1.6-2.3-2.4c-0.8-0.8-1.1-1.7-0.5-2.7c0.6-0.9,1.7-1,2.9-0.1c1.1,0.8,2.2,1.7,3.1,2.7
		c4.5,5.2,6.3,11.3,5.6,18.1c-0.8,8.4-5.3,14.3-12.6,18.1c-6.3,3.3-13.1,3.9-20.1,3.3C-543.4,195-544.9,194.6-546.4,194.3z"/>
	<path d="M-538,158.4c0.8-0.7,1.6-1.5,2.4-2.2c4.7-4.7,9.8-8.8,15.9-11.7c7.4-3.5,15-5.2,23.2-4.3c0.2,0,0.5-0.1,1.2-0.1
		c-0.9-1-1.7-1.7-2.4-2.5c-0.8-0.8-1.3-1.6-0.4-2.7c0.6-0.8,1.9-0.9,2.9,0.1c2.9,2.7,5.8,5.4,8.5,8.2c1.4,1.4,1,2.8-0.9,3.7
		c-3.5,1.7-7.1,3.5-10.6,5.2c-1.4,0.7-2.6,0.5-3.1-0.6c-0.5-1-0.2-2.1,1.2-3c1.5-0.9,3-1.7,4.5-2.6c0.5-0.3,1.1-0.6,2-1.2
		c-2.2-0.8-4.1-1.1-5.9-1.1c-10.1,0.1-19,3.6-26.9,9.7c-3.1,2.4-5.8,5.3-8.7,8c-0.6,0.5-1,1.2-1.2,2.2c1.5-0.6,3-1.2,4.5-1.7
		c0.8-0.3,1.6-0.7,2.4-0.6c0.7,0.1,1.7,0.5,1.9,1.1c0.2,0.5-0.1,1.6-0.6,2.1c-0.5,0.6-1.4,0.8-2.1,1.2c-3.1,1.3-6.3,2.5-9.4,3.8
		c-2.7,1.1-4.2,0-3.8-2.8c0.4-3.5,1-6.9,1.5-10.3c0.1-0.5,0.2-1.2,0.6-1.5c0.6-0.5,1.5-1,2-0.9c0.5,0.2,1,1.2,1.1,1.9
		c0.2,0.7-0.1,1.6-0.2,2.4C-538.3,158.3-538.1,158.4-538,158.4z"/>
</g>
<g>
	<path d="M-340.6,61.1c0.7,0.6,1.4,1.1,2.1,1.7c5.2,5.5,4.9,12.5-0.7,17.4c-1.6,1.4-3.3,2.6-5.2,3.6c-13.1,6.5-26.8,7.7-40.9,4.4
		c-3-0.7-5.7-2.1-8-4c-5.4-4.4-7-11.2-4.1-17.6c1.5-3.4,3.9-6.2,6.7-8.6c9.9-8.2,21.2-11.7,34-10.4c4.4,0.5,8.6,1.9,12.3,4.4
		c1.6,1.1,3,2.4,4.3,3.8C-338.6,57.8-338.7,58.8-340.6,61.1z M-343.1,59c0.1-0.1,0.2-0.3,0.4-0.4c-0.6-0.6-1.1-1.3-1.7-1.9
		c-2.4-2.2-5.3-3.6-8.5-4.3c-14.6-3.1-27.2,0.8-37.8,11.2c-1.3,1.3-2.4,3.1-3.1,4.8c-2,4.3-1.1,8.2,2,11.7c1.7,1.9,3.9,3.2,6.3,3.8
		c3.5,0.8,7,1.6,10.5,1.9c9.4,0.7,18.5-0.7,27.1-4.7c2.3-1.1,4.5-2.5,6.4-4.2c3.4-3,3.6-7.1,0.7-10.5c-1.5-1.8-3.5-3.2-5.5-4.4
		c-6.1-3.6-12.8-4.8-19.9-3.9c-0.7,0.1-1.5,0.3-2.2,0.1c-0.6-0.2-1.3-0.8-1.4-1.4c-0.1-0.5,0.4-1.5,0.9-1.8c0.7-0.5,1.7-0.6,2.6-0.8
		c7.5-1.4,14.4,0.4,21,3.7C-344.6,58.2-343.9,58.6-343.1,59z"/>
	<path d="M-325.8,53.3c1.5,0.3,3,0.6,4.5,0.9c1,0.2,2,0.4,2.9,0.6c1,0.3,1.5,1,1.4,2.1c-0.1,1.1-0.8,1.6-1.9,1.6
		c-0.8,0-1.6-0.1-2.5-0.2c-3.2-0.5-6.5-1.1-9.7-1.6c-2.8-0.4-3.7-1.9-2.4-4.4c1.6-3.2,3.3-6.3,4.9-9.5c0.5-1,1.3-1.6,2.5-1.1
		c1.1,0.5,1.2,1.5,0.8,2.6c-0.4,1.1-0.8,2.2-1.4,3.8c0.9-0.4,1.4-0.6,1.9-0.9c2.9-1.9,5.8-3.8,8.7-5.8c0.5-0.4,1.1-0.8,1.6-1
		c1-0.4,2.1-0.4,2.6,0.7c0.6,1.1,0,1.8-1,2.5c-3.8,2.6-7.5,5.2-11.3,7.8c-0.6,0.4-1.2,0.8-1.7,1.3
		C-325.8,52.9-325.8,53.1-325.8,53.3z"/>
	<path d="M-347,32.9c0.7-0.7,1.4-1.3,2.2-2c0.8-0.7,1.6-1.5,2.5-2.1c0.8-0.6,1.8-0.5,2.5,0.3c0.7,0.8,0.6,1.7,0,2.5
		c-0.3,0.4-0.7,0.8-1.1,1.2c-2.7,2.7-5.4,5.4-8.2,8.2c-2.2,2.2-4,1.9-4.9-1c-1-3.2-1.6-6.6-2.3-9.9c-0.2-1-0.1-2.1,1.2-2.4
		c1.1-0.3,1.7,0.3,2.3,1.8c0.2,0.8,0.5,1.5,0.9,2.8c0.5-1,0.8-1.5,0.9-2c0.9-3,1.7-6,2.5-9c0.2-0.9,0.4-1.8,0.8-2.6
		c0.4-0.9,1.2-1.5,2.2-1.2c1.2,0.4,1.4,1.3,1.1,2.4c-0.8,3.3-1.7,6.6-2.5,9.9c-0.2,0.9-0.5,1.9-0.7,2.8
		C-347.3,32.7-347.2,32.8-347,32.9z"/>
	<path d="M-325.4,84.3c0.7,1.9,1.2,3.4,1.7,4.8c0.2,0.7,0.5,1.4,0.6,2.1c0.1,0.9-0.2,1.8-1.2,1.9c-0.7,0-1.5-0.4-2.1-0.8
		c-0.4-0.3-0.5-1-0.7-1.5c-0.9-2.6-1.9-5.2-2.8-7.7c-0.9-2.5,0-4.5,2.6-5c3-0.6,6.1-0.9,9.2-1.4c0.4-0.1,1-0.2,1.3,0
		c0.6,0.4,1.4,0.9,1.6,1.5c0.3,1-0.4,1.8-1.4,2c-1.4,0.3-2.9,0.3-4.8,0.5c0.7,0.5,1,0.9,1.4,1.1c2.1,1.1,4.3,2.1,6.4,3.2
		c0.6,0.3,1.2,0.6,1.5,1.1c0.3,0.5,0.4,1.3,0.2,1.8c-0.2,0.5-1,0.9-1.5,0.9c-0.8,0-1.6-0.4-2.3-0.7c-2.6-1.1-5.2-2.2-7.8-3.3
		C-323.9,84.5-324.4,84.5-325.4,84.3z"/>
</g>
<g>
	<path d="M-433.3,201.2c-1.9-2.7-3.6-5.1-5.3-7.5c-0.5-0.7-1-1.5-1.4-2.3c-0.5-1-0.3-2,0.7-2.7c1-0.7,2-0.2,2.6,0.7
		c1.2,1.6,2.3,3.3,3.4,5c0.6,0.9,1.2,1.8,2.1,3c1.1-1.8,2-3.3,2.9-4.8c0.4-0.7,0.8-1.4,1.3-2.1c0.7-0.8,1.5-1,2.4-0.4
		c0.9,0.6,0.8,1.4,0.5,2.2c-0.9,1.9-2,3.7-3,5.6c-1.8,3.2-1.8,3.2,0.4,6.2c0.2,0.2,0.3,0.4,0.5,0.7c1.3,1.8,1.4,2.9,0.4,3.6
		c-0.9,0.7-1.9,0.3-3.2-1.2c-0.7-0.8-1.3-1.5-2-2.4c-1.6,2.2-3.1,4.3-4.7,6.3c-0.6,0.8-1.2,1.6-1.9,2.3c-1.2,1.2-2.3,1.4-3.1,0.7
		c-0.8-0.7-0.8-1.8,0.1-3.3c0.4-0.6,0.9-1.1,1.3-1.7C-437.2,206.5-435.3,204-433.3,201.2z"/>
	<path d="M-463.4,203c-2,1.9-4,3.7-6,5.4c-0.7,0.7-1.6,1.3-2.5,1.7c-1,0.5-2,0.3-2.6-0.7c-0.6-0.9-0.2-1.8,0.5-2.4
		c1.7-1.4,3.3-2.8,5-4.3c0.8-0.7,1.6-1.5,2.6-2.4c-0.5-0.6-0.9-1.2-1.3-1.7c-0.8-0.9-1.7-1.7-2.4-2.6c-1.1-1.3-1-2.6,0-3.4
		c1-0.7,2-0.5,3,0.7c1.1,1.3,2.3,2.6,3.6,4c1.2-1.1,2.2-2,3.2-2.9c0.4-0.4,0.8-0.9,1.3-1c0.7-0.1,1.7-0.2,2.2,0.2
		c0.9,0.6,0.7,1.7,0,2.4c-1.2,1.3-2.4,2.5-3.9,3.9c1.2,1.1,2.3,2.2,3.4,3.2c0.7,0.7,1.5,1.4,2,2.2c0.6,0.8,0.6,1.8-0.4,2.4
		c-0.8,0.5-1.5,0.4-2.3-0.2c-1.5-1.3-3-2.7-4.5-4C-462.6,203.5-463,203.3-463.4,203z"/>
	<path d="M-406.8,204.4c-1.1,0.9-1.9,1.7-2.8,2.5c-0.8,0.6-1.7,0.9-2.5,0.2c-1-0.8-0.9-1.8-0.2-2.7c0.7-0.9,1.6-1.7,2.7-2.8
		c-0.7-0.8-1.5-1.6-2.2-2.4c-0.9-1.1-0.9-2.2-0.2-2.9c0.8-0.7,1.8-0.6,2.9,0.4c0.8,0.7,1.4,1.4,2.3,2.3c0.6-0.5,1.1-0.9,1.7-1.4
		c0.5-0.5,1-1.1,1.6-1.5c0.8-0.7,1.8-0.7,2.4,0.1c0.4,0.5,0.4,1.7,0.1,2.2c-0.7,1.2-1.8,2.3-2.9,3.5c0.7,0.8,1.3,1.6,1.9,2.3
		c0.9,1.2,0.9,2.3,0.1,2.9c-1,0.8-1.9,0.3-2.7-0.5C-405.3,205.9-405.9,205.3-406.8,204.4z"/>
</g>
<g>
	<path d="M-161.1,69.6c-1.4-0.8-2.9-1.5-4.3-2.3c-0.8-0.5-1.6-1-2.1-1.7c-0.4-0.6-0.6-1.6-0.4-2.2c0.4-1,1.5-1.1,2.4-0.6
		c1.6,0.8,3.2,1.7,4.8,2.6c0.5,0.3,1,0.6,1.9,0.6c-0.4-0.9-0.8-1.7-1.2-2.6c-0.3-0.7-0.7-1.3-1-2c-0.3-1-0.1-1.9,0.9-2.4
		c0.9-0.5,1.8-0.3,2.5,0.5c0.5,0.6,0.8,1.2,1.2,1.9c1.6,2.7,3.2,5.3,4.8,8c0.3,0.5,0.6,0.9,0.8,1.4c0.5,1.6-0.1,2.7-1.8,3.1
		c-0.5,0.1-1.1,0.1-1.6,0.1c-2.6,0-5.1,0-7.7-0.1c-0.9,0-1.9-0.1-2.6-0.5c-0.5-0.3-0.8-1.2-0.8-1.8c0-0.4,0.8-1,1.3-1.2
		c0.9-0.2,1.9-0.2,2.9-0.2C-161.2,70-161.2,69.8-161.1,69.6z"/>
	<path d="M-264.1,56.5c1.6,0.2,3.3,0.4,4.9,0.7c1,0.2,1.7,0.8,1.6,1.9c-0.1,1.1-1,1.5-2,1.4c-2.5-0.1-4.9-0.2-7.4-0.3
		c-1.1-0.1-2-0.6-1.9-1.9c0.1-1.3,1-1.6,2.1-1.7c0.9,0,1.8,0,2.7,0C-264.1,56.6-264.1,56.6-264.1,56.5z"/>
	<path d="M-213,65.8c0.3-0.3,0.7-1.1,1.4-1.4c2-1.1,4.1-2,6.2-2.9c0.4-0.2,0.9-0.4,1.3-0.3c0.6,0.2,1.5,0.5,1.7,1
		c0.2,0.5,0,1.7-0.4,1.9c-2.7,1.3-5.4,2.6-8.2,3.6C-212,68.1-212.8,67.4-213,65.8z"/>
	<path d="M-190.7,57.4c0.6,0.1,1.2,0.1,1.5,0.3c0.5,0.4,1.3,1,1.3,1.5c0,0.5-0.6,1.5-1.1,1.6c-2.6,0.6-5.2,1-7.8,1.4
		c-0.9,0.1-1.6-0.3-1.8-1.3c-0.1-0.9,0.3-1.7,1.2-1.9C-195.2,58.4-192.9,57.9-190.7,57.4z"/>
	<path d="M-218.9,67.3c1.1-0.2,2.1,0.1,2.3,1.3c0.2,1.2-0.6,2-1.7,2.1c-2.1,0.3-4.2,0.5-6.3,0.7c-1.1,0.1-2-0.4-2.1-1.7
		c0-1.3,0.9-1.7,2-1.8C-222.7,67.7-220.8,67.5-218.9,67.3z"/>
	<path d="M-276,58.8c0.2,0.2,1,0.4,1.1,0.9c0.2,0.6,0,1.5-0.4,1.9c-1.5,1.4-3.2,2.8-4.9,4c-0.4,0.3-1.4,0.4-1.7,0.1
		c-0.5-0.4-0.9-1.2-0.8-1.8C-282.6,61.9-278.5,58.7-276,58.8z"/>
	<path d="M-237.7,67.1c2.4,0.5,4.4,0.8,6.3,1.3c0.6,0.2,1.3,1.1,1.4,1.8c0.2,1.1-0.9,1.7-1.8,1.6c-2.2-0.3-4.3-0.8-6.4-1.3
		c-1-0.3-1.5-1.3-1-2.2C-238.9,67.7-238.1,67.4-237.7,67.1z"/>
	<path d="M-180.3,58.5c1.7,0.4,3.5,0.7,5.2,1.2c1,0.3,1.9,1,1.5,2.2c-0.3,1.2-1.3,1.5-2.4,1.3c-1.8-0.3-3.6-0.7-5.3-1.2
		c-1-0.3-1.6-0.9-1.4-2C-182.4,58.7-181.4,58.5-180.3,58.5z"/>
	<path d="M-245.7,63.8c0.1,1-0.8,2.1-1.7,1.7c-2.1-0.8-4.1-1.9-6-3.1c-0.3-0.2-0.4-1.3-0.2-1.7c0.2-0.5,1.2-1,1.5-0.9
		c2.1,1,4.1,2.2,6.2,3.4C-245.7,63.2-245.7,63.6-245.7,63.8z"/>
</g>
<g>
	<path d="M-190.2-65c-0.2,1.6-0.3,2.6-0.5,3.6c-0.2,1-1,1.8-1.9,1.5c-0.6-0.2-1.2-1-1.5-1.7c-0.3-0.8-0.1-1.8-0.1-3.1
		c-1.4,0.8-2,1.9-2.8,2.8c-1.1,1.2-2,1.4-2.8,0.7c-0.8-0.7-0.9-1.9-0.1-3c1.8-2.4,3.7-4.8,5.6-7.1c1.3-1.5,2.6-1.5,4,0
		c0.9,0.9,1.6,2,2.5,2.9c1.9,2.1,3.8,4.2,5.7,6.3c0.8,0.8,1.1,1.7,0.4,2.7c-0.6,0.9-2,1.1-2.9,0.4c-0.8-0.6-1.5-1.3-2.2-2
		C-187.8-62.2-188.8-63.4-190.2-65z"/>
	<path d="M-260.5-42.2c0,0.7,0.2,1.2,0.1,1.6c-0.3,0.6-0.8,1.3-1.3,1.5c-0.4,0.2-1.3-0.2-1.6-0.7c-0.7-0.9-1.1-2.1-1.8-3.3
		c-0.7-0.2-1.5-0.3-2.3-0.6c-1-0.3-1.8-0.9-1.7-2.2c0.2-1.3,1.1-1.6,2.2-1.4c0.3,0,0.5,0,0.9,0.1c0.6-0.9,0.5-2.5,2.1-2.5
		c2,0,1.6,1.9,2.3,3c0.7,0.2,1.4,0.4,2.1,0.5c1,0.2,1.8,0.8,1.7,1.8c-0.1,0.6-0.9,1.2-1.4,1.7C-259.5-42.3-260-42.4-260.5-42.2z"/>
	<path d="M-239.7-24.6c-1-0.7-1.9-1.2-1.7-2.4c0.2-1.2,1.1-1.5,2.3-1.5c3.1,0,6.2-0.1,9.3-0.1c1.1,0,2.1,0.1,2.4,1.4
		c0.3,1-0.5,2.2-1.8,2.3C-232.7-24.7-236.2-24.7-239.7-24.6z"/>
	<path d="M-285.5-55.6c-0.4,1.4-1.9,2.1-2.6,1.2c-1.7-2-3.3-4.3-4.7-6.6c-0.2-0.4,0.3-1.6,0.8-2c0.7-0.6,1.6-0.3,2.1,0.4
		c1.4,1.8,2.7,3.6,4,5.5C-285.6-56.6-285.6-55.9-285.5-55.6z"/>
	<path d="M-212.5-30.2c-0.4,0.3-1,1-1.7,1.2c-2,0.7-4,1.3-6,1.9c-0.9,0.3-1.7,0-2.1-0.9c-0.4-1-0.1-2,0.8-2.3
		c2.4-0.9,4.8-1.8,7.2-2.4C-213-32.9-212-31.6-212.5-30.2z"/>
	<path d="M-249.6-29.9c-0.4,1.4-1.6,2.1-2.5,1.4c-2-1.6-4-3.5-5.8-5.3c-0.7-0.7-0.5-1.8,0.3-2.5c0.8-0.7,1.7-0.4,2.4,0.3
		c1.5,1.4,3,2.7,4.4,4.1C-250.2-31.3-249.9-30.4-249.6-29.9z"/>
	<path d="M-264.1-52.7c-0.1,0.1-0.7,0.8-1.3,0.8c-0.6,0-1.6-0.7-1.8-1.3c-0.7-2.7-0.5-5.4,0.9-7.9c0.5-0.9,1.3-1.4,2.3-1
		c1.1,0.4,1.1,1.3,0.9,2.3C-263.5-57.7-263.7-55.5-264.1-52.7z"/>
	<path d="M-192.2-51.8c-0.6,1.2-1.5,3-2.6,4.7c-0.5,0.8-1.4,1.3-2.4,0.8c-1.1-0.6-1.1-1.6-0.7-2.6c0.7-1.6,1.5-3.1,2.2-4.7
		c0.7-1.6,1.5-2.3,2.5-1.9C-192.1-55.2-191.6-53.9-192.2-51.8z"/>
	<path d="M-256.2-71.1c1.2,0.3,1.8,1.8,0.9,2.6c-1.8,1.7-3.7,3.2-5.7,4.6c-0.4,0.3-1.4,0.2-1.7-0.1c-0.4-0.4-0.7-1.3-0.5-1.9
		c0.4-1.7,4.6-5.1,6.4-5.2C-256.6-71.2-256.4-71.1-256.2-71.1z"/>
	<path d="M-238.6-54.8c-0.7,0.5-1.2,1.2-1.8,1.2c-0.6,0-1.6-0.5-1.7-1c-0.5-2.3-0.9-4.7-1.1-7c0-0.5,0.8-1.3,1.3-1.5
		c0.5-0.1,1.6,0.4,1.8,0.8C-239.5-59.8-239.1-57.4-238.6-54.8z"/>
	<path d="M-202.7-41.7c1.2,0.6,1.6,1.4,1.2,2.4c-0.3,0.6-0.8,1.2-1.3,1.7c-1,1-2.2,2-3.2,3c-0.7,0.7-1.4,0.9-2.2,0.4
		c-1-0.6-1-1.5-0.6-2.4c0.2-0.4,0.4-0.8,0.7-1.1c1.2-1.1,2.4-2.3,3.7-3.3C-203.9-41.4-203.2-41.5-202.7-41.7z"/>
	<path d="M-278.1-46.8c-1.3-0.9-2.8-1.7-4-2.8c-0.8-0.6-0.9-1.6-0.2-2.4c0.7-0.8,1.5-0.7,2.5-0.2c1.2,0.7,2.4,1.2,3.7,1.8
		c1,0.4,1.8,1,1.6,2.2c-0.2,1-1.2,1.6-2.6,1.4c-0.3,0-0.5-0.1-0.8-0.2C-278-47-278.1-46.9-278.1-46.8z"/>
	<path d="M-244.9-47c-0.5,0.6-0.8,1.1-1.2,1.4c-1.2,0.8-2.4,1.6-3.6,2.4c-0.9,0.5-1.9,0.6-2.4-0.4c-0.3-0.6-0.2-1.8,0.2-2.2
		c1.4-1.2,3-2.3,4.7-3.2c0.4-0.2,1.3,0.1,1.7,0.4C-245.1-48.3-245-47.5-244.9-47z"/>
	<path d="M-247.1-71.1c0.8,0.5,2.1,1.3,3.3,2.3c0.9,0.7,1,1.8,0.2,2.7c-0.7,0.8-1.6,0.5-2.5,0c-1.1-0.6-2.2-1.3-3.3-1.8
		c-1.1-0.5-2.1-0.9-1.8-2.3c0.2-1.1,1.4-1.5,2.9-1.2C-248-71.3-247.8-71.3-247.1-71.1z"/>
</g>
<g>
	<path d="M-159.4-147.5c-2.7-1.2-3.5-1.9-3.1-3.1c0.7-2.2,2.5-0.7,3.9-1c-0.4-1.3-1.6-1.7-2.4-2.5c-0.7-0.6-1.5-1.1-2.1-1.8
		c-0.7-0.8-0.7-1.7,0-2.5c0.6-0.7,1.5-0.7,2.2-0.1c0.7,0.5,1.4,0.9,2,1.4c2.3,2.1,4.7,4.1,7,6.2c1.9,1.8,1.6,3.3-0.8,4.6
		c-1.4,0.7-2.8,1.3-4.2,2.1c-2.7,1.6-5.3,3.2-8,4.9c-1,0.6-2,1-3,0c-0.8-0.9-0.8-2.1,0.5-3.1c1.6-1.3,3.5-2.4,5.2-3.6
		C-161.3-146.5-160.5-146.9-159.4-147.5z"/>
	<path d="M-255-157.5c-1.1-0.2-2.1-0.6-2.1-1.8c-0.1-1.3,0.9-1.8,1.9-1.9c3.6-0.5,7.3-0.9,10.9-1.2c0.4,0,1,0,1.3,0.2
		c0.5,0.3,1.1,0.9,1.1,1.4c0.1,0.5-0.4,1.2-0.8,1.6c-0.3,0.3-0.8,0.5-1.2,0.5C-247.6-158.4-251.3-158-255-157.5z"/>
	<path d="M-212.4-161.8c1.6,0.2,3.3,0.3,4.9,0.5c1,0.1,1.7,0.6,1.7,1.8c0,1.1-0.8,1.6-1.8,1.8c-0.6,0.1-1.3,0.1-1.9,0
		c-2.6-0.2-5.3-0.5-7.9-0.8c-0.3,0-0.6,0-0.8-0.1c-1-0.3-1.7-0.8-1.6-1.9c0.1-1,0.9-1.7,1.9-1.6c1.8,0.1,3.6,0.3,5.5,0.5
		C-212.4-161.7-212.4-161.8-212.4-161.8z"/>
	<path d="M-197.5-160.2c1.5,0.1,2.9,0.2,4.4,0.4c1.1,0.1,2,0.7,1.9,1.9c-0.1,1.2-1,1.8-2.1,1.7c-3.2-0.3-6.4-0.6-9.6-1
		c-1-0.1-1.8-0.9-1.5-1.9c0.2-0.6,1.1-1.5,1.7-1.5C-201-160.6-199.3-160.3-197.5-160.2C-197.5-160.1-197.5-160.1-197.5-160.2z"/>
	<path d="M-287-152.2c-1.4-0.2-2-1.5-1.2-2.6c0.2-0.3,0.5-0.6,0.8-0.7c2.8-0.9,5.5-1.7,8.4-2.5c1-0.2,1.9,0.3,1.9,1.4
		c0,0.7-0.5,1.8-1.1,1.9c-2.7,0.9-5.6,1.7-8.4,2.4C-286.6-152.2-286.8-152.2-287-152.2z"/>
	<path d="M-227.1-162.6c0.3,0,0.6,0.1,0.9,0.1c1.1,0.1,2.3,0.3,2.2,1.8c0,1.4-1.2,1.8-2.3,1.8c-2.5,0.1-4.9,0-7.4,0
		c-1.1,0-2-0.4-2.1-1.6c-0.1-1,0.8-1.9,2.2-2C-231.4-162.6-229.2-162.6-227.1-162.6z"/>
	<path d="M-172-155.1c2,0.6,4.2,1.3,6.5,2.1c1,0.3,1.6,1,1.3,2.1c-0.2,1.1-1.1,1.5-2.1,1.3c-1.3-0.2-2.6-0.6-4-1
		c-1.1-0.3-2.3-0.6-3.4-1c-1-0.3-1.9-0.9-1.6-2.2c0.3-1.2,1.3-1.5,2.4-1.3C-172.7-155.1-172.5-155.1-172-155.1z"/>
	<path d="M-264.7-160.3c0.5,0.6,1.4,1.1,1.5,1.8c0.1,0.5-0.8,1.6-1.3,1.7c-2.3,0.5-4.7,0.7-7,0.8c-0.5,0-1.3-0.9-1.5-1.5
		c-0.3-0.9,0.4-1.6,1.3-1.7C-269.5-159.6-267.3-159.9-264.7-160.3z"/>
	<path d="M-293.7-153.7c0.5,0.5,1.2,0.9,1.3,1.4c0.1,0.5-0.1,1.3-0.4,1.7c-0.3,0.5-1,0.8-1.6,1c-1.7,0.7-3.3,1.5-5.1,2
		c-0.6,0.2-1.6-0.3-2-0.8c-0.3-0.4-0.1-1.6,0.3-1.9C-299-151.9-296.3-152.6-293.7-153.7z"/>
	<path d="M-315.6-139.6c-1.3-0.2-2.1-1.8-1.1-2.7c1.6-1.5,3.6-2.7,5.5-3.9c0.4-0.2,1.4,0.2,1.8,0.7c0.3,0.3,0.3,1.5-0.1,1.7
		c-1.8,1.5-3.8,2.8-5.7,4.2C-315.1-139.5-315.4-139.6-315.6-139.6z"/>
	<path d="M-185-154.2c-1.1-0.3-2.2-0.6-3.4-0.9c-1-0.3-1.6-1-1.4-2c0.2-1.1,1.1-1.5,2.1-1.4c1.3,0.1,2.5,0.4,3.8,0.8
		c1.1,0.3,2.1,0.8,1.9,2.3C-182.2-154.4-183.3-153.9-185-154.2z"/>
</g>
<g>
	<path d="M-397.8,124.3c1-0.7,1.8-1.4,2.7-2c0.6-0.4,1.2-0.8,1.9-1.1c1-0.4,2-0.5,2.6,0.6c0.5,1,0.1,1.8-0.7,2.4
		c-0.9,0.7-1.8,1.3-3,2.2c0.9,0.7,1.7,1.3,2.4,1.9c5.1,4.1,9.1,8.9,10.5,15.4c1.6,7.7-0.6,14.2-6.8,19.1c-5.3,4.1-11.5,6-18,7
		c-4.8,0.7-9.7,1.1-14.5,0.1c-1.4-0.3-2.8-0.8-4.1-1.4c-0.6-0.3-1.3-0.8-1.6-1.5c-0.2-0.6-0.2-1.6,0.1-2c0.3-0.4,1.5-0.7,1.9-0.4
		c5.2,3,10.7,2,16.1,1.4c5.7-0.7,11.2-2.2,16-5.3c6.8-4.4,9.1-11.7,5.9-19.2c-1.6-3.8-4.1-7-7.4-9.4c-12-9-25-11.1-38.8-5
		c-7.4,3.3-12.5,9-14.2,17.1c-1.4,6.5,0,12.3,5.1,16.8c8,7.1,17.2,11.5,27.9,12.4c0.8,0.1,1.7,0,2.4,0.4c0.6,0.3,1.4,1,1.5,1.6
		c0.2,1-0.6,1.7-1.7,1.7c-2.3,0-4.6,0.2-6.9-0.2c-9.5-1.7-17.9-5.8-25.2-12.1c-7.6-6.6-9.3-14.8-6.3-24.2c2.1-6.4,6.1-11.5,11.9-15
		c12-7.3,24.6-7.5,37.5-2.3C-399.6,123.4-398.7,123.9-397.8,124.3z"/>
	<path d="M-321.7,130.9c-1.1-0.8-1.9-1.4-2.7-2c-0.5-0.4-1.2-0.7-1.5-1.2c-0.3-0.7-0.4-1.6-0.2-2.2c0.4-0.8,1.3-0.9,2.1-0.5
		c1.1,0.6,2.2,1.2,3.8,2.2c-0.6-1.7-1-2.8-1.4-3.9c-0.5-1.1-0.5-2.2,0.7-2.9c1-0.6,2.1,0,2.7,1.6c1,2.7,2,5.5,2.9,8.3
		c0.6,2.1-0.1,3-2.1,3.7c-2.5,0.8-5.1,1.5-7.6,2.2c-0.3,0.1-0.5,0.2-0.8,0.3c-1.1,0.3-2,0-2.5-1.1c-0.5-1,0-2.1,1.3-2.6
		C-325.5,132.1-323.8,131.6-321.7,130.9z"/>
	<path d="M-356.1,118.6c-1.4-0.2-3.3-0.4-5.2-0.7c-1-0.2-1.9-0.7-1.9-1.9c0-1.1,0.9-1.7,2.4-1.6c1.8,0.1,3.6,0.4,5.4,0.6
		c2,0.3,2.8,0.9,2.7,2C-352.8,118.2-353.6,118.7-356.1,118.6z"/>
	<path d="M-328.6,123c0.1,1.2-0.8,2.3-1.9,2c-1.9-0.5-3.7-1.3-5.5-2.2c-0.4-0.2-0.7-1.2-0.5-1.6c0.2-0.6,1.1-1.4,1.5-1.2
		c2.1,0.6,4.1,1.5,6,2.3C-328.8,122.4-328.7,122.9-328.6,123z"/>
	<path d="M-379.2,115.7c0.6,0.6,1.5,1,1.6,1.6c0.1,0.6-0.4,1.7-0.9,2c-1.4,0.7-3,1.3-4.6,1.6c-0.6,0.1-1.7-0.2-2-0.7
		c-0.6-0.8-0.3-1.9,0.7-2.3C-382.8,117-381.1,116.4-379.2,115.7z"/>
	<path d="M-372.8,118.7c-1.1,0-2.1,0-2.4-1.3c-0.3-1,0.3-1.9,1.8-2.2c1.4-0.3,2.9-0.4,4.3-0.3c0.6,0,1.5,0.9,1.6,1.4
		c0.1,0.5-0.7,1.5-1.3,1.7C-370,118.5-371.4,118.5-372.8,118.7z"/>
	<path d="M-342.8,121c-1.8-0.6-3.4-1-4.9-1.7c-0.5-0.2-0.8-1.2-0.8-1.8c0-1,0.9-1.4,1.8-1.2c1.5,0.3,3.1,0.6,4.5,1.3
		c0.6,0.3,1.3,1.3,1.2,1.8C-341.2,120-342.1,120.5-342.8,121z"/>
</g>
<g>
	<path d="M-330.1-41.5c-1.1,0.3-1.9,0.6-2.8,0.7c-1,0.2-1.9,0-2.3-1c-0.5-1,0.1-1.7,1-2.3c0.7-0.4,1.4-0.8,2.6-1.5
		c-1.7-0.4-2.8-0.7-3.9-1c-0.6-0.2-1.2-0.4-1.8-0.7c-1-0.5-1.6-1.3-1.1-2.4c0.4-1,1.3-1.1,2.3-0.9c2.9,0.5,5.7,1,8.6,1.4
		c2.8,0.4,3.5,1.6,2.8,4.4c-0.9,3.2-1.6,6.4-2.4,9.6c-0.1,0.5-0.2,1.1-0.4,1.6c-0.4,1.1-1.2,1.6-2.4,1.3c-1-0.2-1.5-1.1-1.4-2.1
		c0.2-1.6,0.5-3.2,0.8-4.9C-330.4-39.8-330.3-40.5-330.1-41.5z"/>
	<path d="M-437.4-38c-0.3,1.2-0.4,2-0.6,2.8c-0.3,1.1-0.9,1.8-2.1,1.7c-1-0.1-1.7-1.1-1.6-2.5c0.1-1.2,0.3-2.3,0.4-3.6
		c-1.5-0.7-2.8-1.3-4.1-1.9c-1-0.5-1.7-1.1-1.4-2.3c0.3-1,1.4-1.4,2.8-1c1.1,0.3,2.2,0.8,3.5,1.3c0.2-1.2,0.4-2.1,0.6-3
		c0.1-0.6,0.3-1.3,0.5-1.8c0.4-1,1.3-1.5,2.2-1c0.6,0.3,1.1,1.3,1.1,1.9c-0.1,1.7-0.5,3.4-0.8,5.3c1.9,0.7,3.7,1.3,5.5,2
		c2,0.7,2.7,1.7,2.3,2.9c-0.4,1.2-1.6,1.5-3.6,0.8C-434.2-36.8-435.6-37.3-437.4-38z"/>
	<path d="M-351-7.3c-0.1,0.3-0.2,1.1-0.6,1.4c-1.7,1.5-3.5,3-5.3,4.3c-0.9,0.7-1.9,0.8-2.7-0.2c-0.7-0.8-0.4-1.8,0.7-2.8
		c1.6-1.3,3.2-2.8,4.8-4C-352.7-9.5-351.3-9-351-7.3z"/>
	<path d="M-392.8-26.7c-0.1-1.1-0.4-2.2-0.2-3.2c0.1-0.7,0.8-1.5,1.4-1.7c1-0.3,1.8,0.3,2,1.4c0.3,1.9,0.6,3.8,0.7,5.7
		c0.1,1.1-0.5,2-1.8,2c-1.2,0-1.7-0.8-1.8-1.9C-392.6-25.2-392.7-26-392.8-26.7C-392.8-26.7-392.8-26.7-392.8-26.7z"/>
	<path d="M-391.1-36.8c0.2,1.8-0.3,2.9-1.3,3.1c-1.2,0.2-1.8-0.6-2.1-1.6c-0.5-1.4-1-2.7-1.5-4.1c-0.4-1.1-0.3-2,0.8-2.6
		c1.1-0.5,2,0.1,2.5,1.1C-392.2-39.4-391.6-37.9-391.1-36.8z"/>
	<path d="M-343.3-31.2c1.2-0.2,2.2,0.6,2,1.8c-0.2,1.9-0.5,3.8-1,5.6c-0.1,0.5-1.1,1.1-1.6,1.1c-0.6,0-1.5-0.8-1.5-1.3
		c-0.2-2.4,0.1-4.7,1.4-6.8C-343.9-31-343.5-31.1-343.3-31.2z"/>
	<path d="M-389.2-18c0.3,0.2,1,0.5,1.4,1c0.8,1.2,1.6,2.5,2.3,3.7c0.5,0.9,0.8,1.9-0.3,2.7c-1.1,0.8-2,0.3-2.6-0.6
		c-0.9-1.3-1.8-2.8-2.4-4.2C-391.4-16.6-390.7-17.7-389.2-18z"/>
	<path d="M-346.6-11.3c-1.2,0.3-2.3-0.7-1.9-1.9c0.6-1.8,1.4-3.6,2.3-5.3c0.2-0.4,1.1-0.7,1.6-0.6c0.5,0.1,1.1,0.7,1.3,1.3
		c0.5,1.3-1.5,5.7-2.7,6.3C-346.3-11.4-346.4-11.4-346.6-11.3z"/>
	<path d="M-339.9-34.6c-1.2,0.1-2.3-1.1-1.7-2.1c1-1.7,2.3-3.2,3.8-4.6c0.9-0.9,2.5,0.2,2.5,1.5C-335.4-38.6-338.8-34.7-339.9-34.6z
		"/>
	<path d="M-406.7-48.9c-0.2-1.1,0.5-1.9,1.7-1.9c1.5,0,4.8,2.6,5.2,4c0.4,1.4-0.6,2.7-1.8,2.1c-1.8-1-3.3-2.4-5-3.7
		C-406.6-48.5-406.6-48.7-406.7-48.9z"/>
	<path d="M-376.6-4.3c0.1,1.3-0.7,2.1-1.9,2c-2.1-0.3-4-1.3-5.3-3c-0.3-0.4-0.3-1.5,0.1-2c0.3-0.4,1.4-0.7,1.9-0.5
		c1.6,0.7,3.1,1.5,4.6,2.4C-377-5.2-376.8-4.6-376.6-4.3z"/>
	<path d="M-425.7-50.3c0.7,0.5,1.7,0.8,2,1.4c0.5,0.9-0.1,1.8-1,2.2c-1.3,0.6-2.6,1.3-4,1.7c-0.6,0.2-1.7-0.1-2.1-0.6
		c-0.8-0.8-0.3-1.8,0.5-2.3C-428.9-48.8-427.4-49.5-425.7-50.3z"/>
	<path d="M-411-51.2c0,1.2-0.5,2-1.6,2c-1.7,0-3.4-0.3-5.1-0.6c-0.5-0.1-1-0.9-1.1-1.4c-0.1-0.5,0.3-1.2,0.8-1.6
		c1.2-0.9,5.4-0.4,6.4,0.7C-411.3-51.7-411.1-51.4-411-51.2z"/>
	<path d="M-367.6,1.2c-0.7-0.1-1.8-0.1-3-0.3c-1-0.2-1.7-1-1.3-2c0.2-0.6,1.1-1.2,1.7-1.3c1.1-0.2,2.3-0.1,3.5,0
		c1.1,0.1,2,0.5,2,1.8c0,1.3-0.9,1.6-2,1.8C-366.7,1-366.9,1.1-367.6,1.2z"/>
</g>
<g>
	<path d="M-293.8-106c0.8,0.7,1.8,1.3,2.5,2.2c1,1.2,0.9,2.3,0,2.9c-1,0.7-1.9,0.3-2.7-0.6c-2.6-3-5.2-5.9-7.7-8.9
		c-1.7-2.1-0.9-3.8,1.7-4.3c3.5-0.8,7-1.6,10.4-2.3c1.6-0.3,2.6,0,3,1.1c0.4,1.1-0.2,2.1-1.7,2.7c-1.8,0.6-3.6,1.1-5.9,1.8
		c2.6,1.3,4.8,2.5,7,3.7c2,1.1,2.5,2,1.9,3c-0.6,1-1.6,1.1-3.4,0.2c-1.5-0.7-2.9-1.4-4.4-2.1C-293.3-106.4-293.6-106.2-293.8-106z"
		/>
	<path d="M-211.3-105.7c-3.6-0.7-6.4-2.1-8.6-4.6c-0.7-0.8-1-1.8-0.2-2.7c0.6-0.8,1.8-0.8,2.9,0.3c1.7,1.6,3.6,2.8,5.8,3.5
		c0.3,0.1,0.6,0.1,0.7,0.3c0.4,0.7,1,1.4,0.9,2C-210-106.4-210.9-106-211.3-105.7z"/>
	<path d="M-198.5-106.6c1,0,2,0,3,0c1,0,1.9,0.3,2,1.4c0.2,1.2-0.7,2-1.8,2c-2.6,0.1-5.1,0-7.7-0.1c-1,0-1.7-0.8-1.6-1.9
		c0.1-1,0.9-1.6,1.9-1.7C-201.2-106.9-199.9-106.7-198.5-106.6C-198.5-106.6-198.5-106.6-198.5-106.6z"/>
	<path d="M-163.6-112.5c0.4,0.3,1.1,0.6,1.3,1c0.2,0.5,0,1.2-0.2,1.8c-0.1,0.3-0.5,0.6-0.8,0.7c-2.3,0.8-4.6,1.6-7,2.2
		c-0.5,0.1-1.6-0.6-1.8-1.1c-0.2-0.5,0.3-1.8,0.8-2C-168.8-110.9-166.3-111.6-163.6-112.5z"/>
	<path d="M-204.6-112c-1.6-0.1-2.5-1.1-2.1-2.1c1-2,1.7-4,1.9-6.2c0.1-0.5,1-1.2,1.5-1.2c0.5,0,1.4,0.6,1.6,1.1
		c0.3,0.8,0.4,1.8,0.2,2.7c-0.3,1.4-0.7,2.8-1.4,4.1C-203.2-112.9-204.2-112.4-204.6-112z"/>
	<path d="M-209.4-129.6c1.2,0.5,2.2,0.8,2.4,2c0.2,1.1-0.6,1.6-1.5,1.9c-1.7,0.6-3.4,1.3-5.1,2c-1,0.4-2,0.6-2.6-0.5
		c-0.7-1.1-0.2-2,0.8-2.5C-213.5-127.8-211.4-128.7-209.4-129.6z"/>
	<path d="M-257.5-99.7c1.5,0.2,3.1,0.4,4.6,0.5c1.1,0.1,2,0.5,2.1,1.7c0,1.2-0.9,1.9-2,1.8c-2.3-0.1-4.5-0.4-6.7-0.8
		c-0.5-0.1-1.1-0.9-1.2-1.5c-0.2-0.9,0.5-1.5,1.4-1.7c0.6-0.1,1.2-0.2,1.9-0.2C-257.5-99.8-257.5-99.7-257.5-99.7z"/>
	<path d="M-154.9-115.3c0.3-0.3,0.7-0.9,1.2-1.3c1.4-1,2.9-1.9,4.3-2.9c0.9-0.6,1.7-0.7,2.4,0.2c0.7,0.8,0.6,1.9-0.2,2.5
		c-1.7,1.3-3.5,2.6-5.5,3.6C-153.9-112.6-155.1-113.7-154.9-115.3z"/>
	<path d="M-238.3-97.3c0.8-0.8,1.3-1.6,2-1.8c1.9-0.7,3.8-1.3,5.8-1.6c0.6-0.1,1.5,0.5,1.9,1.1c0.2,0.4-0.1,1.6-0.6,1.8
		c-2.2,1.3-4.7,2.1-7.3,1.9C-237.1-95.9-237.5-96.6-238.3-97.3z"/>
	<path d="M-221.2-99.1c-0.4-0.4-1.2-0.8-1.4-1.4c-0.4-1,0.3-1.7,1.2-2.1c1.4-0.6,2.8-1.2,4.2-1.9c0.9-0.5,1.7-0.7,2.4,0.1
		c0.8,0.9,0.7,1.9-0.1,2.7C-216.6-100.2-218.6-99.5-221.2-99.1z"/>
	<path d="M-185.6-103.3c-0.6-0.6-1.5-1-1.8-1.7c-0.4-1,0.4-1.7,1.4-2c1.7-0.5,3.5-0.9,5.3-1.1c0.6-0.1,1.6,0.7,1.7,1.2
		c0.1,0.6-0.4,1.7-0.9,1.9C-181.7-104.2-183.5-103.8-185.6-103.3z"/>
	<path d="M-274.4-103c1.4,0.5,3.1,0.9,4.7,1.5c0.9,0.3,1.4,1.1,1,2c-0.3,0.6-1.3,1.4-1.8,1.3c-2-0.3-3.9-0.9-5.8-1.6
		c-0.4-0.2-0.8-1.2-0.8-1.8C-277-102.6-275.9-103.1-274.4-103z"/>
	<path d="M-222.3-121.6c0.3-0.6,0.5-1.4,1.1-2c0.4-0.4,1.2-0.6,1.7-0.4c0.5,0.1,1,0.8,1.1,1.3c0.2,1.2,0.2,2.5,0.2,3.8
		c0,1-0.4,1.8-1.5,2c-1.1,0.1-1.7-0.5-2-1.5C-222-119.4-222.1-120.4-222.3-121.6z"/>
</g>
<g>
	<path d="M-278.7,102.5c4.2-0.8,7.8-1.5,11.4-2c1.6-0.2,3.3-0.3,4.9-0.2c1.9,0.1,2.8,0.9,2.6,2.1c-0.2,1.5-1.4,1.7-2.6,1.8
		c-3.1,0.3-6.2,0.5-9.3,1c-2.5,0.4-4.9,1.1-7.4,1.7c0,0.2,0,0.5,0.1,0.7c1.5,0.1,2.9,0.2,4.4,0.3c1.4,0.1,2.7,0.2,4.1,0.4
		c1.1,0.2,1.9,0.7,1.9,2c0,1-0.9,1.9-2.3,1.9c-1.4,0-2.7-0.2-4.1-0.2c-2.8-0.1-5.7-0.1-8.5-0.1c-0.9,0-1.9,0-2.7-0.2
		c-2-0.4-2.6-2-1.6-3.7c0.3-0.6,0.7-1.1,1.1-1.5c2.5-3,4.9-5.9,7.4-8.9c0.5-0.6,1-1.1,1.6-1.5c0.8-0.6,1.7-0.7,2.5,0.1
		c0.8,0.8,0.5,1.7-0.1,2.5C-276.3,99.7-277.3,100.9-278.7,102.5z"/>
	<path d="M-158.9,102.6c-2.1,0.5-4.2,1.1-6.3,1.6c-0.9,0.2-1.8,0.5-2.7,0.3c-0.6-0.1-1.4-0.9-1.6-1.5c-0.1-0.5,0.5-1.3,0.9-1.8
		c0.3-0.3,1-0.4,1.5-0.5c4.1-1,8.2-2,12.3-2.8c3.1-0.7,4.4,0.5,3.9,3.6c-0.5,3.5-1.2,7-1.9,10.5c0,0.1,0,0.2-0.1,0.3
		c-0.5,1.8-1.3,2.6-2.5,2.3c-1.1-0.3-1.6-1.4-1.2-3.2c0.3-1.7,0.7-3.3,1.1-5.6c-1,0.7-1.5,0.9-2,1.3c-1.9,1.6-3.8,3.1-5.7,4.7
		c-0.6,0.5-1.2,0.9-1.8,1.3c-1.6,0.9-2.7,0.8-3.4-0.3c-0.6-1-0.3-1.9,1.2-3c2.1-1.6,4.2-3.2,6.3-4.8c0.7-0.6,1.4-1.2,2-1.8
		C-158.7,103-158.8,102.8-158.9,102.6z"/>
	<path d="M-221.1,118.5c-1.7-0.8-3.5-1.6-5.3-2.6c-0.5-0.3-1-1.3-0.8-1.8c0.3-0.6,1.1-1.1,1.8-1.3c0.5-0.2,1.2,0.2,1.8,0.4
		c1.4,0.6,2.8,1.3,4.2,2c1,0.5,2,1.2,1.5,2.5C-218.2,118.7-219.3,119-221.1,118.5z"/>
	<path d="M-204.7,119.7c1.4,0.3,2.4,0.4,3.1,0.8c0.5,0.3,1,1,1.1,1.6c0.1,0.9-0.6,1.7-1.5,1.6c-2.3-0.3-4.6-0.8-6.9-1.5
		c-0.4-0.1-0.8-1.2-0.7-1.6c0.2-0.6,0.9-1.3,1.4-1.3C-206.7,119.3-205.5,119.6-204.7,119.7z"/>
	<path d="M-191.8,123.5c-0.5-0.7-1.2-1.2-1.4-1.9c-0.2-1.1,0.6-1.7,1.6-1.8c1.7-0.2,3.4-0.4,5.1-0.5c1-0.1,1.8,0.4,2,1.4
		c0.2,1.1-0.5,1.8-1.5,2C-187.8,123.1-189.7,123.2-191.8,123.5z"/>
	<path d="M-235.3,111.7c-1.2-0.5-2.6-0.9-3.7-1.6c-0.6-0.3-1.1-1.3-1-1.9c0-1.1,1.1-1.5,2-1.3c1.6,0.4,3.1,1,4.6,1.7
		c1,0.4,1.6,1.3,1,2.4c-0.5,1-1.4,1-2.3,0.8C-234.9,111.8-235.1,111.8-235.3,111.7z"/>
	<path d="M-179.3,119.6c-1.2-0.4-1.7-2-0.6-2.8c1.6-1.1,3.5-2,5.3-2.7c1.3-0.4,2.2,1,1.7,2.3C-173.4,117.5-178.1,119.9-179.3,119.6z
		"/>
	<path d="M-250.4,106.4c-0.7-0.2-1.3-0.1-1.7-0.4c-0.5-0.4-1.2-1-1.2-1.5c0-0.6,0.6-1.3,1.2-1.6c1.1-0.6,4.3,0,5.1,1
		c0.4,0.4,0.7,1.3,0.5,1.7c-0.3,0.6-1,1.1-1.6,1.2C-248.9,106.8-249.7,106.5-250.4,106.4z"/>
</g>
<g>
	<path d="M-509.5-77.1c1,1.5,1.8,2.7,2.5,3.9c0.8,1.4,0.7,2.4-0.3,2.9c-1.2,0.7-2.1,0-2.8-1c-0.8-1.2-1.7-2.4-2.8-3.9
		c-4.1,2.8-7.7,6.1-11.1,9.6c0.1,0.2,0.1,0.4,0.2,0.6c1.1-0.2,2.2-0.3,3.3-0.5c2.1-0.3,3.2,0.1,3.5,1.3c0.3,1.3-0.6,2.2-2.8,2.8
		c-3.5,0.9-7.1,1.8-10.6,2.7c-2.6,0.7-4-0.4-3.6-3.1c0.3-2.3,1.1-4.4,1.7-6.7c0.4-1.4,0.7-2.8,1.1-4.2c0.5-1.6,1.4-2.3,2.5-1.9
		c1.3,0.5,1.3,1.6,1,2.7c-0.4,1.4-0.6,2.8-1,4.8c0.9-0.6,1.4-0.9,1.8-1.3c2.2-2.1,4.4-4.2,6.6-6.2c7.8-7,17.1-10.5,27.4-11.5
		c9.4-0.9,18.7-0.1,27.5,3.9c3,1.4,5.8,3.2,8.5,5.1c1.1,0.7,1.8,2,2.4,3.2c0.2,0.4-0.1,1.7-0.5,1.9c-0.6,0.3-1.8,0.3-2.2-0.1
		c-7.7-7.9-17.6-9.6-27.9-10.1c-7.4-0.4-14.6,0.9-21.5,3.8C-507.4-78.1-508.3-77.6-509.5-77.1z"/>
	<path d="M-507.8-49.4c-0.9-2,0.1-3.9,0.7-5.8c0.3-0.8,1.1-1.4,2-1c0.5,0.3,1.2,1,1.2,1.6c0,2.1-0.2,4.2-2.4,5.6
		c0.9,3.5-1.7,5.6-3.6,7.9c-0.3,0.3-1.4,0.3-2,0.1c-0.8-0.4-1.1-1.3-0.6-2.1C-511.1-45.2-510.1-47.7-507.8-49.4z"/>
	<path d="M-553.6-30.5c-3.2-0.9-6.4-2.2-8.9-4.8c-0.8-0.8-1-1.8-0.1-2.7c0.8-0.8,1.7-0.6,2.4,0c2.2,1.9,4.8,3,7.5,3.8
		c1,0.3,1.9,1,1.6,2.2C-551.4-30.8-552.3-30.5-553.6-30.5z"/>
	<path d="M-529.7-84.5c-2.5-0.5-4.4-0.9-6.4-1.4c-1.1-0.3-1.8-0.9-1.6-2.2c0.2-1.1,1.2-1.4,2.1-1.3c2.2,0.4,4.3,0.8,6.4,1.4
		c0.9,0.3,1.6,1.2,1.1,2.2C-528.4-85.1-529.3-84.8-529.7-84.5z"/>
	<path d="M-540.7-32c1.1,0,2.2-0.2,3.3,0.1c0.7,0.2,1.6,0.9,1.6,1.4c0.1,0.6-0.6,1.6-1.2,1.8c-2.4,0.8-4.8,0.6-7.2-0.2
		c-0.9-0.3-1.4-1.1-1-2c0.2-0.5,1-1.1,1.6-1.2c1-0.2,2-0.1,3-0.1C-540.7-32.1-540.7-32-540.7-32z"/>
	<path d="M-555.7-84.1c-0.4-0.4-1.4-0.8-1.5-1.3c-0.1-0.6,0.4-1.8,0.9-2c2.2-0.6,4.4-1,6.6-1.3c0.4-0.1,1.3,0.8,1.4,1.3
		c0.1,0.5-0.4,1.6-0.9,1.7C-551.2-85-553.3-84.7-555.7-84.1z"/>
	<path d="M-574.8-63.8c0.6-1.8,1.1-3.7,1.8-5.5c0.4-0.9,1.2-1.5,2.2-1.1c1,0.4,1.3,1.3,1,2.3c-0.4,1.7-0.9,3.4-1.4,5
		c-0.3,0.9-0.9,1.7-2,1.6C-574.3-61.7-574.6-62.6-574.8-63.8z"/>
	<path d="M-522.1-85.5c1.8-0.1,6.3,2.6,6.8,3.8c0.2,0.5,0.1,1.3-0.2,1.7c-0.3,0.4-1.3,0.7-1.6,0.5c-2-1-3.9-2.2-5.8-3.5
		c-0.3-0.2-0.4-1.2-0.2-1.7C-523-85.1-522.3-85.4-522.1-85.5z"/>
	<path d="M-503.3-61.6c0,0.9,0.1,1.3-0.1,1.6c-0.4,0.6-0.8,1.3-1.4,1.5c-0.9,0.3-1.7-0.3-1.9-1.1c-0.4-1.9-0.6-3.8-0.8-5.7
		c-0.1-0.9,0.4-1.8,1.3-1.7c0.7,0,1.7,0.6,1.9,1.2C-503.7-64.4-503.6-62.7-503.3-61.6z"/>
	<path d="M-518.8-34.4c-1.2-0.1-2.2-1.5-1.4-2.3c1.6-1.5,3.5-2.9,5.4-4c0.8-0.5,1.9,0.9,1.7,1.9C-513.3-37.4-517.5-34.3-518.8-34.4z
		"/>
	<path d="M-570.5-47.9c0.3,0.2,0.8,0.4,1.1,0.8c1,1.1,1.9,2.2,2.8,3.4c0.6,0.8,1,1.6,0.3,2.5c-0.8,1-1.9,0.9-2.7,0.2
		c-1.2-1.3-2.4-2.7-3.3-4.3C-573-46.7-572-48-570.5-47.9z"/>
	<path d="M-566.9-73.5c-1,0-1.6-0.8-1.6-1.8c0.1-1.4,3.2-4.5,4.6-4.6c1.3-0.1,2.5,1.2,1.7,2.2c-1.2,1.5-2.8,2.8-4.2,4.1
		C-566.5-73.5-566.7-73.5-566.9-73.5z"/>
	<path d="M-530.2-29.3c-0.7-0.6-1.6-1-1.7-1.6c-0.1-0.6,0.4-1.7,0.9-2c1.4-0.7,2.9-1.3,4.4-1.6c0.6-0.1,1.7,0.4,1.9,0.9
		c0.2,0.5-0.1,1.8-0.6,2.1C-526.7-30.6-528.4-30.1-530.2-29.3z"/>
	<path d="M-571.7-52.6c-0.3,0.4-0.7,1.2-1.3,1.5c-1,0.5-1.8-0.2-2.1-1.1c-0.4-1.3-0.7-2.6-0.8-4c-0.1-1,0.6-1.9,1.7-1.7
		c0.6,0.1,1.4,0.8,1.7,1.4C-572.1-55.3-572-54.1-571.7-52.6z"/>
</g>
<g>
	<path d="M-242.3,215.8c1.2,0.1,2.3,0.2,3.5,0.3c0.8,0.1,1.7,0,2.4,0.3c0.6,0.3,1.3,1.1,1.4,1.7c0.2,1-0.5,1.8-1.5,1.9
		c-0.8,0.1-1.6,0.1-2.5,0.1c-3.6-0.2-7.1-0.5-10.7-0.8c-3.6-0.2-4.5-1.9-2.8-5.1c0.4-0.7,0.8-1.4,1.3-2.1c1.6-2.5,3.2-4.9,4.8-7.4
		c0.3-0.5,0.6-0.9,1-1.3c0.8-0.8,1.7-1.2,2.7-0.4c0.8,0.7,0.8,1.5,0.2,2.5c-1.3,2.1-2.6,4.2-4.2,6.9c1.4-0.4,2.2-0.6,3-0.8
		c0.9-0.2,1.8-0.7,2.6-0.6c0.7,0.1,1.7,0.6,1.8,1.2c0.2,0.5-0.4,1.5-0.9,2c-0.5,0.5-1.4,0.7-2.2,1
		C-242.3,215.4-242.3,215.6-242.3,215.8z"/>
	<path d="M-158.8,217c-1.8-0.8-3-1.3-4.3-1.8c-1.1-0.4-2.1-0.9-1.8-2.3c0.2-1.1,1.3-1.4,3-1c1.1,0.3,2.1,0.8,3.1,1.1
		c0.4,0.1,0.8,0.2,1.9,0.3c-1-1.3-1.7-2.2-2.4-3.2c-0.5-0.7-1.1-1.3-1.3-2.1c-0.1-0.7,0.2-1.8,0.7-2.1c0.5-0.3,1.8-0.1,2.1,0.3
		c2.3,2.7,4.5,5.5,6.5,8.5c1.3,1.8,0.7,3.3-1.3,4.2c-3.4,1.5-6.9,3-10.3,4.5c-1.5,0.6-2.6,0.4-3.1-0.6c-0.5-1-0.1-2.1,1.3-2.9
		C-162.9,218.9-161,218.1-158.8,217z"/>
	<path d="M-180.4,207c1.1,0.2,2.2,0.3,3.2,0.6c0.9,0.3,1.8,0.9,1.4,2c-0.2,0.6-1.1,1.4-1.7,1.4c-2.5-0.2-5.1-0.5-7.5-1
		c-0.5-0.1-1.1-1.2-1-1.6c0.2-0.6,0.9-1.5,1.5-1.5C-183.1,206.7-181.7,207-180.4,207C-180.4,207.1-180.4,207.1-180.4,207z"/>
	<path d="M-213.6,208.4c-0.3,0.2-0.8,0.9-1.4,1c-2.1,0.4-4.3,0.7-6.5,0.9c-0.5,0-1.3-0.5-1.4-1c-0.2-0.6,0.1-1.4,0.4-2
		c0.2-0.4,0.9-0.6,1.4-0.7c1.8-0.3,3.6-0.6,5.4-0.7C-214.1,206-213.4,206.9-213.6,208.4z"/>
	<path d="M-208,209.2c-0.4-0.4-1.1-0.9-1.3-1.6c-0.3-0.9,0.4-1.7,1.2-1.8c2-0.2,4-0.3,6-0.2c0.9,0,1.7,0.7,1.4,1.7
		c-0.2,0.6-0.9,1.5-1.5,1.6C-203.9,209.1-205.8,209.1-208,209.2z"/>
	<path d="M-227.3,207.5c0.5,0.6,1.4,1.1,1.4,1.7c0,0.6-0.6,1.6-1.2,1.8c-1.3,0.5-2.8,0.7-4.3,1c-1,0.2-1.9,0-2.2-1.1
		c-0.3-1,0.2-1.9,1.1-2.2C-230.8,208.2-229.2,208-227.3,207.5z"/>
	<path d="M-193.3,209.4c-1-0.2-1.6-0.1-1.9-0.4c-0.5-0.5-1.2-1.2-1.3-1.8c-0.2-0.9,0.7-1.5,1.6-1.5c1.5,0,3.1,0.1,4.6,0.4
		c0.5,0.1,1.2,1,1.2,1.6c0,0.6-0.7,1.4-1.2,1.6C-191.4,209.5-192.6,209.4-193.3,209.4z"/>
	<path d="M-172.1,212.8c-0.3-0.1-1.1-0.3-1.8-0.7c-0.9-0.4-1.5-1.2-1.2-2.2c0.3-1,1.2-1.4,2.2-1.1c1.1,0.3,2.3,0.6,3.4,1
		c1,0.3,1.5,1.1,1.1,2.1c-0.3,0.9-1,1.2-1.9,1.1C-170.7,213.1-171.1,213-172.1,212.8z"/>
</g>
<g>
	<path d="M-370.7-119.8c-0.2-1-0.3-1.8-0.4-2.5c-0.1-1-0.1-1.9,1.1-2.2c1.3-0.3,1.8,0.6,2.1,1.6c0.2,0.8,0.5,1.6,0.8,2.7
		c10.4-1.2,20.2,1.2,29.7,5.7c-0.4-0.6-0.7-1.2-1.1-1.8c-0.4-0.7-0.5-1.4,0.1-2c0.7-0.7,1.5-0.5,2.3,0c0.3,0.2,0.5,0.5,0.7,0.7
		c1.8,2.2,3.7,4.5,5.5,6.7c0.4,0.4,0.7,0.9,1,1.4c0.9,1.7,0.5,2.8-1.4,3.4c-1,0.3-2.1,0.5-3.1,0.8c-2,0.7-4.1,1.4-6.1,2.1
		c-0.5,0.2-1.1,0.5-1.6,0.6c-1,0.3-1.9,0.1-2.3-0.9c-0.4-1-0.1-1.8,0.8-2.3c0.6-0.3,1.2-0.6,1.8-0.8c1.7-0.6,3.4-1.3,5.3-2
		c-0.3-0.3-0.5-0.6-0.7-0.8c-8.9-5.1-18.3-8.4-28.7-7.4c-7.1,0.6-13.9,2.2-20.2,5.6c-0.9,0.5-1.8,0.7-2.4-0.3
		c-0.6-0.9-0.2-1.8,0.6-2.4c0.6-0.5,1.4-1,2.1-1.3c4-1.4,8-2.7,12-4.1C-372.2-119.4-371.5-119.5-370.7-119.8z"/>
	<path d="M-382-87.9c1.2-1,2.2-2,3.3-2.8c0.8-0.6,1.7-0.8,2.4,0c0.6,0.7,0.5,1.8-0.5,2.6c-1,0.8-1.9,1.8-3.4,1.8
		c-0.4,0-0.8,0.4-1.2,0.6c-1.2,0.9-2.4,1.8-3.6,2.6c-0.7,0.5-1.4,0.3-2-0.3c-0.7-0.8-0.4-1.5,0.2-2.2
		C-385.7-86.9-383.7-87.8-382-87.9z"/>
	<path d="M-408.1-79.7c-2-0.5-4-1-6-1.5c-0.4-0.1-0.8-0.3-1.1-0.5c-0.8-0.5-1.2-1.2-0.8-2.1c0.4-0.9,1.2-1.1,2.1-0.9
		c2.1,0.5,4.2,0.9,6.3,1.4c1.5,0.3,2.3,0.9,2.1,1.9C-405.7-80.3-406.6-79.8-408.1-79.7z"/>
	<path d="M-434.1-124.9c1.2-2.2,2.2-4.2,3.3-6c0.2-0.4,1.4-0.7,1.7-0.4c0.5,0.3,1,1.3,0.8,1.8c-0.7,2-1.6,4-2.6,5.9
		c-0.2,0.5-1.4,0.9-1.8,0.7C-433.3-123.3-433.6-124.2-434.1-124.9z"/>
	<path d="M-420-141.5c0.2,0.2,0.9,0.4,1,0.8c0.2,0.5,0.1,1.5-0.3,1.8c-1.5,1.4-3.1,2.7-4.8,3.9c-0.3,0.2-1.3,0.2-1.5-0.1
		c-0.4-0.4-0.6-1.2-0.5-1.7C-426-138.2-421.6-141.5-420-141.5z"/>
	<path d="M-398-79.7c-1.3-0.1-2.3,0.1-3.1-0.2c-0.6-0.2-1.1-0.9-1.3-1.5c-0.2-0.8,0.5-1.4,1.3-1.5c2-0.2,4-0.3,5.9-0.3
		c0.5,0,1.4,0.8,1.4,1.3c0.1,0.5-0.6,1.5-1.1,1.6C-395.9-79.8-397.2-79.8-398-79.7z"/>
	<path d="M-437.8-111c0.2-0.8,0.5-2.3,0.9-3.7c0.2-0.9,0.8-1.5,1.8-1.3c1.1,0.2,1.4,1.1,1.3,2.1c-0.2,1.4-0.4,2.8-0.7,4.1
		c-0.3,1.5-1,2.2-2,2.1C-437.4-108-437.9-108.8-437.8-111z"/>
	<path d="M-408.7-146.8c1,0.2,1.9,0.4,2.2,1.4c0.2,0.9-0.4,1.6-1.7,2c-1.2,0.4-2.4,0.7-3.5,1.1c-1,0.3-1.9,0.2-2.3-0.8
		c-0.5-1,0.1-1.8,1-2.2C-411.7-145.9-410.2-146.3-408.7-146.8z"/>
	<path d="M-436.9-101.6c0.4-0.5,0.9-1.3,1.5-1.5c0.9-0.4,1.6,0.3,1.9,1.2c0.4,1.3,0.8,2.7,1.1,4.1c0.2,0.9,0,1.7-0.9,2
		c-1.1,0.4-1.8-0.2-2.1-1.1C-436-98.4-436.3-99.9-436.9-101.6z"/>
	<path d="M-394.7-147.4c0.8,0.3,2.2,0.6,3.5,1.1c0.9,0.4,1.5,1.2,1.1,2.2c-0.4,1-1.3,1.1-2.3,0.8c-1.1-0.3-2.2-0.6-3.3-0.8
		c-1-0.2-1.7-0.7-1.7-1.8C-397.4-146.9-396.5-147.5-394.7-147.4z"/>
	<path d="M-375-135.4c0.2,0.1,0.7,0.2,0.9,0.5c0.9,1.3,1.8,2.6,2.4,4c0.2,0.5-0.2,1.4-0.7,1.9c-0.6,0.6-1.5,0.3-1.9-0.4
		c-0.9-1.3-1.7-2.6-2.4-4C-377.2-134.4-376.2-135.4-375-135.4z"/>
	<path d="M-366.9-108.2c0,0.4,0,1.2-0.2,1.7c-0.3,0.5-0.9,1.1-1.4,1.1c-0.5,0-1.3-0.6-1.4-1c-0.3-1.5-0.4-3.1-0.2-4.7
		c0-0.5,1-1.1,1.6-1.2c0.4,0,1.2,0.6,1.4,1.1C-367-110.2-367-109.3-366.9-108.2z"/>
	<path d="M-428.5-92.4c0.2,0.1,0.6,0.2,0.9,0.5c0.9,0.8,1.8,1.7,2.7,2.5c0.7,0.7,0.8,1.5,0.3,2.2c-0.6,0.8-1.5,0.8-2.2,0.2
		c-1.1-0.9-2.3-1.9-3.2-3.1C-430.8-91.1-430-92.5-428.5-92.4z"/>
	<path d="M-369.4-99.1c-0.9,1.5-1.7,2.9-2.7,4.2c-0.2,0.3-1.1,0.4-1.5,0.1c-0.4-0.2-0.9-1-0.8-1.4c0.6-1.5,1.4-3,2.2-4.3
		c0.2-0.3,1.1-0.3,1.6-0.1C-370.1-100.4-369.9-99.7-369.4-99.1z"/>
	<path d="M-383.1-139.7c-1.4-0.7-2.7-1.3-3.9-2.1c-0.3-0.2-0.5-1.2-0.3-1.5c0.3-0.5,1.1-1.1,1.4-1c1.4,0.5,2.8,1.3,4,2.1
		c0.3,0.2,0.3,1.1,0.1,1.5C-381.9-140.3-382.6-140.1-383.1-139.7z"/>
</g>
<g>
	<path d="M-329,220.8c0,1.5-1.1,2.4-2.3,2c-0.5-0.2-1-0.5-1.3-0.9c-1.2-1.7-2.3-3.5-3.3-5.3c-0.7-1.5-0.2-2.6,0.9-3
		c1.4-0.4,1.9,0.5,2.4,1.5c0.8,1.5,1.7,2.8,2.6,4.2C-329.6,219.8-329.2,220.4-329,220.8z"/>
	<path d="M-307.5,181.3c2.4,1.3,4.7,2.4,6.8,3.7c0.9,0.5,1,1.6,0.4,2.4c-0.5,0.8-1.3,0.9-2.2,0.5c-2.1-0.9-4.1-1.9-6.2-2.8
		c-0.9-0.4-1.6-1.3-1-2.2C-309.3,182.2-308.4,181.9-307.5,181.3z"/>
	<path d="M-337.5,205c0.3-1.5,0.5-3.1,0.9-4.5c0.3-1,1-1.8,2.3-1.5c1.2,0.4,1.3,1.3,1.2,2.4c-0.2,1.4-0.3,2.9-0.5,4.3
		c-0.1,0.5-0.1,1.1-0.2,1.6c-0.3,0.9-0.9,1.7-2,1.5c-1-0.2-1.5-0.9-1.5-2c0-0.6,0-1.3,0-1.9C-337.4,205-337.5,205-337.5,205z"/>
	<path d="M-310.6,231.3c-0.6-0.5-1.5-1-1.8-1.7c-0.4-1.2,0.5-1.9,1.5-2.1c1.8-0.5,3.7-0.9,5.6-1.3c1-0.2,1.9,0,2.3,1
		c0.4,1.2-0.2,2-1.3,2.4C-306.2,230.2-308.3,230.7-310.6,231.3z"/>
	<path d="M-319.8,230.2c-1.9-0.9-3.8-1.8-5.6-2.9c-0.8-0.5-1.3-1.4-0.7-2.4c0.6-1.1,1.6-1,2.6-0.6c1.6,0.7,3.2,1.3,4.8,2
		c1,0.4,1.8,1.1,1.5,2.3C-317.5,229.8-318.6,230-319.8,230.2z"/>
	<path d="M-335.1,195.9c1.1-2.1,2.1-3.9,3.2-5.7c0.5-0.8,1.5-1.1,2.4-0.5c0.9,0.6,0.9,1.5,0.5,2.4c-0.8,1.6-1.5,3.1-2.3,4.7
		c-0.4,0.9-1.2,1.6-2.2,1.1C-334.1,197.6-334.5,196.7-335.1,195.9z"/>
	<path d="M-293.8,196c-0.2-0.1-0.7-0.2-1-0.5c-1.2-1.1-2.5-2.1-3.6-3.3c-0.5-0.5-0.8-1.5-0.6-2.1c0.3-1,1.3-1.2,2.3-0.8
		c2,0.8,3.6,2.1,4.6,4C-291.4,194.7-292.2,196.1-293.8,196z"/>
	<path d="M-294.1,220.5c1.2,0,2.1,1.2,1.5,2.3c-1,2.1-2.8,3.5-5,4.3c-0.4,0.2-1.3-0.2-1.6-0.7c-0.3-0.4-0.4-1.4-0.1-1.7
		c1.5-1.5,3.1-2.8,4.6-4.1C-294.5,220.5-294.3,220.6-294.1,220.5z"/>
	<path d="M-324.3,186.1c-0.5-0.3-1.2-0.4-1.3-0.8c-0.2-0.6-0.4-1.6,0-2c1.2-1.7,2.9-2.7,4.9-3.2c1.1-0.2,2,0.3,2.3,1.4
		c0.3,1.1-0.4,1.6-1.3,2.1c-1.1,0.5-2,1.1-3.1,1.7C-323.2,185.6-323.7,185.9-324.3,186.1z"/>
	<path d="M-287.8,202.1c-0.6,0.6-1.1,1.5-1.8,1.7c-0.5,0.1-1.5-0.5-1.9-1.1c-0.6-1-0.8-2.2-1.1-3.3c-0.2-1,0-2,1.1-2.1
		c0.6-0.1,1.7,0.3,2,0.8C-288.7,199.2-288.4,200.6-287.8,202.1z"/>
	<path d="M-287,210.5c-0.7,1.5-1.1,2.8-1.8,3.9c-0.3,0.4-1.4,0.7-1.9,0.5c-0.5-0.2-1.1-1.1-1-1.6c0.1-1.1,0.5-2.3,1-3.4
		c0.3-0.6,1.3-1.3,1.8-1.2C-288.2,209-287.7,209.9-287,210.5z"/>
</g>
<g>
	<path d="M-403,255.1c0.2-0.9,0.2-1.9,0.6-2.6c0.3-0.5,1.2-1.1,1.7-1c0.5,0.1,1.3,0.8,1.4,1.4c0.5,2.9,0.8,5.8,1,8.7
		c0.1,1.1-0.4,2-1.6,2.2c-1.1,0.1-1.8-0.6-1.9-1.5C-402.3,259.9-402.7,257.5-403,255.1z"/>
	<path d="M-401.6,245.2c1.1-3,2.1-5.6,4.1-7.8c0.7-0.7,1.7-0.9,2.5-0.3c0.9,0.7,0.8,1.6,0.3,2.5c-1.1,2.1-2.2,4.2-3.2,6.3
		c-0.5,0.9-1.2,1.7-2.1,1.2C-400.7,246.7-401.1,245.8-401.6,245.2z"/>
	<path d="M-382,229.9c-0.3,0.3-0.7,0.9-1.3,1.2c-1.9,0.9-3.8,1.8-5.7,2.6c-0.3,0.1-0.7,0.4-1,0.3c-0.7-0.1-1.6-0.2-1.9-0.7
		c-0.3-0.5-0.2-1.6,0.1-2c2.2-2.1,4.8-3.4,7.8-3.7C-382.8,227.6-381.9,228.6-382,229.9z"/>
	<path d="M-357.7,234.3c0,1.5-1.3,2.4-2.5,1.8c-2.1-1.1-4.2-2.2-6.1-3.5c-0.5-0.3-1-1.5-0.8-2c0.2-0.6,1.3-1.3,1.8-1.2
		c2.7,0.6,5.1,1.8,7.1,3.8C-357.9,233.5-357.8,234-357.7,234.3z"/>
	<path d="M-375.5,281.5c-1.3-0.1-2-0.1-2.7-0.3c-0.9-0.2-1.5-0.9-1.3-1.8c0.2-0.6,0.8-1.4,1.3-1.5c2.4-0.4,4.9-0.6,7.3-0.8
		c0.5,0,1.5,0.7,1.6,1.1c0,0.7-0.4,1.8-0.9,2C-372.1,280.8-374,281.1-375.5,281.5z"/>
	<path d="M-394.1,270.5c0.3,0.2,0.8,0.7,1.4,1.1c1.1,0.9,2.2,1.9,3.3,2.7c1,0.6,1.5,1.3,1.1,2.5c-0.4,1-1.4,1.1-2.3,0.9
		c-1.8-0.3-5-3.2-5.5-5C-396.4,271.5-395.6,270.5-394.1,270.5z"/>
	<path d="M-350.5,242.2c0,1.3-1.7,2.3-2.5,1.4c-1.6-1.8-3-3.8-4.2-5.9c-0.6-1.1,0.9-2.2,2.2-1.8
		C-353.9,236.2-350.5,241.1-350.5,242.2z"/>
	<path d="M-354.2,274.9c-0.2,0.3-0.5,1-1,1.3c-1.5,0.8-3.1,1.6-4.8,2c-0.6,0.2-1.6-0.4-2-0.9c-0.6-0.8-0.1-1.7,0.6-2.1
		c1.6-0.8,3.3-1.6,5-2.2C-355.2,272.7-354.2,273.6-354.2,274.9z"/>
	<path d="M-345.4,262c-1,1.8-1.9,3.5-3,5c-0.2,0.4-1.3,0.6-1.7,0.3c-0.5-0.3-1.2-1.3-1.1-1.6c0.8-1.9,1.7-3.8,2.8-5.5
		c0.2-0.3,1.3-0.4,1.7-0.2C-346.2,260.4-345.9,261.3-345.4,262z"/>
	<path d="M-351.2,248.4c0.4-0.5,0.8-1.5,1.4-1.8c1.1-0.5,2,0.4,2.2,1.5c0.4,1.5,0.6,3.1,0.7,4.6c0,0.5-0.6,1.3-1.2,1.6
		c-0.9,0.4-1.7-0.2-2-1C-350.5,251.8-350.7,250.2-351.2,248.4z"/>
	<path d="M-372.9,225.9c0.5,0.2,1.6,0.5,2.5,1.1c0.5,0.3,0.9,1.4,0.6,1.8c-0.3,0.6-1.2,1.1-1.9,1.2c-0.9,0.1-1.8-0.3-2.7-0.4
		c-1-0.2-1.8-0.6-1.8-1.7c0-1.2,0.8-1.8,1.9-1.9C-374,225.9-373.8,225.9-372.9,225.9z"/>
</g>
<g>
	<path d="M-171.1,169.3c2.9-1.5,5.6,0.2,8.8,0.2c-1.3-1.2-2.2-2.1-3.2-3c-0.5-0.5-1.2-0.9-1.6-1.4c-0.7-0.8-0.8-1.7-0.1-2.5
		c0.7-0.8,1.6-0.8,2.4-0.1c3.2,2.7,6.4,5.4,9.5,8.3c1.4,1.3,1.1,3-0.7,4.1c-1.9,1.2-3.8,2.2-5.7,3.3c-1.7,1-3.4,2.1-5.2,3.1
		c-0.6,0.4-1.3,0.8-1.9,1c-1,0.4-1.8,0.1-2.4-0.8c-0.5-0.9-0.3-1.8,0.5-2.4c1-0.8,2.1-1.5,3.2-2.2c1.4-0.9,2.9-1.8,4.6-2.9
		c-3.1-1.4-6.5-0.6-8.7-3.1c-2.3,1.4-4.6,0.2-6.9-0.2c-0.5-0.1-1.3-1.2-1.2-1.8c0.1-0.6,1-1.5,1.6-1.5
		C-175.7,167.3-173.2,167.1-171.1,169.3z"/>
	<path d="M-218.8,173.8c-1.8-0.5-2.3-2.1-1.3-3c1.7-1.5,3.8-2.1,6-2c1.2,0.1,2,1.8,1.1,2.4C-214.9,172.4-217.2,173.1-218.8,173.8z"
		/>
	<path d="M-184.3,166.3c0.4,0.6,1.1,1.3,1.2,2c0.1,1.1-0.8,1.6-1.8,1.6c-1.5,0-3.1-0.1-4.6-0.4c-0.6-0.1-1.4-1-1.5-1.6
		c-0.2-1,0.7-1.7,1.7-1.7C-187.7,166.1-186.2,166.2-184.3,166.3z"/>
	<path d="M-208.1,170.9c-0.4-0.7-1-1.3-1-1.8c0-0.6,0.6-1.5,1.1-1.6c1.3-0.3,2.7-0.5,4-0.4c0.5,0,1.3,0.9,1.3,1.4
		c0.1,0.6-0.5,1.6-0.9,1.7C-205,170.5-206.5,170.6-208.1,170.9z"/>
	<path d="M-198,169.8c-0.4-0.6-1.1-1.1-1.1-1.7c0-0.6,0.6-1.6,1-1.7c1.5-0.2,3-0.2,4.5-0.1c0.4,0,1,1,1,1.4
		c-0.1,0.6-0.6,1.5-1.1,1.6C-195,169.7-196.4,169.7-198,169.8z"/>
</g>
<g>
	<path class="st0" d="M62.7,14.9c3.4,0.6,6.4-1.9,10.2-2.8c-1.4,1.5-2.4,2.7-3.5,3.8c-0.6,0.6-1.3,1.2-1.8,1.9
		c-0.7,0.9-0.8,1.8,0.1,2.4c0.9,0.6,1.9,0.3,2.8-0.6c3.5-3.5,7-7,10.4-10.7c1.6-1.7,1.1-3.1-1.1-3.7c-2.2-0.6-4.6-0.9-6.8-1.4
		c-2.1-0.5-4.1-1-6.2-1.5C66,2.2,65.2,2,64.4,2c-1.1-0.1-2.1,0.4-2.7,1.5c-0.6,1-0.2,1.8,0.8,2.2c1.2,0.4,2.5,0.8,3.8,1.1
		c1.7,0.5,3.5,0.9,5.5,1.4c-3.5,2.2-7.4,2.5-9.8,5.6c-2.8-0.6-5.4,1.2-8,2.2c-0.6,0.2-1.4,1.5-1.3,2.1c0.1,0.5,1.3,1.1,1.9,1
		C57.5,18.1,60.5,17.6,62.7,14.9z"/>
	<path class="st0" d="M7.3,24.6c-2.1,1-2.5,2.7-1.2,3.3c2,1,4.6,0.9,7.1,0.1c1.4-0.4,2.2-2.3,1.1-2.6C11.9,24.9,9.2,24.8,7.3,24.6z"
		/>
	<path class="st0" d="M47.7,21.7c0.4-0.7,1.2-1.6,1.2-2.3c0-1-1.1-1.3-2.2-0.9c-1.8,0.5-3.6,1-5.2,1.8c-0.7,0.3-1.5,1.3-1.6,2
		c-0.1,1,0.9,1.4,2.1,1.1C43.8,22.9,45.5,22.3,47.7,21.7z"/>
	<path class="st0" d="M19.9,24.3c-0.4,0.8-1.1,1.5-1,2c0.1,0.5,0.8,1.3,1.4,1.2c1.5-0.1,3.1-0.3,4.7-0.8c0.6-0.2,1.4-1.2,1.4-1.7
		c0-0.5-0.7-1.3-1.2-1.3C23.5,23.7,21.8,24.1,19.9,24.3z"/>
	<path class="st0" d="M31.6,22.4c-0.4,0.6-1.2,1.4-1.1,1.9c0,0.5,0.8,1.3,1.3,1.3c1.7-0.2,3.5-0.7,5.2-1.3c0.4-0.2,1.1-1.2,1-1.6
		c-0.1-0.5-0.8-1.2-1.4-1.2C35,21.6,33.4,22,31.6,22.4z"/>
</g>
<g>
	<path d="M-523.9,251.2c1.6-0.1,2.9-0.3,4.1-0.4c0.7-0.1,1.5-0.1,2.2-0.1c1.1,0,2,0.5,2.1,1.7c0.1,1.2-0.6,1.9-1.7,2.1
		c-0.5,0.1-1.1,0.3-1.6,0.3c-2.9,0.3-5.8,0.5-8.8,0.7c-2.8,0.2-3.9-1.1-3-3.6c1.3-3.7,2.9-7.3,4.5-10.9c0.4-1,1.2-1.6,2.4-1.3
		c1,0.3,1.3,1.3,0.8,2.8c-0.3,0.8-0.6,1.7-0.9,2.5c4.1-1.1,8.1-2.1,12.4-3.2c-0.1-0.4-0.3-1.1-0.5-1.7c-0.2-0.5-0.4-1-0.6-1.5
		c-0.3-1-0.4-2,0.7-2.7c0.9-0.5,2,0,2.6,1.3c0.7,1.6,1.3,3.2,2,5.2c0.8,0.2,2,0.4,3.1,0.6c3.6,0.9,6.9,2.4,9.9,4.6
		c0.8,0.6,1.4,1,2.5,0.6c8.1-3.3,16.4-2.5,24.6-0.4c2.3,0.6,4.5,1.2,6.8,1.9c0.1-0.2,0.2-0.3,0.3-0.5c-0.8-0.8-1.6-1.6-2.5-2.3
		c-0.9-0.7-1.4-1.5-0.7-2.6c0.5-0.9,1.7-1,2.9-0.2c0.8,0.6,1.6,1.2,2.3,2c1.8,1.8,3.6,3.7,5.3,5.6c1.9,2,1.7,3.4-0.6,5
		c-2.4,1.6-4.9,3.2-7.4,4.8c-0.5,0.3-1.1,0.7-1.7,1c-1.4,0.6-2.6,0.4-3.2-0.6c-0.6-1-0.2-1.9,1.3-2.9c1.7-1.1,3.4-2.2,5.1-3.3
		c0.1-0.1,0.1-0.3,0.3-0.8c-10.1-3.6-20.1-6.6-31.1-2.9c0.5,1.2,0.9,2.2,1.3,3.2c1.9,5.5,0.3,10.9-4.3,13.8c-2.5,1.6-5.1,2-7.8,0.5
		c-2.6-1.5-3.7-4-3.6-6.9c0.1-4,2.3-6.9,5-9.4c0.7-0.7,1.5-1.3,2.2-2C-504.2,244.2-520.7,245.5-523.9,251.2z M-494,253.9
		c-2.8,1.7-5,3.9-6.1,7c-0.7,1.9-0.2,3.8,1.1,4.7c1.3,0.9,3,0.5,4.7-0.9C-491.2,262.1-491.2,256.8-494,253.9z"/>
	<path d="M-572.2,243.2c-1.4-0.1-2.3-1.1-1.9-2.2c0.8-2.3,1.7-4.6,2.8-6.7c0.2-0.5,1.6-0.8,2.1-0.5c0.5,0.2,1,1.4,0.8,2
		c-0.7,2.2-1.5,4.3-2.5,6.3C-571.1,242.7-571.9,243-572.2,243.2z"/>
	<path d="M-572.2,253.5c0,0.8,0.1,1.7,0,2.6c-0.1,1-0.7,1.9-1.7,1.7c-0.6-0.1-1.6-0.8-1.7-1.4c-0.3-2.1-0.3-4.3-0.3-6.5
		c0-1,0.6-1.7,1.7-1.8c1.1,0,1.6,0.8,1.7,1.8C-572.4,251-572.3,252.2-572.2,253.5z"/>
	<path d="M-557.2,222.2c-0.1,0.3-0.3,0.8-0.7,1.2c-1.1,1.2-2.3,2.3-3.6,3.4c-0.7,0.7-1.6,1-2.5,0.2c-0.9-0.8-0.9-1.9-0.1-2.7
		c1.2-1.3,2.6-2.6,4-3.7C-558.7,219.8-557.2,220.6-557.2,222.2z"/>
	<path d="M-553.4,277.8c0.1,1.2-0.8,2.1-2,1.9c-2.3-0.4-4.1-1.9-5.5-3.7c-0.3-0.4-0.1-1.5,0.2-2c0.2-0.4,1.3-0.6,1.7-0.4
		c1.8,1,3.5,2.2,5.2,3.4C-553.6,277.2-553.5,277.7-553.4,277.8z"/>
	<path d="M-538.5,283.7c-0.8-0.1-1.4-0.1-1.9-0.3c-0.8-0.3-1.6-0.8-1.3-1.8c0.2-0.6,0.9-1.4,1.5-1.6c1.5-0.4,3-0.5,4.6-0.7
		c1-0.1,1.9,0.2,2.1,1.3c0.2,1-0.3,1.8-1.2,2.1C-536,283.2-537.4,283.4-538.5,283.7z"/>
	<path d="M-533.5,215c0.3,0.3,1.2,0.7,1.5,1.4c0.4,1-0.3,1.8-1.3,2c-1.6,0.3-3.2,0.5-4.9,0.5c-1,0-2-0.5-2-1.8c0-1.3,0.9-1.6,2-1.7
		C-536.8,215.3-535.4,215.2-533.5,215z"/>
	<path d="M-526.3,218.7c2.2,0.7,4.1,1.6,5.4,3.3c0.3,0.4,0.2,1.4-0.1,1.7c-0.4,0.4-1.4,0.8-1.9,0.6c-1.6-0.7-3.1-1.6-4.5-2.6
		c-0.4-0.3-0.5-1.3-0.4-1.9C-527.6,219.3-526.8,219.1-526.3,218.7z"/>
	<path d="M-566.2,268c-0.5,0.7-0.8,1.4-1.2,1.6c-0.5,0.2-1.5,0.2-1.7-0.1c-1.1-1.5-2.1-3.1-3-4.7c-0.2-0.4,0.2-1.3,0.6-1.6
		c0.4-0.3,1.5-0.4,1.7-0.2C-568.6,264.6-567.5,266.3-566.2,268z"/>
	<path d="M-550.9,218.4c-0.5-0.5-1.4-0.9-1.7-1.6c-0.4-1,0.3-1.8,1.3-2c1.4-0.4,2.8-0.8,4.3-0.8c0.6,0,1.6,0.8,1.7,1.3
		c0.1,0.6-0.5,1.7-1,1.9C-547.6,217.8-549.1,218-550.9,218.4z"/>
	<path d="M-518.6,224.7c0.3,0.1,0.9,0.2,1.2,0.6c1,1,2.1,2,3,3.1c0.7,0.8,0.7,1.8-0.2,2.4c-0.6,0.3-1.7,0.4-2.2,0
		c-1.3-1-2.4-2.2-3.3-3.5C-520.8,226.2-520.1,224.8-518.6,224.7z"/>
	<path d="M-512.8,265.7c-0.4-0.7-1.3-1.5-1.1-2c0.5-1.6,1.3-3.1,2.2-4.6c0.2-0.4,1.2-0.6,1.6-0.4c0.5,0.2,0.9,0.8,1.1,1.4
		c0.3,1-1.5,4.7-2.5,5.2C-511.7,265.4-512.1,265.4-512.8,265.7z"/>
	<path d="M-506.9,251.3c-0.1,1-0.1,1.8-0.3,2.7c-0.2,1-0.7,1.7-1.9,1.6c-1.1-0.1-1.6-0.9-1.6-1.9c0-1.4,0-2.8,0.4-4.1
		c0.2-0.6,1.1-1.4,1.6-1.4c0.5,0,1.3,0.8,1.6,1.4C-506.8,250.1-507,250.8-506.9,251.3z"/>
	<path d="M-514,269.5c-0.5,2.1-1.4,3.6-2.8,4.6c-0.5,0.3-1.5,0.2-2-0.1c-0.4-0.3-0.6-1.4-0.4-1.9c0.5-1.2,1.3-2.4,2.2-3.5
		c0.4-0.4,1.4-0.7,1.9-0.5C-514.7,268.3-514.3,269.1-514,269.5z"/>
	<path d="M-527.7,282.1c-0.7-0.6-1.5-0.9-1.7-1.4c-0.2-0.5,0.1-1.6,0.5-1.9c1-0.8,2.2-1.3,3.4-1.7c0.5-0.2,1.5,0.2,1.8,0.7
		c0.3,0.5,0.2,1.6-0.2,1.9C-525,280.6-526.3,281.3-527.7,282.1z"/>
</g>
<g>
	<path d="M-152.6,23.1c-2.8-0.8-5.3-1.4-7.7-2.2c-0.5-0.2-1.1-1.2-1-1.7c0.2-0.6,1-1.1,1.6-1.5c0.2-0.2,0.7-0.1,1.1,0
		c2.1,0.5,4.3,1.1,6.4,1.7c1.1,0.3,1.9,1.1,1.5,2.2C-151.1,22.3-152,22.7-152.6,23.1z"/>
	<path d="M-233.2-3.3c2.9-0.1,3.7,0.4,3.8,1.5c0.1,1.2-0.8,1.9-2.7,2.1c-1.8,0.2-3.6,0.4-5.4,0.6c-1.1,0.1-2.3,0.2-2.7-1.2
		c-0.3-1,0.5-2,2.1-2.3C-236.2-2.9-234.3-3.1-233.2-3.3z"/>
	<path d="M-210,15.1c-1.3,0-2.5,0.1-3.8,0c-1-0.1-1.7-0.7-1.7-1.8c0.1-1,0.8-1.7,1.8-1.7c2.3,0,4.5,0,6.8,0.2c1,0.1,2,0.6,1.9,1.9
		c-0.1,1.2-1,1.7-2.1,1.7c-1,0-2,0-3,0C-209.9,15.3-210,15.2-210,15.1z"/>
	<path d="M-182.8,13.7c1.5,0.3,3.4,0.7,5.4,1.1c1,0.2,1.7,0.8,1.6,1.9c-0.1,1.2-1.1,1.7-2.2,1.6c-2-0.3-4-0.7-5.9-1.1
		c-1-0.2-1.9-0.7-1.9-2C-185.8,14.2-184.8,13.7-182.8,13.7z"/>
	<path d="M-273.3,22.6c-0.4-0.3-1.4-0.7-1.5-1.3c-0.1-0.6,0.3-1.8,0.8-2c2.3-0.8,4.6-1.5,7-2c0.5-0.1,1.6,0.7,1.7,1.2
		c0.1,0.6-0.4,1.6-0.9,1.9c-0.9,0.5-2.1,0.6-3.1,0.9C-270.5,21.9-271.7,22.2-273.3,22.6z"/>
	<path d="M-177.7,2.2c-1.4-0.2-3.1-0.4-4.9-0.7c-1.1-0.2-1.9-0.7-1.8-2c0.2-1.3,1.1-1.7,2.2-1.5c1.9,0.2,3.8,0.4,5.7,0.8
		c1.6,0.3,2.2,1.1,2,2.1c-0.3,1.2-1.3,1.4-2.4,1.4C-177,2.2-177.2,2.2-177.7,2.2z"/>
	<path d="M-245.2,16.9c-0.2-0.2-1.1-0.5-1.3-1c-0.2-0.6,0.1-1.8,0.6-2.1c2.1-1.3,4.5-1.5,6.9-1.3c0.5,0,1.2,0.8,1.2,1.2
		c0,0.6-0.4,1.3-0.8,1.8c-0.3,0.3-1,0.4-1.5,0.5C-241.6,16.3-243.2,16.5-245.2,16.9z"/>
	<path d="M-219.9-3.8c0.9,0,1.9-0.2,2.7,0.1c0.6,0.2,1.2,0.8,1.4,1.4c0.3,0.9-0.3,1.7-1.2,1.8c-2.1,0.2-4.2,0.3-6.2,0.1
		c-0.4,0-1.2-1.1-1.2-1.5c0.1-0.7,0.8-1.5,1.4-1.7c0.9-0.3,2-0.2,3-0.2C-219.9-3.9-219.9-3.9-219.9-3.8z"/>
	<path d="M-253.5,2.6c-0.2-0.2-1-0.6-1.2-1.1c-0.1-0.6,0.1-1.6,0.5-1.9c2.1-1.3,4.5-1.5,6.8-1.1c0.5,0.1,1.2,1.1,1.1,1.6
		c-0.1,0.6-0.9,1.5-1.5,1.7C-249.5,2.2-251.3,2.3-253.5,2.6z"/>
	<path d="M-265.5,6.3c-0.6-0.5-1.6-0.9-1.7-1.5c-0.1-0.6,0.4-1.7,0.9-2c1.7-0.8,3.5-1.4,5.4-1.9c0.6-0.1,1.7,0.5,1.9,1
		c0.2,0.5-0.2,1.8-0.7,2C-261.5,4.9-263.4,5.5-265.5,6.3z"/>
	<path d="M-281.9,24.6c-0.3,0.3-0.7,1.1-1.4,1.4c-1.4,0.7-2.8,1.2-4.3,1.7c-1,0.4-1.8,0-2.3-0.9c-0.4-0.9-0.1-1.8,0.7-2.1
		c1.7-0.8,3.5-1.5,5.3-2C-282.8,22.4-282,23.2-281.9,24.6z"/>
	<path d="M-226,15.6c-1.3-0.1-2.2,0-3.1-0.3c-0.6-0.2-1.3-0.9-1.3-1.4c0-0.5,0.6-1.6,1.1-1.6c2.2-0.2,4.3-0.3,6.5-0.2
		c0.4,0,1.1,1,1.1,1.5c0,0.6-0.7,1.4-1.2,1.6C-223.9,15.5-225.2,15.5-226,15.6z"/>
	<path d="M-203.2-0.1c-1.2-0.1-2,0.1-2.7-0.2c-0.6-0.3-1.3-0.9-1.3-1.5c-0.1-0.5,0.6-1.6,1-1.6c1.8-0.2,3.6-0.1,5.3,0
		c0.4,0,1,1,1,1.4c-0.1,0.6-0.6,1.4-1.1,1.6C-201.9,0-202.8-0.1-203.2-0.1z"/>
	<path d="M-255.3,16.4c-0.2,2.1-1.6,2.3-2.8,2.6c-1.4,0.3-3,1.5-4.3-0.2c-0.6-0.7-0.4-1.9,0.4-2.1c1.8-0.6,3.6-1,5.5-1.3
		C-256.2,15.3-255.6,16.1-255.3,16.4z"/>
	<path d="M-195,12.8c1.1,0.2,2.3,0.4,3.3,0.8c0.5,0.2,1.2,1.2,1,1.6c-0.2,0.6-1,1.5-1.6,1.5c-1.4,0.1-2.9-0.2-4.3-0.5
		c-0.9-0.2-1.2-1.1-1-2C-197.2,13-196.1,13-195,12.8z"/>
	<path d="M-191.6,0.6c-0.8-0.1-1.6,0.1-2.1-0.2c-0.6-0.3-1.3-1-1.5-1.6c-0.3-0.9,0.5-1.6,1.4-1.7c1.4-0.1,2.9-0.1,4.3,0.2
		c0.5,0.1,1.2,1,1.2,1.5c0,0.5-0.7,1.3-1.2,1.5C-190.3,0.6-191.1,0.5-191.6,0.6z"/>
	<path d="M-170.3,15.7c1.1,0.3,2.1,0.5,3.1,0.9c0.9,0.3,1.3,1.1,0.9,2c-0.3,0.5-1,1.1-1.6,1.1c-1,0.1-2-0.3-3-0.4
		c-1.1-0.2-2-0.7-1.8-2C-172.4,16.1-171.4,15.8-170.3,15.7z"/>
</g>
<g>
	<path d="M-528.8,63.8c0.9-1.3,1.7-2.5,2.6-3.7c0.5-0.6,1.1-1.4,1.8-1.7c0.5-0.2,1.6-0.1,2,0.3c0.4,0.4,0.5,1.4,0.3,1.9
		c-0.4,1-1.2,1.8-1.9,2.7c-0.4,0.6-0.7,1.2-1.2,2.1c1,0.6,1.8,1.1,2.7,1.6c5,2.9,9.2,6.6,12,11.8c3.8,7,3.8,14,0,21
		c-2.6,4.8-6.2,8.7-10.9,11.4c-11.2,6.5-23,7.7-35.2,3.7c-5.1-1.7-9.5-4.7-13.1-8.7c-5.6-6.3-7.5-13.7-5.3-21.8
		c3.2-11.6,10.5-19.7,22.2-23.5c0.8-0.2,1.6-0.5,2.4-0.3c0.6,0.1,1.3,0.6,1.6,1.2c0.4,0.8,0,1.6-0.9,2c-0.6,0.3-1.2,0.4-1.8,0.6
		c-10.2,2.9-19.5,14.2-20.2,24.8c-0.5,7.3,2.7,13,8.2,17.4c4.7,3.8,10.1,5.8,16.2,6.3c6.8,0.6,13.4-0.2,19.7-2.9
		c5.6-2.4,10.2-6.2,13.3-11.5c3.7-6.3,3.6-12.5-0.2-18.7c-3.8-6.2-9.6-9.7-16.2-12.1c-4-1.5-8.1-2.1-12.4-1.5c-0.4,0.1-1,0.2-1.3,0
		c-0.7-0.4-1.6-0.9-1.7-1.5c-0.1-0.6,0.5-1.5,1.1-1.9c0.7-0.5,1.7-0.6,2.6-0.7c3.7-0.5,7.3-0.1,10.9,1
		C-530.7,63.3-529.7,63.5-528.8,63.8z"/>
	<path d="M-428.3,79c-1.2-2.8-2-5-3-7.2c-0.5-1.1-0.8-2.1,0.5-2.9c0.9-0.6,1.9-0.2,2.7,1.1c0.6,0.9,0.9,2,1.4,3
		c0.4,0.9,0.8,1.8,1.2,2.7c0.2,0,0.4,0,0.6,0c0.2-1.2,0.5-2.3,0.7-3.5c0.3-1.6,0.9-2.2,2-2c1,0.2,1.7,1.1,1.6,2.5
		c-0.1,1.1-0.3,2.2-0.5,3.3c-0.3,2.1-0.6,4.1-0.9,6.2c-0.2,1.7-1,2.5-2.5,2c-3.6-1.1-7.1-2.4-10.6-3.8c-0.5-0.2-1-1.3-1-2
		c0-0.9,0.9-1.3,1.8-1.2c0.7,0.1,1.4,0.3,2.1,0.5C-431,78.1-430,78.5-428.3,79z"/>
	<path d="M-510.5,52.3c-0.5-0.3-1.3-0.6-1.5-1.2c-0.2-0.5,0.1-1.7,0.4-1.9c2.3-1,4.7-1.8,7.1-2.4c0.4-0.1,1.4,0.7,1.5,1.2
		c0.1,0.6-0.4,1.8-0.9,2C-505.9,50.9-508.1,51.5-510.5,52.3z"/>
	<path d="M-486.4,69.6c0.3,0.2,0.9,0.5,1.4,1c1,1.2,1.9,2.4,2.8,3.7c0.6,0.7,0.8,1.5,0.2,2.2c-0.7,0.8-1.6,0.9-2.4,0.4
		c-1.9-1.3-3.2-3-3.9-5.1C-488.7,70.7-487.9,69.7-486.4,69.6z"/>
	<path d="M-484.6,45.3c1,0.4,2.7,0.9,4.3,1.6c1.3,0.7,1.7,1.7,1.1,2.7c-0.7,1.1-1.6,1-2.6,0.6c-1.4-0.5-2.7-1-4.1-1.5
		c-1-0.3-1.7-0.9-1.5-2C-487.3,45.5-486.3,45.3-484.6,45.3z"/>
	<path d="M-457.5,49.7c1.1,0.3,2.6,0.5,3.9,1c0.6,0.2,1.1,1.2,1.1,1.9c0,1.1-1,1.5-2,1.4c-1.5-0.2-3-0.6-4.5-0.9
		c-1-0.2-1.6-0.8-1.5-1.9c0.1-1.1,1-1.4,1.9-1.5C-458.4,49.7-458.1,49.7-457.5,49.7z"/>
	<path d="M-467.8,65.5c-0.2,0.7-0.3,1.7-0.6,2.6c-0.3,0.9-1.1,1.4-2,1c-0.5-0.2-1.2-1-1.2-1.5c-0.1-1.5-0.1-3.1,0.2-4.6
		c0.1-0.6,0.9-1.3,1.6-1.5c0.9-0.3,1.6,0.4,1.8,1.3C-467.9,63.5-467.9,64.3-467.8,65.5z"/>
	<path d="M-471.6,74.3c0,1.7-3.4,4.9-5.1,4.7c-0.5-0.1-1.3-0.5-1.5-0.9c-0.2-0.5-0.1-1.4,0.2-1.7c1.2-1.2,2.5-2.4,3.9-3.4
		C-473,72.1-471.6,73-471.6,74.3z"/>
	<path d="M-519.4,57c-1.2-0.1-2-1.3-1.4-2.3c1.1-1.9,2.7-3.2,4.8-3.7c0.5-0.1,1.4,0.4,1.8,0.8c0.3,0.4,0.2,1.4-0.1,1.7
		c-1.4,1.2-3,2.3-4.5,3.4C-519,57-519.2,57-519.4,57z"/>
	<path d="M-442.5,59.4c-1.7-0.7-3.1-1.2-4.3-1.9c-0.8-0.4-1.3-1.3-0.7-2.1c0.4-0.5,1.4-1.1,2-1c1.4,0.3,2.8,0.8,4.1,1.5
		c0.5,0.3,1,1.5,0.8,2C-441,58.6-441.9,58.9-442.5,59.4z"/>
	<path d="M-470.8,56c-0.2,0.3-0.5,1.1-1,1.3c-0.5,0.2-1.5-0.1-1.9-0.5c-1-0.9-1.8-2-2.5-3.2c-0.3-0.5-0.3-1.5,0-2
		c0.3-0.4,1.3-0.7,1.9-0.6C-473,51.3-470.9,54.2-470.8,56z"/>
	<path d="M-433,63.6c0,1.3-1.2,2.2-2.3,1.5c-1.3-0.9-2.4-2.1-3.4-3.4c-0.3-0.3,0-1.4,0.4-1.9c0.3-0.4,1.4-0.6,1.6-0.3
		c1.2,1,2.3,2.2,3.4,3.4C-433,63.1-433.1,63.4-433,63.6z"/>
	<path d="M-493.4,44.6c1.5,0,2.4,0.6,2.4,1.7c0,1.2-0.8,1.7-1.9,1.9c-0.9,0.1-1.8,0.3-2.7,0.3c-1,0-1.8-0.4-1.9-1.5
		c-0.1-1.1,0.5-1.7,1.5-2C-495.1,44.8-494.2,44.8-493.4,44.6z"/>
	<path d="M-484.9,64.3c-0.1,0.9-0.2,1.8-0.3,2.7c-0.2,0.9-0.7,1.7-1.6,1.4c-0.7-0.2-1.6-0.9-1.7-1.4c-0.2-1.1,0-2.3,0.2-3.5
		c0.2-1.1,0.9-1.8,2.2-1.6C-484.8,62.3-484.7,63.3-484.9,64.3z"/>
	<path d="M-480,57.6c-0.2,0.3-0.3,0.8-0.7,1.2c-0.7,0.7-1.4,1.4-2.2,2.1c-0.7,0.6-1.6,0.8-2.2,0c-0.4-0.5-0.7-1.8-0.4-2.1
		c0.9-1.1,2-2.1,3.2-2.7C-481.1,55.5-480.1,56.4-480,57.6z"/>
	<path d="M-466.5,49.4c1.8,0,2.7,0.4,2.9,1.5c0.2,1.2-0.7,1.7-1.8,2c-0.7,0.2-1.4,0.4-2.1,0.5c-0.9,0.2-1.8-0.1-2-1
		c-0.1-0.7,0.1-1.7,0.6-2.1C-468,49.8-466.9,49.6-466.5,49.4z"/>
</g>
<g>
	<path d="M-191.1,247.8c-0.5,1.3-0.7,2-1,2.6c-0.7,1.9-1.4,2.5-2.6,2.2c-1.2-0.3-1.5-1.3-1-3.2c0.2-0.9,0.4-1.7,0.8-3.2
		c-1.3,0.9-2.1,1.5-2.9,2.1c-0.5,0.4-1.1,0.9-1.6,0.9c-0.7,0-1.6-0.2-2.2-0.6c-0.7-0.6-0.4-1.5,0.2-2.2c0.2-0.2,0.4-0.4,0.6-0.6
		c2.2-1.6,4.4-3.3,6.6-4.9c1.7-1.2,2.5-1,3.6,0.7c1.8,3,3.5,6,5.3,9c0.6,1,0.8,2.1-0.4,2.9c-0.9,0.6-2.1,0.2-3-1.1
		C-189.4,251.2-190.1,249.8-191.1,247.8z"/>
	<path d="M-243.7,268.3c-0.1,0.2-0.3,0.4-0.3,0.5c-0.1,1.1-0.4,2.1-1.6,2.2c-1.3,0.1-1.9-0.9-2.2-2c-0.5-1.6-1-3.1-1.5-4.7
		c-0.1-0.4-0.3-1-0.2-1.3c0.3-0.7,0.7-1.6,1.3-1.8c0.5-0.1,1.4,0.5,1.9,1c0.5,0.6,0.6,1.5,1,2.4c1.2-0.2,2.3-0.4,3.5-0.6
		c1-0.1,1.9,0.1,2.2,1.2c0.3,1.1-0.3,1.8-1.2,2.1C-241.7,267.8-242.6,268-243.7,268.3z"/>
	<path d="M-273.4,243.4c0,0.9,0.1,2.1,0,3.3c-0.1,1.5-0.9,2.2-2,2.1c-1.3-0.1-1.7-1-1.7-2.1c0-2.1,0.1-4.2,0.2-6.3
		c0-0.5,0.2-1.1,0.5-1.5c0.4-0.8,1.2-1.3,2-0.9c0.5,0.3,1.1,1,1.1,1.6C-273.1,240.8-273.3,242-273.4,243.4z"/>
	<path d="M-256.3,267.8c-1.7-0.6-3.5-1-5.2-1.7c-1-0.4-1.6-1.3-1.1-2.5c0.5-1.2,1.5-1.1,2.6-0.8c1.6,0.4,3.2,0.7,4.8,1
		c1.1,0.2,2.3,0.4,2.4,1.8c0.1,1.1-0.9,1.8-2.5,1.9c-0.3,0-0.5,0-0.8,0C-256.3,267.6-256.3,267.7-256.3,267.8z"/>
	<path d="M-238.4,235.4c-1,0.1-2.2,0.2-3.4,0.3c-1,0.1-1.9-0.1-2.2-1.2c-0.3-1.2,0.4-2.1,1.5-2.2c2.1-0.3,4.2-0.4,6.2-0.3
		c1.3,0.1,2.1,1.4,1.8,2.3c-0.4,1.2-1.3,1.4-2.4,1.2C-237.3,235.4-237.7,235.4-238.4,235.4z"/>
	<path d="M-271.8,251.5c0.3,0.3,1,0.8,1.4,1.4c0.9,1.5,1.6,3.1,2.4,4.6c0.2,0.4,0.5,0.9,0.4,1.3c-0.1,0.6-0.4,1.4-0.9,1.8
		c-0.3,0.3-1.3,0.1-1.7-0.2c-2-1.9-3.1-4.3-3.6-6.9C-274,252.4-273.4,251.7-271.8,251.5z"/>
	<path d="M-197.6,258c-0.2,0.6-0.2,1.1-0.5,1.5c-1.1,1.5-2.3,3.1-3.5,4.6c-0.6,0.7-1.4,0.9-2.2,0.4c-0.9-0.6-1.1-1.5-0.5-2.4
		c1.1-1.7,2.3-3.3,3.6-4.8c0.4-0.4,1.4-0.6,2-0.4C-198.3,256.8-198,257.6-197.6,258z"/>
	<path d="M-226,240.9c-0.1,1.3-1.7,2.1-2.6,1.2c-1.4-1.4-2.6-3-3.7-4.7c-0.3-0.4,0-1.5,0.5-1.9c0.4-0.3,1.6-0.4,1.9-0.1
		c1.4,1.5,2.6,3.3,3.8,4.9C-226,240.5-226.1,240.8-226,240.9z"/>
	<path d="M-229.8,259.4c-0.2,0.3-0.4,0.9-0.9,1.4c-0.9,0.9-2,1.6-3,2.4c-0.7,0.6-1.7,0.8-2.2,0c-0.4-0.6-0.6-1.9-0.3-2.2
		c1.3-1.3,2.8-2.5,4.5-3.5C-230.7,257-229.7,258-229.8,259.4z"/>
	<path d="M-236.2,278.6c-0.1,1.3-0.9,1.7-1.9,1.7c-1.4,0-4.3-2.6-4.6-4c-0.2-1.3,1.1-2.6,2.2-1.9c1.5,0.9,2.7,2.2,4,3.3
		C-236.3,277.9-236.3,278.4-236.2,278.6z"/>
	<path d="M-252.5,250.5c0.1-0.8,0-1.5,0.2-2c0.3-0.6,0.9-1.2,1.5-1.3c0.5,0,1.5,0.6,1.6,1.1c0.3,1.6,0.4,3.3,0.4,4.9
		c0,0.5-0.9,1.4-1.4,1.4c-0.7,0-1.6-0.6-1.8-1.2C-252.4,252.5-252.4,251.4-252.5,250.5z"/>
	<path d="M-249.9,242.3c-0.4-0.5-1-1-1.2-1.6c-0.5-1.7,1.7-4.7,3.5-4.9c1.3-0.1,2.4,1.2,1.8,2.3c-0.8,1.3-1.8,2.5-2.8,3.6
		C-248.9,242-249.3,242.1-249.9,242.3z"/>
	<path d="M-212.4,274.4c-0.2,0.3-0.5,1-1,1.3c-1,0.6-2.1,1.2-3.2,1.5c-0.5,0.1-1.6-0.2-1.8-0.7c-0.3-0.6-0.2-1.8,0.3-2.1
		c1.2-0.8,2.5-1.4,3.9-1.8C-213.2,272.3-212.5,273.1-212.4,274.4z"/>
	<path d="M-225.3,279.7c-1,0-1.4,0-1.9,0c-1-0.1-1.9-0.6-1.7-1.6c0.1-0.6,0.8-1.5,1.4-1.6c1.1-0.3,2.3-0.3,3.5-0.3
		c0.9,0,1.6,0.5,1.6,1.5c0.1,1.1-0.6,1.7-1.6,1.9C-224.6,279.7-225.2,279.7-225.3,279.7z"/>
	<path d="M-225,247.2c-0.4,1.4-0.6,2.6-1.2,3.6c-0.3,0.6-1.3,1.1-1.9,1.1c-1-0.1-1.5-1-1.4-2c0.2-1.1,0.6-2.1,0.9-3.1
		c0.3-1,1.1-1.6,2.1-1.1C-225.8,245.9-225.4,246.7-225,247.2z"/>
	<path d="M-208,267.4c1.1,0.1,1.9,1.1,1.3,2.1c-0.6,1.1-1.5,2-2.5,2.7c-0.9,0.7-2.2-0.3-2.3-1.5C-211.4,269.4-209.3,267.3-208,267.4
		z"/>
</g>
<g>
	<path d="M-465.2-112.1c1.1-0.6,1.8-1,2.5-1.4c2.2-1.3,3.3-1.3,4.1-0.1c0.8,1.2,0.1,2.2-2.2,3.7c-2.7,1.8-5.4,3.7-8.1,5.6
		c-0.2,0.2-0.4,0.3-0.7,0.5c-2.1,1.4-3.6,0.9-4.3-1.6c-0.2-0.8-0.3-1.6-0.4-2.4c-0.6-3.3-1.1-6.7-1.7-10c-0.3-1.8,0-2.7,1.1-2.9
		c1.1-0.2,1.9,0.4,2.4,2.1c0.4,1.4,0.6,2.9,0.9,4.3c0.2,0.9,0.3,1.7,0.6,2.9c1.5-1.1,2-2.3,2.6-3.5c0.3-0.7,0.6-1.4,0.9-2
		c0.5-0.9,1.3-1.4,2.3-0.9c1,0.4,1.2,1.3,0.9,2.3C-464.4-114.6-464.7-113.6-465.2-112.1z"/>
	<path d="M-569.9-144.2c-1.5-0.9-2.8-1.6-4-2.3c-0.6-0.4-1.4-0.7-1.7-1.3c-0.3-0.6-0.3-1.6,0-2.2c0.2-0.4,1.4-0.6,1.9-0.4
		c1.4,0.5,2.6,1.3,3.9,2c0.5,0.2,1,0.4,1.8,0.8c0.8-1.4,1.6-2.8,2.3-4.3c1-1.9,2-2.5,3.1-2c1.1,0.5,1.2,1.6,0.2,3.6
		c-0.7,1.4-1.3,2.8-2.1,4.3c1.4,0.7,2.6,1.3,3.8,2c0.7,0.4,1.5,0.8,2.1,1.3c0.9,0.7,1.1,1.7,0.4,2.7c-0.6,0.9-1.5,0.9-2.4,0.5
		c-1.8-0.9-3.6-1.9-5.5-2.9c-0.6,1-1,1.8-1.6,2.6c-0.8,1.2-1.8,1.6-2.8,1c-1.2-0.8-1.1-1.8-0.5-2.9
		C-570.8-142.5-570.4-143.2-569.9-144.2z"/>
	<path d="M-525.5-112.1c0.5-0.4,0.8-0.6,1.1-0.8c1-0.8,2-0.7,2.5,0.4c0.6,1.3,0.9,2.7,1.1,4.1c0.1,0.3-0.5,1-0.8,1
		c-1.8,0-3,1.1-4.2,2.2c-0.7,0.6-1.7,0.6-2.2-0.2c-0.3-0.5-0.3-1.3-0.3-2c0.1-0.5,0.5-0.9,0.8-1.5c-0.7-0.6-1.3-1.1-1.9-1.6
		c-0.8-0.8-1.2-1.7-0.5-2.7c0.7-1,1.7-0.8,2.7-0.1C-526.6-113-526.1-112.6-525.5-112.1z"/>
	<path d="M-534.1-100.7c-1.5,0-2.8,0.2-4.2,0.1c-1.1-0.1-1.9-0.7-1.9-1.9c0-1.3,0.9-1.5,2.1-1.7c2-0.3,3.9-0.7,5.9-1.2
		c1.1-0.3,2.1-0.3,2.6,0.7c0.6,1.1,0,2-1,2.5C-531.8-101.6-533-101.2-534.1-100.7z"/>
	<path d="M-544.9-106.3c0.2,1.4-0.6,2.3-1.8,2.2c-2.6-0.3-4.9-1.4-6.9-3c-0.5-0.4-0.7-1.6-0.4-2.2c0.3-0.5,1.5-0.9,2.1-0.7
		c2.1,0.7,4.1,1.6,6,2.6C-545.4-107.2-545.1-106.6-544.9-106.3z"/>
	<path d="M-471-142c0.2,1.2-0.4,2.2-1.4,2.1c-2.3-0.3-4.6-0.9-6.9-1.5c-0.4-0.1-0.8-1.1-0.7-1.6c0.1-0.5,0.7-1.3,1.1-1.3
		c2.6-0.3,5.1,0.3,7.3,1.6C-471.3-142.6-471.2-142.2-471-142z"/>
	<path d="M-563.7-128.4c0.3,1.5,0.6,3,0.9,4.5c0.2,1,0.2,2.1-1,2.5c-1.2,0.4-1.9-0.4-2.3-1.4c-0.9-1.9-1.1-3.8-0.8-5.8
		c0.2-1,0.9-1.8,1.9-1.5c0.7,0.2,1.3,0.9,1.9,1.4C-563.3-128.7-563.5-128.6-563.7-128.4z"/>
	<path d="M-493.6-126.2c-0.1,0.6-0.1,1.2-0.4,1.7c-1.1,1.6-2.2,3.2-3.4,4.7c-0.6,0.7-1.5,0.7-2.2,0.2c-0.8-0.6-0.9-1.4-0.4-2.2
		c1.1-1.7,2.2-3.4,3.4-4.9c0.3-0.4,1.3-0.5,2-0.5C-494.3-127.3-494-126.6-493.6-126.2z"/>
	<path d="M-462.5-126.4c0,1.1,0.1,2.6-0.1,4c-0.1,1.1-0.6,2-1.8,2c-1.3,0-1.7-0.9-1.7-2c-0.1-1.4-0.1-2.9-0.1-4.3
		c-0.1-1.2,0.1-2.2,1.5-2.5c1-0.2,1.8,0.6,2.1,2C-462.6-127-462.6-126.9-462.5-126.4z"/>
	<path d="M-556.3-112.7c0.3,1.4-1,2.7-2.1,1.9c-1.8-1.2-3.3-2.8-4.8-4.3c-0.6-0.6-0.4-1.7,0.4-2.2c0.5-0.3,1.4-0.4,1.7-0.2
		c1.6,1.3,3,2.7,4.4,4.1C-556.4-113.2-556.4-112.9-556.3-112.7z"/>
	<path d="M-520.6-119.5c0.1,0.7,0.5,1.5,0.4,2.1c-0.1,0.6-0.6,1.4-1.1,1.6c-0.5,0.2-1.7-0.2-1.8-0.5c-0.7-2.1-1.3-4.3-1.7-6.5
		c-0.1-0.3,0.6-1.1,1-1.1c0.6,0,1.6,0.2,1.9,0.6c0.7,1.1,1.1,2.4,1.7,3.7C-520.5-119.6-520.6-119.6-520.6-119.5z"/>
	<path d="M-537.7-118.8c-0.5-2.1-0.1-3.1,1-3.3c1.3-0.3,1.8,0.5,2.2,1.5c0.6,1.1,1.2,2.3,1.8,3.4c0.6,1,0.6,2-0.4,2.6
		c-1,0.6-2,0.2-2.6-0.7C-536.6-116.6-537.3-118-537.7-118.8z"/>
	<path d="M-501.1-116.6c-0.1,0.3-0.1,0.9-0.5,1.3c-1,1.2-2,2.3-3.2,3.3c-0.5,0.4-1.6,0.4-2.2,0.1c-0.9-0.5-0.9-1.6-0.3-2.4
		c1-1.2,2.1-2.5,3.4-3.5C-502.8-118.8-501.4-118.1-501.1-116.6z"/>
	<path d="M-515.7-111.1c1.8-0.1,3.2-0.3,4.5-0.1c0.6,0.1,1.4,0.7,1.5,1.2c0.1,0.5-0.2,1.4-0.7,1.8c-0.9,0.9-4.7,1-5.7,0.1
		c-0.5-0.4-0.8-1.3-0.7-1.8C-516.7-110.5-515.9-110.9-515.7-111.1z"/>
	<path d="M-533.7-130.6c0.3,0.2,1.2,0.4,1.6,0.9c0.3,0.4,0.1,1.4-0.2,1.9c-0.6,1-1.5,1.9-2.4,2.6c-0.5,0.4-1.5,0.6-2,0.3
		c-0.5-0.2-0.9-1.1-0.9-1.8C-537.6-128.1-535.6-130.2-533.7-130.6z"/>
	<path d="M-464.5-133.3c-0.4,0.7-0.5,1.5-1,1.8c-0.5,0.3-1.6,0.2-1.9-0.2c-0.9-1.1-1.6-2.4-2.3-3.7c-0.4-0.8-0.1-1.7,0.8-2.1
		c0.9-0.4,1.7-0.2,2.2,0.6C-466-135.9-465.3-134.7-464.5-133.3z"/>
	<path d="M-488.1-137.9c-1.8,0.4-2.7-0.4-2.6-1.7c0.1-1.4,3.1-3.8,4.6-3.8c1.2,0.1,2.1,1.3,1.3,2.3
		C-485.8-139.7-487.2-138.7-488.1-137.9z"/>
	<path d="M-492.5-135.9c1.1-0.2,2.1,0.6,1.9,1.7c-0.2,1.2-0.5,2.3-1,3.4c-0.5,1.1-2,1.1-2.8,0.2
		C-495.5-132.1-494.2-135.6-492.5-135.9z"/>
	<path d="M-524.3-127.8c0.2,1-0.4,1.8-1.4,2c-1.1,0.1-3.2-1.3-3.4-2.3c-0.2-0.9,0.5-1.8,1.5-1.9C-526.4-130.3-524.5-129-524.3-127.8
		z"/>
</g>
</svg>
