<svg width="29" height="24" viewBox="0 0 29 24" fill="none" xmlns="http://www.w3.org/2000/svg">
<mask id="mask0_309:3853" style="mask-type:alpha" maskUnits="userSpaceOnUse" x="11" y="3" width="12" height="10">
<path fill-rule="evenodd" clip-rule="evenodd" d="M22.4998 12.5214L11.6034 12.5214L11.6034 3.58197L22.4998 3.58197V12.5214Z" fill="white"/>
</mask>
<g mask="url(#mask0_309:3853)">
<path d="M11.6031 11.8109C11.6031 11.6783 11.64 11.5475 11.712 11.432L16.4498 3.91364C16.5805 3.70712 16.807 3.58111 17.0514 3.58111C17.2958 3.58111 17.5222 3.70712 17.653 3.91364L22.3908 11.432C22.5281 11.6508 22.5367 11.9274 22.4107 12.1539C22.2856 12.3812 22.0478 12.5214 21.7892 12.5214L12.3136 12.5214C12.055 12.5214 11.8172 12.3812 11.6921 12.1539C11.6324 12.0468 11.6031 11.9284 11.6031 11.8109" fill="white"/>
</g>
<path opacity="0.4" d="M17 9C18 14.5 16.2 25 1 23" stroke="white" stroke-width="1.5" stroke-linecap="round"/>
</svg>
