<svg width="2083" height="233" viewBox="0 0 2083 233" fill="none" xmlns="http://www.w3.org/2000/svg">
<path d="M1 143.456C115.813 133.443 193.269 83.2774 276.424 48.332C338.051 22.3983 441.678 -17.6537 525.466 10.7832C626.982 45.1278 686.71 108.21 758.89 154.971C807.432 186.311 885.943 238.779 982.394 230.068C1073.57 221.757 1145.54 168.188 1204.84 138.449C1261.83 109.912 1334.43 74.2657 1424.55 77.2696C1510.87 80.0732 1595.92 104.805 1673.38 121.127C1767.93 140.952 1860.58 150.765 1964 147.361" stroke="url(#paint0_linear)" stroke-width="2" stroke-miterlimit="10"/>
<path d="M119 143.456C233.813 133.443 311.269 83.2774 394.424 48.332C456.051 22.3983 559.678 -17.6537 643.466 10.7832C744.982 45.1278 804.71 108.21 876.89 154.971C925.432 186.311 1003.94 238.779 1100.39 230.068C1191.57 221.757 1263.54 168.188 1322.84 138.449C1379.83 109.912 1452.43 74.2657 1542.55 77.2696C1628.87 80.0732 1713.92 104.805 1791.38 121.127C1885.93 140.952 1978.58 150.765 2082 147.361" stroke="url(#paint1_linear)" stroke-width="2" stroke-miterlimit="10"/>
<path d="M1858.06 182V184H1861.89L1859.7 180.856L1858.06 182ZM1829.01 140.375L1828.22 138.537L1825.96 139.505L1827.37 141.519L1829.01 140.375ZM1743.36 52.5V50.5H1741.36V52.5H1743.36ZM1743.36 182H1741.36V184H1743.36V182ZM1773.33 182V184H1775.33V182H1773.33ZM1773.33 145.925V143.925H1771.33V145.925H1773.33ZM1800.89 145.925L1802.53 144.787L1801.94 143.925H1800.89V145.925ZM1825.87 182L1824.22 183.138L1824.82 184H1825.87V182ZM1773.33 122.06H1771.33V124.06H1773.33V122.06ZM1773.33 76.92V74.92H1771.33V76.92H1773.33ZM1859.7 180.856L1830.65 139.231L1827.37 141.519L1856.41 183.144L1859.7 180.856ZM1829.8 142.213C1847.36 134.685 1857.65 119.719 1857.65 99.49H1853.65C1853.65 118.111 1844.33 131.635 1828.22 138.537L1829.8 142.213ZM1857.65 99.49C1857.65 84.4303 1852.02 72.0984 1841.78 63.567C1831.59 55.0706 1817.03 50.5 1799.41 50.5V54.5C1816.38 54.5 1829.94 58.9019 1839.22 66.6393C1848.46 74.3416 1853.65 85.5047 1853.65 99.49H1857.65ZM1799.41 50.5H1743.36V54.5H1799.41V50.5ZM1741.36 52.5V182H1745.36V52.5H1741.36ZM1743.36 184H1773.33V180H1743.36V184ZM1775.33 182V145.925H1771.33V182H1775.33ZM1773.33 147.925H1799.41V143.925H1773.33V147.925ZM1799.41 147.925H1800.89V143.925H1799.41V147.925ZM1799.25 147.063L1824.22 183.138L1827.51 180.862L1802.53 144.787L1799.25 147.063ZM1825.87 184H1858.06V180H1825.87V184ZM1823.31 99.49C1823.31 106.057 1821.17 111.088 1817.11 114.519C1812.99 117.994 1806.63 120.06 1797.75 120.06V124.06C1807.18 124.06 1814.6 121.871 1819.69 117.576C1824.83 113.237 1827.31 106.983 1827.31 99.49H1823.31ZM1797.75 120.06H1773.33V124.06H1797.75V120.06ZM1775.33 122.06V76.92H1771.33V122.06H1775.33ZM1773.33 78.92H1797.75V74.92H1773.33V78.92ZM1797.75 78.92C1806.64 78.92 1813 80.9443 1817.11 84.3951C1821.17 87.7986 1823.31 92.8247 1823.31 99.49H1827.31C1827.31 91.9103 1824.83 85.6514 1819.68 81.3311C1814.59 77.0582 1807.17 74.92 1797.75 74.92V78.92ZM1968.2 52.5V50.5H1966.2V52.5H1968.2ZM1968.2 103.56V105.56H1970.2V103.56H1968.2ZM1909.37 103.56H1907.37V105.56H1909.37V103.56ZM1909.37 52.5H1911.37V50.5H1909.37V52.5ZM1879.4 52.5V50.5H1877.4V52.5H1879.4ZM1879.4 182H1877.4V184H1879.4V182ZM1909.37 182V184H1911.37V182H1909.37ZM1909.37 128.905V126.905H1907.37V128.905H1909.37ZM1968.2 128.905H1970.2V126.905H1968.2V128.905ZM1968.2 182H1966.2V184H1968.2V182ZM1998.17 182V184H2000.17V182H1998.17ZM1998.17 52.5H2000.17V50.5H1998.17V52.5ZM1966.2 52.5V103.56H1970.2V52.5H1966.2ZM1968.2 101.56H1909.37V105.56H1968.2V101.56ZM1911.37 103.56V52.5H1907.37V103.56H1911.37ZM1909.37 50.5H1879.4V54.5H1909.37V50.5ZM1877.4 52.5V182H1881.4V52.5H1877.4ZM1879.4 184H1909.37V180H1879.4V184ZM1911.37 182V128.905H1907.37V182H1911.37ZM1909.37 130.905H1968.2V126.905H1909.37V130.905ZM1966.2 128.905V182H1970.2V128.905H1966.2ZM1968.2 184H1998.17V180H1968.2V184ZM2000.17 182V52.5H1996.17V182H2000.17ZM1998.17 50.5H1968.2V54.5H1998.17V50.5Z" fill="url(#paint2_linear)"/>
<defs>
<linearGradient id="paint0_linear" x1="0.788947" y1="115.952" x2="1963.85" y2="115.952" gradientUnits="userSpaceOnUse">
<stop stop-color="#A8FF78" stop-opacity="0"/>
<stop offset="0.197917" stop-color="#A8FF78"/>
<stop offset="0.484375" stop-color="#91FFA6" stop-opacity="0"/>
<stop offset="0.765625" stop-color="#78FFD6"/>
<stop offset="1" stop-color="#78FFD6" stop-opacity="0"/>
</linearGradient>
<linearGradient id="paint1_linear" x1="118.789" y1="115.952" x2="2081.85" y2="115.952" gradientUnits="userSpaceOnUse">
<stop offset="0.00520833" stop-color="#F4AA61" stop-opacity="0"/>
<stop offset="0.15625" stop-color="#F4AA61"/>
<stop offset="0.505208" stop-color="#F47575" stop-opacity="0"/>
<stop offset="0.848958" stop-color="#F3338D"/>
<stop offset="1" stop-color="#F3338D" stop-opacity="0"/>
</linearGradient>
<linearGradient id="paint2_linear" x1="1871" y1="3" x2="1871" y2="229" gradientUnits="userSpaceOnUse">
<stop stop-color="white"/>
<stop offset="1" stop-color="#020D29" stop-opacity="0"/>
</linearGradient>
</defs>
</svg>
