<svg width="70" height="70" viewBox="0 0 70 70" fill="none" xmlns="http://www.w3.org/2000/svg">
<path fill-rule="evenodd" clip-rule="evenodd" d="M29.9722 -6.10352e-05H39.9631C56.5168 -6.10352e-05 69.9362 13.4311 69.9362 29.9999V39.9999C69.9362 56.5682 56.5168 69.9998 39.9631 69.9998H29.9722C13.4185 69.9998 -0.000961304 56.5682 -0.000961304 39.9999V29.9999C-0.000961304 13.4311 13.4185 -6.10352e-05 29.9722 -6.10352e-05Z" fill="#736EFE"/>
<path fill-rule="evenodd" clip-rule="evenodd" d="M29.9722 -6.10352e-05H39.9631C56.5168 -6.10352e-05 69.9362 13.4311 69.9362 29.9999V39.9999C69.9362 56.5682 56.5168 69.9998 39.9631 69.9998H29.9722C13.4185 69.9998 -0.000961304 56.5682 -0.000961304 39.9999V29.9999C-0.000961304 13.4311 13.4185 -6.10352e-05 29.9722 -6.10352e-05Z" fill="url(#paint0_linear_117:32)"/>
<path opacity="0.4" d="M35.0333 18.3333C25.35 18.3333 18.3333 26.2333 18.3333 35C18.3333 37.8 19.15 40.6833 20.5833 43.3167C20.85 43.75 20.8833 44.3 20.7 44.8167L19.5833 48.55C19.3333 49.45 20.1 50.1167 20.95 49.85L24.3167 48.85C25.2333 48.55 25.95 48.9333 26.8017 49.45C29.235 50.8833 32.2667 51.6167 35 51.6167C43.2667 51.6167 51.6667 45.2333 51.6667 34.95C51.6667 26.0833 44.5 18.3333 35.0333 18.3333" fill="white"/>
<path fill-rule="evenodd" clip-rule="evenodd" d="M34.9675 37.1502C33.7842 37.1335 32.8342 36.1835 32.8342 35.0002C32.8342 33.8335 33.8008 32.8668 34.9675 32.8835C36.1508 32.8835 37.1008 33.8335 37.1008 35.0168C37.1008 36.1835 36.1508 37.1502 34.9675 37.1502ZM27.2835 37.1501C26.1168 37.1501 25.1502 36.1834 25.1502 35.0167C25.1502 33.8334 26.1002 32.8834 27.2835 32.8834C28.4668 32.8834 29.4168 33.8334 29.4168 35.0167C29.4168 36.1834 28.4668 37.1334 27.2835 37.1501ZM40.5172 35.0168C40.5172 36.1835 41.4672 37.1502 42.6505 37.1502C43.8338 37.1502 44.7838 36.1835 44.7838 35.0168C44.7838 33.8335 43.8338 32.8835 42.6505 32.8835C41.4672 32.8835 40.5172 33.8335 40.5172 35.0168Z" fill="white"/>
<defs>
<linearGradient id="paint0_linear_117:32" x1="40.3761" y1="112.413" x2="112.385" y2="29.6507" gradientUnits="userSpaceOnUse">
<stop stop-color="#736EFE"/>
<stop offset="1" stop-color="#59E1FF"/>
</linearGradient>
</defs>
</svg>
