<svg width="72" height="72" viewBox="0 0 72 72" fill="none" xmlns="http://www.w3.org/2000/svg">
<path fill-rule="evenodd" clip-rule="evenodd" d="M30.9721 0.999936H40.9632C57.5169 0.999936 70.9363 14.4311 70.9363 30.9999V40.9999C70.9363 57.5682 57.5169 70.9998 40.9632 70.9998H30.9721C14.4184 70.9998 0.999039 57.5682 0.999039 40.9999V30.9999C0.999039 14.4311 14.4184 0.999936 30.9721 0.999936Z" fill="#FF4361"/>
<path fill-rule="evenodd" clip-rule="evenodd" d="M30.9721 0.999936H40.9632C57.5169 0.999936 70.9363 14.4311 70.9363 30.9999V40.9999C70.9363 57.5682 57.5169 70.9998 40.9632 70.9998H30.9721C14.4184 70.9998 0.999039 57.5682 0.999039 40.9999V30.9999C0.999039 14.4311 14.4184 0.999936 30.9721 0.999936Z" fill="url(#paint0_linear_104:62)"/>
<path d="M35.9947 41.291C28.8063 41.291 22.6663 42.4243 22.6663 46.9577C22.6663 51.4927 28.768 52.666 35.9947 52.666C43.183 52.666 49.323 51.5343 49.323 46.9993C49.323 42.4643 43.223 41.291 35.9947 41.291" fill="white"/>
<path opacity="0.4" d="M35.9947 36.9728C40.8913 36.9728 44.8147 33.0478 44.8147 28.1528C44.8147 23.2578 40.8913 19.3328 35.9947 19.3328C31.0997 19.3328 27.1747 23.2578 27.1747 28.1528C27.1747 33.0478 31.0997 36.9728 35.9947 36.9728" fill="white"/>
<defs>
<linearGradient id="paint0_linear_104:62" x1="41.3761" y1="113.413" x2="113.385" y2="30.6507" gradientUnits="userSpaceOnUse">
<stop stop-color="#FF5858"/>
<stop offset="1" stop-color="#F857A6"/>
</linearGradient>
</defs>
</svg>
