<svg width="70" height="70" viewBox="0 0 70 70" fill="none" xmlns="http://www.w3.org/2000/svg">
<path fill-rule="evenodd" clip-rule="evenodd" d="M29.973 6.10352e-05H39.9641C56.5177 6.10352e-05 69.9371 13.4312 69.9371 30V40C69.9371 56.5683 56.5177 70 39.9641 70H29.973C13.4194 70 0 56.5683 0 40V30C0 13.4312 13.4194 6.10352e-05 29.973 6.10352e-05Z" fill="url(#paint0_linear_104:56)"/>
<path fill-rule="evenodd" clip-rule="evenodd" d="M29.973 6.10352e-05H39.9641C56.5177 6.10352e-05 69.9371 13.4312 69.9371 30V40C69.9371 56.5683 56.5177 70 39.9641 70H29.973C13.4194 70 0 56.5683 0 40V30C0 13.4312 13.4194 6.10352e-05 29.973 6.10352e-05Z" fill="#736EFE"/>
<path opacity="0.4" d="M18.3337 33.1562C18.417 36.5658 18.6503 42.3977 18.6837 43.0408C18.802 44.416 19.4037 45.8058 20.3403 46.7858C21.6437 48.161 23.2487 48.775 25.487 48.775C28.5803 48.7895 31.9903 48.7895 35.302 48.7895C38.627 48.7895 41.8537 48.7895 44.5787 48.775C46.7853 48.775 48.4403 48.145 49.727 46.7858C50.6637 45.8058 51.2653 44.4014 51.3503 43.0408C51.3837 42.4998 51.5503 36.1691 51.6503 33.1562H18.3337Z" fill="white"/>
<path d="M33.7423 39.4353V41.3224C33.7423 41.9262 34.3023 42.4162 34.9923 42.4162C35.6823 42.4162 36.2423 41.9262 36.2423 41.3224V39.4353C36.2423 38.8316 35.6823 38.3416 34.9923 38.3416C34.3023 38.3416 33.7423 38.8316 33.7423 39.4353" fill="white"/>
<path fill-rule="evenodd" clip-rule="evenodd" d="M32.0188 38.2281C31.8522 38.7575 31.2705 39.0959 30.6405 39.0229C26.3888 38.5038 22.3255 37.184 18.8955 35.2021C18.5438 35.0009 18.3338 34.6567 18.3338 34.2892V29.2346C18.3338 26.1721 21.1872 23.6813 24.6955 23.6813H27.9738C28.2872 21.5638 30.3372 19.9173 32.8405 19.9173H37.1438C39.6455 19.9173 41.6972 21.5638 42.0105 23.6813H45.3055C48.8038 23.6813 51.6505 26.1721 51.6505 29.2346V34.2892C51.6505 34.6567 51.4388 34.9994 51.0905 35.2021C47.6538 37.1927 43.5738 38.5184 39.2938 39.0361C39.2355 39.0434 39.1788 39.0463 39.1222 39.0463C38.5572 39.0463 38.0522 38.7123 37.9105 38.2223C37.5738 37.0615 36.3688 36.2492 34.9838 36.2492C33.5805 36.2492 32.3888 37.044 32.0188 38.2281ZM37.1438 22.1048H32.8405C31.7188 22.1048 30.7822 22.7756 30.5022 23.6813H39.4805C39.2005 22.7756 38.2638 22.1048 37.1438 22.1048Z" fill="white"/>
<defs>
<linearGradient id="paint0_linear_104:56" x1="40.377" y1="112.413" x2="112.386" y2="29.6509" gradientUnits="userSpaceOnUse">
<stop stop-color="#736EFE"/>
<stop offset="1" stop-color="#59E1FF"/>
</linearGradient>
</defs>
</svg>
