<svg width="72" height="72" viewBox="0 0 72 72" fill="none" xmlns="http://www.w3.org/2000/svg">
<path fill-rule="evenodd" clip-rule="evenodd" d="M30.9722 0.999936H40.9631C57.5168 0.999936 70.9362 14.4311 70.9362 30.9999V40.9999C70.9362 57.5682 57.5168 70.9998 40.9631 70.9998H30.9722C14.4185 70.9998 0.999039 57.5682 0.999039 40.9999V30.9999C0.999039 14.4311 14.4185 0.999936 30.9722 0.999936Z" fill="#FF4361"/>
<path fill-rule="evenodd" clip-rule="evenodd" d="M30.9722 0.999936H40.9631C57.5168 0.999936 70.9362 14.4311 70.9362 30.9999V40.9999C70.9362 57.5682 57.5168 70.9998 40.9631 70.9998H30.9722C14.4185 70.9998 0.999039 57.5682 0.999039 40.9999V30.9999C0.999039 14.4311 14.4185 0.999936 30.9722 0.999936Z" fill="url(#paint0_linear_108:85)"/>
<path opacity="0.4" d="M36.0333 19.3333C26.35 19.3333 19.3333 27.2333 19.3333 36C19.3333 38.8 20.15 41.6833 21.5833 44.3167C21.85 44.75 21.8833 45.3 21.7 45.8167L20.5833 49.55C20.3333 50.45 21.1 51.1167 21.95 50.85L25.3167 49.85C26.2333 49.55 26.95 49.9333 27.8017 50.45C30.235 51.8833 33.2667 52.6167 36 52.6167C44.2667 52.6167 52.6667 46.2333 52.6667 35.95C52.6667 27.0833 45.5 19.3333 36.0333 19.3333" fill="white"/>
<path fill-rule="evenodd" clip-rule="evenodd" d="M35.9675 38.1502C34.7842 38.1335 33.8342 37.1835 33.8342 36.0002C33.8342 34.8335 34.8008 33.8668 35.9675 33.8835C37.1508 33.8835 38.1008 34.8335 38.1008 36.0168C38.1008 37.1835 37.1508 38.1502 35.9675 38.1502ZM28.2835 38.1501C27.1168 38.1501 26.1502 37.1834 26.1502 36.0167C26.1502 34.8334 27.1002 33.8834 28.2835 33.8834C29.4668 33.8834 30.4168 34.8334 30.4168 36.0167C30.4168 37.1834 29.4668 38.1334 28.2835 38.1501ZM41.5172 36.0168C41.5172 37.1835 42.4672 38.1502 43.6505 38.1502C44.8338 38.1502 45.7838 37.1835 45.7838 36.0168C45.7838 34.8335 44.8338 33.8835 43.6505 33.8835C42.4672 33.8835 41.5172 34.8335 41.5172 36.0168Z" fill="white"/>
<defs>
<linearGradient id="paint0_linear_108:85" x1="41.3761" y1="113.413" x2="113.385" y2="30.6507" gradientUnits="userSpaceOnUse">
<stop stop-color="#00D1FF"/>
<stop offset="1" stop-color="#59E1FF"/>
</linearGradient>
</defs>
</svg>
