<svg width="70" height="70" viewBox="0 0 70 70" fill="none" xmlns="http://www.w3.org/2000/svg">
<path fill-rule="evenodd" clip-rule="evenodd" d="M29.9721 -6.10352e-05H39.9632C56.5169 -6.10352e-05 69.9363 13.4311 69.9363 29.9999V39.9999C69.9363 56.5682 56.5169 69.9998 39.9632 69.9998H29.9721C13.4184 69.9998 -0.000961304 56.5682 -0.000961304 39.9999V29.9999C-0.000961304 13.4311 13.4184 -6.10352e-05 29.9721 -6.10352e-05Z" fill="#736EFE"/>
<path fill-rule="evenodd" clip-rule="evenodd" d="M29.9721 -6.10352e-05H39.9632C56.5169 -6.10352e-05 69.9363 13.4311 69.9363 29.9999V39.9999C69.9363 56.5682 56.5169 69.9998 39.9632 69.9998H29.9721C13.4184 69.9998 -0.000961304 56.5682 -0.000961304 39.9999V29.9999C-0.000961304 13.4311 13.4184 -6.10352e-05 29.9721 -6.10352e-05Z" fill="url(#paint0_linear_104:62)"/>
<path d="M34.9947 40.291C27.8063 40.291 21.6663 41.4243 21.6663 45.9577C21.6663 50.4927 27.768 51.666 34.9947 51.666C42.183 51.666 48.323 50.5343 48.323 45.9993C48.323 41.4643 42.223 40.291 34.9947 40.291" fill="white"/>
<path opacity="0.4" d="M34.9947 35.9728C39.8913 35.9728 43.8147 32.0478 43.8147 27.1528C43.8147 22.2578 39.8913 18.3328 34.9947 18.3328C30.0997 18.3328 26.1747 22.2578 26.1747 27.1528C26.1747 32.0478 30.0997 35.9728 34.9947 35.9728" fill="white"/>
<defs>
<linearGradient id="paint0_linear_104:62" x1="40.3761" y1="112.413" x2="112.385" y2="29.6507" gradientUnits="userSpaceOnUse">
<stop stop-color="#736EFE"/>
<stop offset="1" stop-color="#59E1FF"/>
</linearGradient>
</defs>
</svg>
