<svg width="70" height="70" viewBox="0 0 70 70" fill="none" xmlns="http://www.w3.org/2000/svg">
<rect width="70" height="70" rx="30" fill="#736EFE"/>
<path d="M25.8107 53.3913H32.8763V45.2631H37.1233V53.3913H44.1888V17H25.8107V53.3913ZM36.289 21.2887H40.5359V26.0666H36.289V21.2887ZM36.289 28.9675H40.5359V33.7453H36.289V28.9675ZM36.289 36.646H40.5359V41.4239H36.289V36.646ZM29.4636 21.2887H33.7105V26.0666H29.4636V21.2887ZM29.4636 28.9675H33.7105V33.7453H29.4636V28.9675ZM29.4636 36.646H33.7105V41.4239H29.4636V36.646Z" fill="white"/>
<path opacity="0.4" d="M45.8384 20.26V45.9915H48.5669V53.3914H54.9995V20.26H45.8384ZM51.674 42.4962H47.8074V38.1464H51.6739L51.674 42.4962ZM51.674 35.5052H47.8074V31.1555H51.6739L51.674 35.5052ZM51.674 28.5144H47.8074V24.1647H51.6739L51.674 28.5144Z" fill="white"/>
<path opacity="0.4" d="M15 53.3914H21.4326V45.9915H24.1611V20.26H15V53.3914ZM18.3257 24.1647H22.1921V28.5144H18.3257V24.1647ZM18.3257 31.1555H22.1921V35.5052H18.3257V31.1555ZM18.3257 38.1462H22.1921V42.4959H18.3257V38.1462Z" fill="white"/>
</svg>
