<svg width="24" height="24" viewBox="0 0 24 24" fill="none" xmlns="http://www.w3.org/2000/svg">
<path opacity="0.4" d="M14.4183 5.48994C13.9423 5.402 13.5051 5.70579 13.4144 6.17047C13.3238 6.63515 13.6285 7.08884 14.0916 7.17978C15.4859 7.45159 16.5625 8.53085 16.8353 9.92989V9.93089C16.913 10.3336 17.2676 10.6264 17.6759 10.6264C17.7307 10.6264 17.7854 10.6214 17.8412 10.6114C18.3043 10.5185 18.609 10.0658 18.5184 9.60012C18.1111 7.51055 16.5027 5.89666 14.4183 5.48994Z" fill="white"/>
<path opacity="0.4" d="M14.3561 2.00793C14.133 1.97595 13.9089 2.04191 13.7306 2.18381C13.5474 2.32771 13.4329 2.53557 13.408 2.76841C13.3552 3.23908 13.6948 3.66479 14.1649 3.71776C17.4065 4.07951 19.9261 6.60477 20.2906 9.85654C20.3394 10.2922 20.7049 10.621 21.1411 10.621C21.174 10.621 21.2059 10.619 21.2387 10.615C21.4668 10.59 21.67 10.4771 21.8134 10.2972C21.9558 10.1174 22.0205 9.89351 21.9946 9.66467C21.5405 5.60746 18.4004 2.45862 14.3561 2.00793Z" fill="white"/>
<path d="M17.6049 14.673C16.9566 14.5351 16.4437 14.8349 15.9895 15.0967C15.5245 15.3666 14.6391 16.0811 14.1332 15.8972C11.5379 14.8339 9.0969 12.5705 8.04025 9.97626C7.85402 9.45961 8.56808 8.57322 8.83598 8.10554C9.0979 7.65185 9.39269 7.13521 9.25824 6.48565C9.13674 5.90106 7.56521 3.90942 7.00949 3.3648C6.64201 3.00505 6.26755 2.80718 5.88213 2.7742C4.4331 2.71325 2.81476 4.63892 2.53092 5.09961C1.81885 6.08193 1.82383 7.38903 2.54287 8.97395C4.27574 13.231 10.8298 19.6556 15.1201 21.4464C15.9109 21.8151 16.6359 22 17.2862 22C17.9226 22 18.4893 21.8231 18.9762 21.4724C19.3427 21.2615 21.3565 19.5697 21.3027 18.0877C21.2718 17.7099 21.0736 17.3322 20.7171 16.9665C20.1733 16.4078 18.1875 14.7959 17.6049 14.673Z" fill="white"/>
</svg>
