<?xml version="1.0" encoding="utf-8"?>
<!-- Generator: Adobe Illustrator 22.0.1, SVG Export Plug-In . SVG Version: 6.00 Build 0)  -->
<svg version="1.1" id="Слой_1" xmlns="http://www.w3.org/2000/svg" xmlns:xlink="http://www.w3.org/1999/xlink" x="0px" y="0px"
	 viewBox="0 0 2429.6 1848" style="enable-background:new 0 0 2429.6 1848;" xml:space="preserve">
<style type="text/css">
	.st0{opacity:0.95;fill:url(#SVGID_1_);}
	.st1{fill:#96BFE6;}
	.st2{opacity:0.95;fill:url(#SVGID_2_);}
	.st3{fill:#4598E6;}
	.st4{fill:url(#SVGID_3_);}
	.st5{opacity:0.95;fill:url(#SVGID_4_);}
	.st6{fill:url(#SVGID_5_);}
	.st7{fill:url(#SVGID_6_);}
	.st8{fill:url(#SVGID_7_);}
	.st9{fill:url(#SVGID_8_);}
	.st10{fill:url(#SVGID_9_);}
	.st11{fill:#FFFFFF;}
	.st12{fill:url(#SVGID_10_);}
	.st13{fill:url(#SVGID_11_);}
	.st14{opacity:0.95;fill:url(#SVGID_12_);}
	.st15{fill:#E65353;}
	.st16{fill:#EEA987;}
	.st17{fill:#D98B52;}
	.st18{fill:#B84343;}
	.st19{fill:#C78D71;}
	.st20{fill:#EEA886;}
	.st21{fill:#16202E;}
	.st22{fill:#FAA146;}
	.st23{fill:#8E4F3A;}
	.st24{fill:#633029;}
	.st25{fill:#323657;}
	.st26{fill:#FCCCA2;}
	.st27{fill:#E55353;}
	.st28{fill:#A77860;}
	.st29{fill:#EBEEFF;}
	.st30{fill:#353A3D;}
	.st31{fill:#81807E;}
	.st32{fill:#2D3133;}
	.st33{fill:#DECBC4;}
	.st34{fill:#495055;}
	.st35{fill:#252E3B;}
	.st36{fill:#3C4145;}
	.st37{fill:#B3A5A0;}
	.st38{fill:#51565C;}
	.st39{fill:#F5E2D9;}
	.st40{fill:#AD9F99;}
	.st41{fill:#69737A;}
	.st42{fill:#181929;}
	.st43{fill:#22243B;}
	.st44{fill:#292C47;}
	.st45{fill:#CFBEB6;}
	.st46{fill:#3A3F47;}
	.st47{fill:#23263D;}
	.st48{fill:#D44040;}
	.st49{fill:#EDDAD3;}
	.st50{fill:#8F5C28;}
	.st51{opacity:0.95;}
	.st52{fill:url(#SVGID_13_);}
	.st53{fill:url(#SVGID_14_);}
	.st54{fill:url(#SVGID_15_);}
	.st55{fill:url(#SVGID_16_);}
	.st56{fill:url(#SVGID_17_);}
	.st57{fill:url(#SVGID_18_);}
	.st58{fill:url(#SVGID_19_);}
	.st59{fill:url(#SVGID_20_);}
	.st60{fill:url(#SVGID_21_);}
	.st61{fill:url(#SVGID_22_);}
	.st62{fill:url(#SVGID_23_);}
</style>
<g>
	<linearGradient id="SVGID_1_" gradientUnits="userSpaceOnUse" x1="1165.3813" y1="1291.0178" x2="1124.1924" y2="544.4565">
		<stop  offset="0" style="stop-color:#D1D7E0"/>
		<stop  offset="1" style="stop-color:#EBEBFF"/>
	</linearGradient>
	<path class="st0" d="M1332.8,871.9H922.6c-32.4,0-58.7-26.3-58.7-58.7V403.1c0-32.4,26.3-58.7,58.7-58.7h410.1
		c32.4,0,58.7,26.3,58.7,58.7v410.1C1391.4,845.7,1365.2,871.9,1332.8,871.9z"/>
	<rect x="1005.6" y="751.8" class="st1" width="244.2" height="12.1"/>
	<rect x="1040.2" y="789.9" class="st1" width="175" height="12.1"/>
	<linearGradient id="SVGID_2_" gradientUnits="userSpaceOnUse" x1="1839.1606" y1="1499.1506" x2="1839.1606" y2="730.5548">
		<stop  offset="0" style="stop-color:#D1D7E0"/>
		<stop  offset="1" style="stop-color:#EBEBFF"/>
	</linearGradient>
	<path class="st2" d="M2131,1374.7h-583.7c-38.2,0-69.1-30.9-69.1-69.1V596.5c0-38.2,30.9-69.1,69.1-69.1H2131
		c38.2,0,69.1,30.9,69.1,69.1v709.1C2200.1,1343.8,2169.2,1374.7,2131,1374.7z"/>
	<g>
		<rect x="1805.5" y="1027.3" class="st3" width="57.3" height="10.6"/>
	</g>
	<g>
		<rect x="1588.2" y="1124.4" class="st1" width="333.2" height="20.5"/>
		<rect x="1588.2" y="1223" class="st1" width="269.4" height="20.5"/>
		<rect x="1588.2" y="1173.7" class="st1" width="157.9" height="20.5"/>
	</g>
	<g>
		<path class="st3" d="M2008.5,611.9v10.4h61.1v57.3h10.4v-67.7H2008.5z M1593.9,679.6h10.4v-57.3h61.1v-10.4h-71.4V679.6z
			 M2069.5,975.2v57.3h-61.1v10.4h71.4v-67.7H2069.5z M1604.3,975.2h-10.4v67.7h71.4v-10.4h-61.1V975.2z"/>
	</g>
	<g>
		<g>
			<path class="st3" d="M2047.6,1245.1c-33.7,0-61.1-27.4-61.1-61.1c0-33.7,27.4-61.1,61.1-61.1c33.7,0,61.1,27.4,61.1,61.1
				C2108.6,1217.7,2081.2,1245.1,2047.6,1245.1z M2047.6,1134.8c-27.2,0-49.2,22.1-49.2,49.2c0,27.2,22.1,49.2,49.2,49.2
				c27.2,0,49.2-22.1,49.2-49.2C2096.8,1156.8,2074.7,1134.8,2047.6,1134.8z"/>
		</g>
		<g>
			<polygon class="st3" points="2043.7,1208 2015.9,1180.3 2024.3,1171.9 2043.7,1191.3 2070.9,1164.1 2079.2,1172.5 			"/>
		</g>
	</g>
	<linearGradient id="SVGID_3_" gradientUnits="userSpaceOnUse" x1="102.835" y1="1721.2251" x2="2084.2939" y2="1721.2251">
		<stop  offset="5.208330e-03" style="stop-color:#1A2257"/>
		<stop  offset="1" style="stop-color:#5E60F2"/>
	</linearGradient>
	<path class="st4" d="M2084.3,1721.2c0,25.6-443.6,46.4-990.7,46.4c-547.2,0-990.7-20.8-990.7-46.4c0-25.6,443.6-46.4,990.7-46.4
		C1640.7,1674.9,2084.3,1695.6,2084.3,1721.2z"/>
	<linearGradient id="SVGID_4_" gradientUnits="userSpaceOnUse" x1="1127.709" y1="1024.5261" x2="1127.709" y2="462.5229">
		<stop  offset="0" style="stop-color:#D1D7E0"/>
		<stop  offset="1" style="stop-color:#EBEBFF"/>
	</linearGradient>
	<rect x="949.9" y="364.2" class="st5" width="355.5" height="305"/>
	<g>
		<g>
			
				<linearGradient id="SVGID_5_" gradientUnits="userSpaceOnUse" x1="-3989.5498" y1="1346.3564" x2="-3862.1611" y2="1346.3564" gradientTransform="matrix(-1 0 0 1 -3437.543 0)">
				<stop  offset="5.208330e-03" style="stop-color:#1A2257"/>
				<stop  offset="1" style="stop-color:#5E60F2"/>
			</linearGradient>
			<path class="st6" d="M427.4,1586c29.6-20.8,64.2-165.9,66.3-252.3c1.1-44.3,14.1-62.7,25.7-79c11-15.6,20.6-29,15-59.8
				c-10.6-58.9,17.3-84.4,17.6-84.6l-3.2-3.7c-1.2,1.1-30.3,27.3-19.2,89.2c5.2,28.8-3.4,40.9-14.2,56.1
				c-11.4,16-25.5,35.9-26.6,81.7c-2.2,92.7-37.6,229.7-64.2,248.4L427.4,1586z"/>
		</g>
		<g>
			
				<linearGradient id="SVGID_6_" gradientUnits="userSpaceOnUse" x1="-3890.5732" y1="1451.5096" x2="-3658.9854" y2="1451.5096" gradientTransform="matrix(-1 0 0 1 -3437.543 0)">
				<stop  offset="5.208330e-03" style="stop-color:#1A2257"/>
				<stop  offset="1" style="stop-color:#5E60F2"/>
			</linearGradient>
			<path class="st7" d="M365.4,1543.7c-2.8-6.3-5.7-12.9-9-19.8c-16.9-35.7-31.9-41.6-56.7-51.3c-6.1-2.4-12.9-5.1-20.5-8.5
				c-35.5-16-28.7-39.5-22.6-60.3c0.8-2.9,1.7-5.8,2.4-8.7c3.1-12.2-2.9-18.3-12-27.6c-6.8-6.9-15.2-15.5-21.7-29
				c-7.1-14.8-3.5-22.8,0.8-26.8c9-8.5,29.8-7,49.4,3.7c6.1,3.3,11.1,8.6,16.4,14.2c12.5,13.1,28.1,29.4,67.5,29.6
				c22.5,0.1,34.8,3.2,41.1,10.4c7.2,8.1,5.9,20.3,4,37.1c-0.7,5.8-1.4,12.4-1.8,19.6c-2.7,42.5,22.4,73.2,22.7,73.5
				c15,17.9,33.5,54.9,25.5,77.8c-3.3,9.6-10.8,15.6-22.2,17.9c-4.5,0.9-8.7,1.4-12.5,1.4C388.8,1596.8,378.7,1574,365.4,1543.7z
				 M273.4,1319.7c-17.5-9.6-36.3-11.5-43.7-4.5c-5.6,5.3-3,14.5,0.2,21.2c6.1,12.8,13.9,20.7,20.7,27.7c9.5,9.7,17,17.4,13.2,32.3
				c-0.7,2.9-1.6,5.9-2.5,8.8c-6,20.7-11.8,40.2,19.9,54.5c7.4,3.3,14.3,6,20.3,8.4c25,9.8,41.6,16.3,59.3,53.8
				c3.3,7,6.2,13.5,9,19.9c15.3,34.7,24.6,55.7,58,48.9c9.6-1.9,15.8-6.9,18.6-14.7c7-20.1-9.8-55.3-24.6-73
				c-1.1-1.3-26.6-32.4-23.8-77c0.5-7.3,1.2-13.9,1.9-19.8c1.7-15.6,3-26.8-2.8-33.3c-5.3-5.9-16.9-8.6-37.5-8.7
				c-41.5-0.2-57.8-17.3-71-31.1C283.3,1327.5,278.8,1322.7,273.4,1319.7L273.4,1319.7z"/>
		</g>
		<g>
			
				<linearGradient id="SVGID_7_" gradientUnits="userSpaceOnUse" x1="-3870.7764" y1="1485.1875" x2="-3696.9541" y2="1485.1875" gradientTransform="matrix(-1 0 0 1 -3437.543 0)">
				<stop  offset="5.208330e-03" style="stop-color:#1A2257"/>
				<stop  offset="1" style="stop-color:#5E60F2"/>
			</linearGradient>
			<path class="st8" d="M428.3,1625.1l4.9-0.3c-0.2-4.6-6.4-112.9-49.9-144.5c-47.7-34.8-62.7-72.1-69.9-97.2
				c-8.4-29.5-51.4-37.4-53.2-37.8l-0.9,4.8c0.4,0.1,41.8,7.7,49.4,34.3c7.4,25.8,22.8,64.2,71.7,99.8
				C422.1,1514.5,428.3,1624,428.3,1625.1z"/>
		</g>
		<g>
			
				<linearGradient id="SVGID_8_" gradientUnits="userSpaceOnUse" x1="-4080.8906" y1="1308.6116" x2="-3819.8665" y2="1308.6116" gradientTransform="matrix(-1 0 0 1 -3437.543 0)">
				<stop  offset="5.208330e-03" style="stop-color:#1A2257"/>
				<stop  offset="1" style="stop-color:#5E60F2"/>
			</linearGradient>
			<path class="st9" d="M420.1,1649.4c-10.2-5.1-9.9-25.6-9.3-56.6c0.7-39.2,1.7-92.8-18.8-142.2c-21.8-52.4-2.4-67.7,16.4-82.6
				c21-16.6,40.9-32.3,2.8-103c-17.5-32.5-23.1-54.5-17.5-69.2c5.5-14.5,21-20.2,37.4-26.2c28.3-10.3,60.3-22.1,56.2-81.9
				c-1.3-18.3,0.9-29.6,6.8-35.5c6.4-6.4,15.9-5.7,26.8-4.9c16.5,1.2,35.2,2.6,51.5-18.7c1.7-5.3,17.3-52.7,35.9-60.9
				c3.9-1.7,7.8-1.7,11.4,0.1l0,0c12.9,6.2,20.3,13.5,22.8,22.3c4.3,15.4-7,32.8-20,52.9c-20.5,31.6-43.8,67.5-19.7,110.2
				c31.9,56.4,15.1,76.2-8.3,103.5c-13.4,15.7-28.5,33.4-38.7,62.3c-8.2,23.3,5.8,45.5,19.2,66.9c16.9,26.9,34.3,54.8-2.4,78.9
				c-60.7,39.9-120.7,170.3-121.3,171.6l-0.2,0.5l-0.5,0.4c-11.2,8.8-19.3,12.9-25.5,12.9C423.3,1650.5,421.6,1650.2,420.1,1649.4z
				 M569.9,1461c32.7-21.5,18-45,1-72.2c-13.4-21.4-28.6-45.7-19.7-71.1c10.4-29.8,25.9-47.9,39.6-63.9c22.9-26.8,38-44.5,7.7-97.9
				c-25.6-45.3-0.4-84.1,19.8-115.2c12.4-19.1,23.2-35.7,19.4-48.9c-2.1-7.4-8.7-13.7-20.2-19.2l0,0c-2.3-1.1-4.7-1.1-7.3,0
				c-17.3,7.5-33.2,57.7-33.3,58.3l-0.1,0.4l-0.3,0.3c-18,23.7-39.1,22.2-56,21c-10.1-0.7-18.1-1.3-23,3.5
				c-4.8,4.7-6.5,15.1-5.4,31.7c4.4,63.5-31,76.4-59.4,86.8c-16,5.8-29.7,10.9-34.5,23.3c-5,13.3,0.4,34,17.2,65.1
				c40.1,74.4,17.7,92.1-4,109.2c-18.2,14.3-35.3,27.8-14.9,76.8c20.9,50.3,19.9,104.5,19.2,144.1c-0.5,27-0.9,48.4,6.6,52.1
				c4.4,2.2,12.7-1.5,24.8-10.9C451.9,1623.6,509.4,1500.8,569.9,1461z"/>
		</g>
		<linearGradient id="SVGID_9_" gradientUnits="userSpaceOnUse" x1="487.9312" y1="1593.5404" x2="335.9547" y2="1137.6094">
			<stop  offset="5.208330e-03" style="stop-color:#1A2257"/>
			<stop  offset="1" style="stop-color:#5E60F2"/>
		</linearGradient>
		<path class="st10" d="M324.3,1081.2c30.9-10.6,24.5,49,37.5,93c13.1,44.1,145.2,19.2,89.8,129.5c-55.5,110.3,70.2,36.9,32.6,133.2
			c-37.5,96.3-3.3,199.2-44.1,173.1c-40.8-26.2-22.9-147.4-65.3-161.8c-42.4-14.4-49.4-31.2-7.3-70.4s-110.1-78-72.5-157.1
			C332.4,1141.6,288.6,1093.4,324.3,1081.2z"/>
		<g>
			<path class="st11" d="M425.9,1603.6c3.9-16.5,37.1-161.5,6.1-179.1c-27.3-15.5-26.6-75.6-22.4-132.3
				c3.8-50.2-60.8-73.7-63.5-74.7l-1.6,4.6c0.6,0.2,63.7,23.2,60.3,69.7c-4.4,58.3-4.8,120.1,24.8,136.9
				c23.5,13.3,1.9,129.9-8.5,173.7L425.9,1603.6z"/>
		</g>
		<linearGradient id="SVGID_10_" gradientUnits="userSpaceOnUse" x1="370.3475" y1="1891.3003" x2="446.3361" y2="1563.728">
			<stop  offset="0" style="stop-color:#C9C4C1"/>
			<stop  offset="1" style="stop-color:#FFF6DE"/>
		</linearGradient>
		<polygon class="st12" points="542.5,1552 498.3,1719.3 399.8,1719.3 355.7,1552 		"/>
		
			<linearGradient id="SVGID_11_" gradientUnits="userSpaceOnUse" x1="336.1234" y1="1635.6729" x2="522.9242" y2="1635.6729" gradientTransform="matrix(1 0 0 1 19.5338 0)">
			<stop  offset="0" style="stop-color:#C9C4C1"/>
			<stop  offset="1" style="stop-color:#FFF6DE"/>
		</linearGradient>
		<path class="st13" d="M542.5,1552c0,0-97.1,18.2-97.1,167.4h-45.6L355.7,1552H542.5z"/>
	</g>
	<linearGradient id="SVGID_12_" gradientUnits="userSpaceOnUse" x1="1637.0171" y1="549.3976" x2="1637.0171" y2="232.8139">
		<stop  offset="0" style="stop-color:#D1D7E0"/>
		<stop  offset="1" style="stop-color:#EBEBFF"/>
	</linearGradient>
	<path class="st14" d="M1782.5,498.2h-291.1c-26.6,0-48.2-21.6-48.2-48.2V197.4c0-26.6,21.6-48.2,48.2-48.2h291.1
		c26.6,0,48.2,21.6,48.2,48.2v252.6C1830.8,476.6,1809.2,498.2,1782.5,498.2z"/>
	<g>
		<rect x="1620.2" y="432.1" class="st3" width="30.7" height="5.7"/>
	</g>
	<g>
		<path class="st3" d="M1729.1,212.3v5.6h32.8v30.8h5.6v-36.3H1729.1z M1506.6,248.6h5.6v-30.8h32.8v-5.6h-38.3V248.6z
			 M1761.9,407.3v30.8h-32.8v5.6h38.3v-36.3H1761.9z M1512.1,407.3h-5.6v36.3h38.3v-5.6h-32.8V407.3z"/>
	</g>
	<g>
		<rect x="1107.2" y="692.9" class="st3" width="41.1" height="7.6"/>
	</g>
	<g>
		<path class="st3" d="M1250.7,399.3v7.4h43.8v41.1h7.4v-48.5H1250.7z M953.5,447.8h7.4v-41.1h43.8v-7.4h-51.2V447.8z M1294.5,659.8
			v41.1h-43.8v7.4h51.2v-48.5H1294.5z M960.9,659.8h-7.4v48.5h51.2v-7.4h-43.8V659.8z"/>
	</g>
	<g>
		<g>
			<path class="st15" d="M2057.2,932.6h-68.5c-4.5-32.8-10-70.2-10-70.2s-2.8,30.9-6.1,70.2h-274c-2.5-35.4-5.5-61.8-6.6-62.4
				c-1.6-0.8-11.3,30.6-19.5,62.4h-74.2c19.1-82.2,54.7-214.1,75.2-222c29.3-11.3,148.7-48.1,148.7-48.1h68.2
				c0,0,121.1,34.6,132.4,72.1C2031.7,764.6,2051.4,863.3,2057.2,932.6z"/>
		</g>
		<g>
			<path class="st16" d="M1859.4,441.4c0,0,63.6,10,54,109.6c-9.7,99.6-65.9,91.4-69.6,91.3c-3.8-0.1-56.4,1.8-60.5-119.8
				C1783.2,522.6,1781.4,432.7,1859.4,441.4z"/>
		</g>
		<g>
			<path class="st16" d="M1889.1,613c0,0-1.7,41,2.2,49.8s-52.5,37.3-87,5.6c0,0,8.3-44.5,6-60.3C1808,592.4,1889.1,613,1889.1,613z
				"/>
		</g>
		<g>
			<path class="st16" d="M1914.3,522.9c0,0,7-7.4,9.5,0.1c2.6,7.5-10.8,41.2-9.9,42.7c0,0-1.3,2.9-2.9,1.3
				C1909.3,565.4,1914.3,522.9,1914.3,522.9z"/>
		</g>
		<g>
			<path class="st16" d="M1784,521.7c0,0-6.8-7.6-9.5-0.1c-2.7,7.5,10,41.4,9.1,42.9c0,0,1.2,2.9,2.9,1.4
				C1788.2,564.3,1784,521.7,1784,521.7z"/>
		</g>
		<g>
			<path class="st17" d="M1914.3,538.2l-9.1,12.2c0,0,0.3-26.7-1.2-30.9c-1.5-4.2-3.7-17-4.9-20c-1.2-3-54.7-18-101.8,4.4
				c0,0,2.1,19.2-2.4,20.9c-4.5,1.7-2.3,31.3-2.3,31.3l-7.5-8.5c0,0-11.5-76.6-8.6-84.6c2.8-8,11.9-56,108.7-27.5
				c0,0,30.2-6.4,36.2,14.4C1927.3,470.8,1914.3,538.2,1914.3,538.2z"/>
		</g>
		<g>
			<path class="st16" d="M1891.3,662.8c0,0,14.4,3.1-45.7,60.6c0,0-42.6-47.1-41.2-55C1805.7,660.6,1891.3,662.8,1891.3,662.8z"/>
		</g>
		<g>
			<polygon class="st18" points="1845.6,723.5 1862,751.5 1910.6,668.9 1889.6,654.3 			"/>
		</g>
		<g>
			<polygon class="st18" points="1845.6,723.5 1805.8,660.2 1783.2,674.7 1823.7,751.5 			"/>
		</g>
		<g>
			<path class="st18" d="M1833.3,898.9c0.5,9.3,0.7,20.8,0.7,33.7h-2.3c0-12.8-0.2-24.2-0.7-33.5c-3.7-70.2,13.3-155.7,13.4-175.8
				l2.2,0.4C1846.5,743.7,1829.6,829,1833.3,898.9z"/>
		</g>
		<path class="st19" d="M1816.3,630.6c0,0,15.1,16,36.5,11.7c21.4-4.3,30.8-14,30.8-14s-8.4,21.1-33.1,23.1
			C1825.8,653.3,1816.3,630.6,1816.3,630.6z"/>
	</g>
	<g>
		<g>
			<g>
				<path class="st20" d="M1078.9,402.1c0,0-0.1,0-0.1,0c-1.4-0.3-3.7-7.2-4.2-8.6c-0.1-0.4-0.3-1.1-0.6-2c-1.8-5.5-6-18.4-4.3-23.4
					c0.5-1.6,1.3-2.5,2.4-2.7c2.3-0.5,4.9,2.4,5,2.6l0.1,0.1l0,0.1c0.6,5.4,3.5,32.6,2.2,33.8C1079.2,402,1079,402.1,1078.9,402.1z
					 M1072.5,365.8c-0.1,0-0.3,0-0.4,0c-0.9,0.2-1.5,1-2,2.3c-1.6,4.8,2.7,18,4.3,23c0.3,1,0.5,1.7,0.6,2c1.1,3.3,2.9,8,3.8,8.2
					c0,0,0,0,0.1,0c0.8-1.1-1-21-2.4-33.3C1076.2,367.8,1074.2,365.8,1072.5,365.8z"/>
			</g>
		</g>
		<g>
			<g>
				<path class="st21" d="M1126.2,293.9c0,0,35-3.7,47.7,30.2c12.6,33.8,24.5,44.9,26,62.7c6,71.9,39.6,55.6,30.1,97.1
					c-9.4,41.4-16,47.7-16,47.7l-80.3-15.7l-81.3,0.3c0,0,31.8-15.9,24.7-49.7c-7.1-33.8-24.7-89.3-14.8-127
					C1072.4,301.5,1105.2,296.7,1126.2,293.9z"/>
			</g>
		</g>
		<g>
			<g>
				<path class="st20" d="M1169,402.1c-0.2,0-0.3-0.1-0.4-0.2c-1.2-1.2,1.6-28.4,2.2-33.8l0-0.1l0.1-0.1c0.1-0.1,2.7-3,5-2.6
					c1.1,0.2,1.9,1.1,2.4,2.7c1.6,4.9-2.5,17.8-4.3,23.4c-0.3,1-0.5,1.7-0.6,2c-0.4,1.4-2.7,8.3-4.2,8.6
					C1169.1,402.1,1169,402.1,1169,402.1z M1171.3,368.2c-1.3,12.3-3.2,32.2-2.4,33.3c0,0,0,0,0.1,0c0.8-0.2,2.7-5,3.8-8.3
					c0.1-0.4,0.3-1.1,0.6-2c1.6-5,5.9-18.3,4.3-23c-0.5-1.4-1.1-2.2-2-2.3C1173.9,365.5,1171.7,367.8,1171.3,368.2z"/>
			</g>
		</g>
		<g>
			<g>
				<path class="st22" d="M1290.9,617.1h-50c-10.4-18.9-18.8-33.7-18.8-33.7s-6.7,12.3-12,33.7h-168.4c-2.6-13.3-2.7-26.1-2.2-35.2
					c0,0-9,16.3-19.4,35.2h-56.6c15-28.1,43.1-79.3,49.5-86c8-8.4,54.5-40.6,87.8-51.1c33.2-10.5,52.1-0.4,52.1-0.4
					s34.1,6.1,65.7,18.7C1231,503.3,1265.3,566.5,1290.9,617.1z"/>
			</g>
		</g>
		<g>
			<g>
				<path class="st23" d="M1130.8,313.6c0,0,46.4,6.7,39.6,75.2c-6.8,68.5-47.7,63.1-50.5,63s-41.1,1.4-44.4-82.2
					C1075.5,369.7,1074,307.9,1130.8,313.6z"/>
			</g>
		</g>
		<g>
			<g>
				<path class="st23" d="M1151.4,439.7c0,0-2.9,35.6,4,46.3c6.9,10.7-5.9,25.2-32.1,20.2c-26.2-5-24.7-19.8-24.7-19.8
					s7.3-22,5.2-39.6C1101.6,429.2,1151.4,439.7,1151.4,439.7z"/>
			</g>
		</g>
		<g>
			<g>
				<path class="st21" d="M1125.5,338.5c0,0,21.7,22.8,31.7,34.3c10.1,11.5,11.2,33.8,11.2,33.8s17-20.7,9.9-44.8
					c-7.1-24.1-23.9-71.1-66.4-56.6c-42.5,14.4-44.1,77.9-39.1,109.4C1072.9,414.5,1092,345,1125.5,338.5z"/>
			</g>
		</g>
		<g>
			<g>
				<path class="st23" d="M1167.7,482.8c0,0-32.2,81.5-51.7,95.7c0,0-25.7-83.1-23.9-95.3C1092.1,483.2,1130.8,468,1167.7,482.8z"/>
			</g>
		</g>
		<g>
			<path class="st21" d="M1099.7,463.1c0,0-57.4,51-42.5,82.9c12.7,27.2,57.8,10.5,50.3-18C1100.1,499.6,1099.7,463.1,1099.7,463.1z
				"/>
		</g>
		<g>
			<path class="st24" d="M1107.2,448.7c0,0,19.8,9.3,39-4.5c0,0-5.3,11-19.5,12.6C1112.5,458.4,1107.2,448.7,1107.2,448.7z"/>
		</g>
	</g>
	<g>
		<g>
			<path class="st25" d="M1616.3,260.2c0,0-19,71.6-23,87.7c-1.2,4.9-5,13.3-9.8,22.8c0,0.1-0.1,0.1-0.1,0.2c-1,2.1-1.5,4-1.8,5.8
				c-0.8,6,1.5,10.7-2.4,17.8l-0.7,3h-37.7c4.4-13.1,10-29.7,14.4-43c3.7-11.3,6.7-20.3,7.5-22.9c2.3-7.8,10.9-32.9,18.1-49.6
				c2.5-5.8,12.3-11.6,20.9-15.7C1609.5,262.6,1616.3,260.2,1616.3,260.2z"/>
		</g>
		<g>
			<path class="st26" d="M1591.1,157.9c0,0-12-77.6,52.3-76.2c64.3,1.4,63.5,39.8,62.3,77.9s-25.8,35.2,2,88.3
				c27.8,53-24.1,53-24.1,53l-40.2-55.3L1591.1,157.9z"/>
		</g>
		<g>
			<path class="st20" d="M1636.4,89.2c0,0-43.6,6.9-45.3,68.8c-1.7,61.9,11.7,75.1,49.9,62.2c38.1-12.9,50.1-77.6,51-87.7
				C1692.8,122.4,1695.1,81.7,1636.4,89.2z"/>
		</g>
		<g>
			<path class="st27" d="M1712.9,304.4c0.2,21.3-24.3,72.2-28.1,88c-0.4,1.8-0.9,3.5-1.4,5.1h-118.9c-0.6-7.3-1.2-13.6-1.5-17.2
				c-0.9-11.6-12.7-36.7-12.3-48.4c0.4-11.9,6.2-22.2,14.4-34.8c2.5-3.9,5.2-7.9,7.9-11.8c8.7-12.7,17.3-24.2,21.5-28.2
				c3.2-2.9,6.1-5.2,8.7-6.9c0,0,0,0,0,0c5.3-3.6,8.9-4.7,8.9-4.7l37.4-6c0,0,23.3,8.5,36.8,11.6
				C1686.3,251.1,1712.5,254.9,1712.9,304.4z"/>
		</g>
		<g>
			<path class="st27" d="M1603.2,250.2l-21.7,34.2l-20,31.6c0-0.2,1.4-4.9,3.6-18.8c0.4-2.6,0.9-5.6,1.4-8.9c0.1-1,0.4-2,0.6-2.9
				c0,0,0,0,0,0C1575.7,265.6,1602.2,250.7,1603.2,250.2C1603.2,250.2,1603.2,250.2,1603.2,250.2z"/>
		</g>
		<g>
			<path class="st20" d="M1665.5,192.2c-3.8,7.1-7.8,51.4-7.8,51.4s-53.3,20.1-47.8,8.7c2.5-5.2,3.2-11.9,3.2-17.7
				c0-4.6-0.3-8.5-0.6-10.8c-0.1-1.2-0.2-1.8-0.2-1.8S1669.2,185.1,1665.5,192.2z"/>
		</g>
		<g>
			<path class="st26" d="M1618.6,133.6c0,0,22.3,36.4,42.7,50.7c20.3,14.3,10,25.8,10,25.8s53.1-111.7,2.6-119.5
				c-50.5-7.7-81.4-8.3-82.8,67.3C1591.1,157.9,1614,133,1618.6,133.6z"/>
		</g>
		<g>
			<path class="st28" d="M1642.9,219.4c-8.2,12.1-29.8,15.3-29.8,15.3s0,0,0,0c0-4.6-0.3-8.5-0.6-10.8
				C1626.4,226.6,1642.9,219.4,1642.9,219.4z"/>
		</g>
		<path class="st29" d="M1567.2,285.1L1567.2,285.1c0,0-1.2,2.4-2.1,12l7.8-11.8c0,0,14-20.1,18.8-25.3c4.8-5.2,11.4-9.8,11.4-9.8
			S1575.6,263.5,1567.2,285.1z"/>
		<path class="st27" d="M1673.2,315.1c0,0,34.2-13.4,44.3-14.2c0,0-6.9-54.9-40.5-49.1C1643.5,257.7,1673.2,315.1,1673.2,315.1z"/>
		<path class="st20" d="M1612.1,245.5c0,0-25.1,38.6-16.6,42c8.5,3.4,54.5-4.5,74-41.2C1669.5,246.3,1640.3,231.3,1612.1,245.5z"/>
		<path class="st25" d="M1717.5,300.9c-1.7,30.3-10.3,59-17.4,85.3c-1,3.8-2,7.6-2.9,11.3h-69.6c-0.2-10.4-0.1-19.6,0.2-27.3
			c3.5-84,30.1-128.2,30.1-128.2s8.5,2.9,33,9.8c16.8,4.7,23.1,26.1,25.4,39c0,0,0,0.1,0,0.2
			C1717.3,296.8,1717.5,300.9,1717.5,300.9z"/>
		<path class="st25" d="M1612.1,245.5c-0.3,0.5-4.9,8.2-10.3,20.8c-8.2,18.9-18.5,48.8-19.4,81.8c-0.3,10.6-2.4,27.7-5.6,49.4h-13.9
			c-1.4-18.1-4.7-32.6-7.6-43c-1.9-6.8-3.6-11.8-4.6-15c-4.4-15.1,9.7-35.1,14.5-42.3C1569.8,290,1581.2,257,1612.1,245.5z"/>
		<path class="st25" d="M1739.7,397.5h-37.4c0-2.4-0.8-6.4-2.2-11.3c-6.8-24.1-26.9-71.1-26.9-71.1s-30.1-49.1-1.6-61.7
			c28.5-12.5,40.8,22.5,44.6,37.4c0,0,0,0.1,0,0.2C1717.2,294.6,1734.2,359.3,1739.7,397.5z"/>
	</g>
	<g>
		<g>
			<path class="st20" d="M1130.1,1098.3c0,0,13.1-0.2,17.7-5.2c4.7-5,12.9-9.5,15.5-10.8c3.5-1.7,13.3-11.2,14.5-6.6
				c1.2,4.6-15.5,16.4-18.7,19.5c-3.2,3.2,13.9,4.5,16.4,7.6c2.5,3.1-6.2,35.4-17.6,32.9c-11.4-2.5-20.7-14-22.9-14
				c-2.2,0-8.4-1.4-8.4-1.4L1130.1,1098.3z"/>
		</g>
		<g>
			<path class="st20" d="M1173.1,1101.5c0,0,34,10.4,35.4,13.3c1.4,2.9,0.5,5.1-2.8,4.3c-3.2-0.8-33.3-8.9-33.3-8.9
				s37.2,20.3,38.8,22.3c1,1.2-0.7,5.4-2.5,5.2c-1.8-0.2-40.1-17.8-40.1-17.8s34.7,19,35.5,21.3c0.8,2-1.6,5.6-4.3,4.4
				s-36.1-16.6-36.1-16.6s24.1,15.8,23.8,18.4c-0.2,1.6-1.5,5.3-7.6,1c-6.1-4.3-21.7-12.6-21.7-12.6L1173.1,1101.5z"/>
		</g>
		<g>
			<path class="st30" d="M1058.5,1671.9c0,0,10.9,16.3,26.2,19.8c15.3,3.5,30.4,9.1,30.5,18.8c0.1,9.7-44.2,15.4-61.7,5.7
				c-26.1-14.5-28.8-10.1-31.7-17.4c-2.9-7.3,3.5-26.7,3.3-29C1024.9,1667,1058.5,1671.9,1058.5,1671.9z"/>
		</g>
		<g>
			<path class="st31" d="M1056.8,1663.8c0,0,2,7.9,1.7,8s-34.5,4.2-33.4-2.1c0.8-5.1,2-10.7,2-10.7L1056.8,1663.8z"/>
		</g>
		<g>
			<path class="st30" d="M843.9,1670.8c0,0,7.8,15.6,21.1,20.9c14.2,5.7,25.6,12.2,25.3,21.6c-0.3,9.4-34.7,18.9-59.8,0.9
				c-15.8-11.4-20.9-11.5-23.4-18.6c-2.5-7.2,4.4-25.9,4.3-28.1C811.3,1664.7,843.9,1670.8,843.9,1670.8z"/>
		</g>
		<g>
			<path class="st31" d="M844.3,1662.7c0,0-0.1,8-0.4,8.1c-0.3,0.2-33.3,2.9-32.5-3.3c0.7-4.9,3.2-10.9,3.2-10.9L844.3,1662.7z"/>
		</g>
		<g>
			<path class="st32" d="M965.4,1185.8c0,0,43.4,166.2,59.9,204.7c15.3,35.6,20.4,85.4,22.5,110.4c2.7,31.5,18.4,154,20.3,163.2
				c1.9,9.2-51,5.1-51,5.1s-36.5-211.8-51.6-242.7c-10.1-20.6-68.7-168.6-75.5-160c-6.7,8.5-15,156.7-20,181.3
				c-5,24.6-20.2,219-20.2,219s-34.1,5-43.2-2.7c0,0-4.1-166-1-212.1c1.2-17.6-20.6-210.8,7.4-288.6
				C827.7,1122.3,965.4,1185.8,965.4,1185.8z"/>
		</g>
		<g>
			<path class="st33" d="M723.7,1066.6c0,1.9,3.6,9.5,9.3,20.4c8.4-16.8,15-30.5,17.1-35.6c7.1-16.7,43.5-54.9,43.5-54.9s0,0,0,0.1
				c0,0,0,0,0,0c0,0,0,0,0,0c0,0.1,0,0.1,0,0.2c0,0.1,0.1,0.2,0.1,0.3c0,0.1,0,0.1,0.1,0.2c0,0.1,0,0.1,0,0.2
				c2,7.4,14.2,53.5,14.6,76.3c0.5,24.7,7,70.5,7,70.5l0,0l7.6,1.1l16.8,2.4l2,0.3l4.9,0.7l44.6,6.3l15.8,2.2l2.1,0.3l9,1.3l25,3.5
				l6.4,0.9l0.1,0l4.8,0.7l6.6,0.9c0,0,0,0,0,0c0.2-0.2,6.4-8.8,5.5-27.7c-0.6-12.2-2.1-35.2-1.5-56.5c0-0.1,0-0.2,0-0.3
				c0-0.3,0-0.5,0-0.8c0-0.1,0-0.2,0-0.3v0c0.4-11.7,1.4-22.8,3.6-31.3c1.5-5.7,2.5-11.4,3.1-16.7c0-0.3,0.1-0.5,0.1-0.8
				c0.1-1,0.2-2,0.3-2.9c1.4-14.8,0.3-26,0.2-26.7l0,0.1c0.5,1,3.7,12.9,8,27.6c7.2,24.9,17.3,57.8,21.6,59.4
				c6.3,2.3,107.6,32.3,129.4,35.4c2.5,0.4,4,0.3,4.1-0.1c0.1-0.3,0.2-0.6,0.3-1c2.7-8.8,6.3-23.7,6.9-26.1c0.1-0.2,0.1-0.3,0.1-0.3
				l-3.9-1.2l-110.2-33l-50.4-145.3c-1.1-0.8-13.4-6.8-22.5-11.1c-9.2-4.4-20.3-10.8-30.4-16.3c-5.1-2.8-10-5.4-14.2-7.3l-0.6-0.3
				l0,0c-6.9-3.2-11.5-5.3-11.5-5.3s0,0,0,0c-0.2,0-1.3-0.1-3-0.3c-9.7-0.9-39.8-3.7-49.8-4.3c-0.8-0.1-1.5-0.1-2.1-0.1
				c-0.5,0-0.8,0-1,0c-1.3,0.1-7.5,2.2-15.6,5.3h0c-0.3,0.1-0.6,0.2-0.9,0.4c-0.4,0.1-0.8,0.3-1.2,0.4c-0.7,0.3-1.4,0.5-2.2,0.8
				c-1.5,0.6-3,1.2-4.5,1.8c-0.5,0.2-1.1,0.4-1.6,0.6c-16.3,6.5-35,14.5-39.4,17.7c-2.9,2.1-12.1,19.3-22.7,40.6
				c-13.6,43.7-30.9,110.6-31.5,127.1C723.7,1066.1,723.7,1066.4,723.7,1066.6z"/>
		</g>
		<g>
			<path class="st34" d="M961.1,1164.8c0,0,3.4,4,4.3,21c0,0-137.9-16.1-152.5-22.4c0,0-0.6-18.7,2.5-19.1
				C818.8,1144,961.1,1164.8,961.1,1164.8z"/>
		</g>
		<g>
			<path class="st20" d="M843.5,866.5c0.4,21.6,42.3,33.5,42.3,33.5s17.5-22,13.3-24.1c-1.6-0.8-2.3-4.1-2.5-7.8
				c-0.2-3.5,0-7.4,0.2-9.8c0.1-1.5,0.2-2.5,0.2-2.5s-6-6.3-13.6-13.8c-13.3-13.2-31.6-30-31.6-23.3c0,0.4,0,0.8,0.2,1.3
				C855.2,835,843.5,866.5,843.5,866.5z"/>
		</g>
		<g>
			<path class="st30" d="M846.9,1147.7c0,0-3,19-3.3,23.9l-6.4-1.3c0,0,1.8-20.1,2.8-23.5L846.9,1147.7z"/>
		</g>
		<g>
			<path class="st30" d="M949.6,1162.6c0,0,2.4,17.3,2.5,23.8l-6.8-0.9c0,0-1.4-21.6-2.2-23.8L949.6,1162.6z"/>
		</g>
		<g>
			<path class="st28" d="M859.6,834.8C859.6,834.8,859.6,834.8,859.6,834.8c0.1,0.1,1.9,2.8,4.9,6.6c6.4,8.1,18.5,21.4,32.1,26.7
				c-0.2-3.5,0-7.4,0.2-9.8c1.4,0,2.8-0.2,4.2-0.5c-3.7-6.5-9.1-13.3-9.1-13.3l-8.4-2.5L859.6,834.8z"/>
		</g>
		<g>
			<path class="st20" d="M851.6,818.9c3.6,7.9,7.1,13.6,8,15.9c0,0,0,0,0,0c0.6,1.5,2.4,3.9,4.9,6.6c6.9,7.4,19.7,17.3,32.4,16.9
				c1.4,0,2.8-0.2,4.2-0.5c5.1-1.1,11.1-3.5,14.4-10c26.1-51.2,7.2-93.1,7.2-93.1s-71.5-20.2-82.7,1.3
				C832.1,771.2,843,800.4,851.6,818.9z"/>
		</g>
		<g>
			<path class="st35" d="M922.7,754.8c0,0,6.6-0.4,8.3-13c1.6-12.4-1.7-15.9-1.7-15.9s-29.5-12.4-40.1-14
				c-10.6-1.6-36.7-3.1-42.8,3.8c0,0-14.8-3.4-18.9,21.2c-6.4,39.1,21.9,77.1,21.9,77.1s-0.2-25.5,5.4-28.9
				c5.6-3.4,10.5,4.7,10.5,4.7l11.5,2.1c0,0-17.5-37.8,3.5-39.2C901.3,751.3,910.7,757,922.7,754.8z"/>
		</g>
		<g>
			<path class="st20" d="M864.9,779.6c-1.1-11.3-21.4-15.5-20.1-3.8c1.4,11.8,11.4,23.1,16,22.7
				C865.5,798.2,865.8,788.2,864.9,779.6z"/>
		</g>
		<g>
			<path class="st36" d="M733,1087.1c8.9,16.9,22.8,41.8,36.7,65.9c-1.8,3.4-3.6,6.8-5.3,10.1c-4.2,8.1-7.8,16-10.5,23.3
				c-3.1,8.8-7.5,31.4,0.9,35.6l44.1,24.4c0,0,0.3-0.9,0.9-2.5c1.5-4,4.6-12.4,9-23.4c0.1-0.4,0.6-1.4,1.2-2.9
				c0.9-2.1,2.1-5,3.6-8.4c0.6-1.5,1.3-3.1,2-4.7c0.8-1.9,1.6-3.8,2.5-5.7c1.2-2.8,2.4-5.6,3.5-8.2c3-7,5.4-12.5,5.4-12.5
				c0.1-0.3,0.3-0.6,0.4-1c1.4-3.1,2.9-6.2,4.4-9.3c2.3-4.8,4.7-9.6,7.1-14.3c0.2-0.5,0.5-1,0.7-1.4c0.4-0.8,0.9-1.6,1.3-2.5
				c0.3-0.5,0.5-1,0.8-1.5c0.1-0.1,0.1-0.2,0.2-0.3c0.1-0.2,0.2-0.4,0.3-0.6c12.8-23.3,27.1-42.7,31.7-71.3c0.4-2.8,0.9-5.5,1.3-8.2
				c0.7-4.5,1.3-9,1.8-13.4c0.2-1.7,0.4-3.3,0.6-4.9c2.3-19,3.7-36,4.8-47.8c3.5-36.8-19.1-76.7-36.4-101.3
				c-9.3-13.2-17-22-18.5-23.6c0,0-0.1-0.1-0.1-0.1c-0.3,0.1-0.6,0.2-0.9,0.4c-0.4,0.1-0.8,0.3-1.2,0.4c-0.7,0.3-1.4,0.5-2.2,0.8
				c-1.5,0.6-3,1.2-4.5,1.8c-0.5,0.2-1.1,0.4-1.6,0.6c-16.8,6.6-52.1,16.3-56.5,19.5c-2.6,1.8-8.3,18.6-14.9,39.8
				c-13.6,43.7-21.7,109.6-22.1,126c0,0.3,0,0.5,0,0.7C723.7,1068.5,727.3,1076.1,733,1087.1z M800.1,1078.9
				c0,8.2-2.7,17.6-6.8,27.6c-0.1,0.3-0.2,0.5-0.3,0.8c-2.8-6-5.5-11.8-7.9-17.2c0,0,0,0,0,0c-6.6-14.7-11.1-26.2-11.3-30.7
				c-1.6-29.1,19.8-62.7,19.8-62.7c0,0,0,0,0,0c0,0,0,0,0,0c0,0.1,0,0.1,0,0.2c0,0.1,0.1,0.2,0.1,0.3c0,0.1,0,0.1,0.1,0.2
				c0,0.1,0,0.1,0,0.2C798.3,1014.9,800.1,1078.9,800.1,1078.9z"/>
		</g>
		<path class="st37" d="M883.9,1188.7l-125.8,56c-7.1,3.2-15.5,0-18.6-7.1l-34.4-77.4c-3.2-7.1,0-15.4,7.1-18.6l125.8-56
			c7.1-3.2,15.5,0,18.6,7.1L891,1170C894.2,1177.2,891,1185.5,883.9,1188.7z"/>
		<g>
			<path class="st36" d="M911,881.8c0,0,5.9,19.6,13.5,68.7c0,0,0,0,0,0c0.3,1.6,0.5,3.3,0.8,5c0,0.2,0.1,0.4,0.1,0.6
				c0.2,1.1,0.3,2.3,0.5,3.4c0,0.1,0,0.3,0.1,0.4c0.1,0.8,0.2,1.6,0.3,2.4c0.3,1.9,0.6,3.9,0.9,5.9c3.4,23.9,8.2,64.5,12.8,105.5v0
				c3.6,32.3,11.9,65.5,14.5,90.2c0,0,0,0,0,0c0.5,4.8,1.8,11.3,3.4,18.6c0.2,0.8,0.4,1.7,0.6,2.5c7.4,31.2,21.7,75.4,21.7,75.4
				l4.2-3.9l12.4-11.4c2.9-2.6,3.9-6.7,2.8-10.4c-6.9-22.1-30.2-100.5-34.5-155.6c0,0,0,0,0,0c2.1-19.4,7.5-45.3,6.7-49.1
				c0.1,0.1,0.1,0.3,0.1,0.4c2.5,6.8,5.2,14.3,7.9,21.5v0c7.4,19.4,14.9,37.4,18,38.6c7,2.6,132.4,39.6,133.3,34.4
				c0.1-0.5,0.2-1.1,0.3-1.7c0.1-0.6,0.2-1.2,0.4-1.8c1.5-7.1,4.4-17.2,6.3-24c0.3-1,0.6-2,0.8-2.8c0.8-2.8,1.4-4.6,1.4-4.6
				l-106-34.8l-53.5-139.9c-1.1-0.8-14.7-8.2-23.7-12.5c-9.4-4.5-21.3-10-31.9-14.9c-5-2.3-9.8-4.5-13.8-6.4L911,881.8z"/>
		</g>
		<g>
			<path class="st38" d="M839.2,930.3l20.4,11.5l-8.7,8.9l23.2,125.2c4.7-29.4,6.9-57.2,8.5-74.3c5.3-56.9-51.5-121.1-55-125
				c-2.7,1-5.7,2.2-8.7,3.4L839.2,930.3z"/>
		</g>
		<g>
			<path class="st38" d="M910.7,881.2c0,0,7.6,24.9,16.5,87c3.4,23.9,8.2,64.5,12.8,105.5l4.7-117.3l-9.7-10.5l8.6-10.8l-18.5-47.2
				c-5-2.3-9.8-4.5-13.8-6.4L910.7,881.2z"/>
		</g>
		<g>
			<path class="st39" d="M826.4,877l17-10.4c0,0,0.5,9.3,42.3,33.5l-11.9,33.5L826.4,877z"/>
		</g>
		<g>
			<path class="st39" d="M896.9,871.2c0,0-0.7,10-11.1,28.8l23.2,30.3l1.7-49.1L896.9,871.2z"/>
		</g>
		<g>
			<path class="st22" d="M885.7,900c0,0-4.5,18-2.9,23c0,0,9.9,3.6,17-0.9C899.9,922.1,894.8,909.5,885.7,900z"/>
		</g>
		<g>
			<g>
				<path class="st40" d="M909,1159.5c2.5-12.7,0.1-50.7,0-52.3l-2.2,0.1c0,0.4,2.5,39.4,0,51.8L909,1159.5z"/>
			</g>
		</g>
		<g>
			<path class="st41" d="M891.4,1153.6c0,0,20.3,2.4,27,4.1l-0.9,22.7l-26.6-2.8L891.4,1153.6z"/>
		</g>
		<g>
			<path class="st22" d="M895.8,920.5c0,0,22.6,57.2,18.9,121.1c-3.8,66.3-10.1,90.4-10.1,90.4l-14,17.5l-6.2-21.5
				c0,0,18.7-84.6,6.6-166.9c-2.2-14.9-5.4-43.2-5.4-43.2L895.8,920.5z"/>
		</g>
		<g>
			<path class="st20" d="M827.8,1190.5c0,0,4.9,9.7,9.7,11.3c4.9,1.6,11.9,9.5,11.9,9.5l-34.2,18c0,0-9.1-17.8-9.5-29.1
				C805.3,1188.9,827.8,1190.5,827.8,1190.5z"/>
		</g>
		<g>
			<path class="st33" d="M831,1191.4l2.3,4.6c0,0-21.7,15.9-27.6,16.9l-2-6.1L831,1191.4z"/>
		</g>
		<g>
			<path class="st36" d="M833.3,1191.6c0,0-16.3,13.5-30,19.7l-61.5-107.8l39.2-21.4C781.1,1082.1,832.2,1183.5,833.3,1191.6z"/>
		</g>
		<g>
			<path class="st32" d="M971.1,1001c0.8,15.4,0.6,29,0.6,29s0,0,0,0c0,0.1,0,0.5,0.1,1.2c0-0.3,0.1-0.5,0.1-0.8
				c2.5,6.8,5.2,14.3,7.9,21.5c0.6-8.4,0.8-16.2,0.6-23.4c-1.1-43-14.6-65.6-14.6-65.6C968.9,970.4,970.4,986.5,971.1,1001z"/>
		</g>
	</g>
	<g>
		<g>
			<path class="st20" d="M1505.1,859.1c0,0-0.6-7.9,0.3-11.6c1.6-6.4-0.8-16.7,7.3-21.7s31.1,16,32.9,21.8
				c1.8,5.9-6.8,15.8-24.8,24.2C1502.7,880.3,1505.1,859.1,1505.1,859.1z"/>
		</g>
		<g>
			<path class="st20" d="M1510.2,827.9c0,0,7.8-11.7,18.1-23.7c9-10.5,21.7-22.3,24.3-20c4.1,3.4-7.4,11.9-15.7,22.9
				c-7.6,10.1-4.4,9.4-4.4,9.4s-0.9,0.2,9.5-9.3c11.2-10.1,23.7-20.6,25.9-18.8c2.8,2.2,2.9,2.7-0.6,7.1c2.5-2.1,3.5-1.7,4.4-0.7
				c5,5.1-9.1,22.6-14.7,29.5c4.3-5.3,8.1-8.7,9.2-3.6c1.2,5.8-19.9,29.6-26.6,38.9C1532.5,869.7,1510.2,827.9,1510.2,827.9z"/>
		</g>
		<g>
			<g>
				<g>
					<g>
						<path class="st42" d="M1240.6,1668.9c0,0,21.9,13,31.9,17.8c9.9,4.8,48.5,6.2,52.3,9.8c3.8,3.6,2.4,15.2-4,16.3
							c-6.4,1.2-53.3,5.4-69,1.8c-15.7-3.7-44.9,2.5-51.4,0.3c-6.5-2.2-2.3-37.1,0.2-45C1203.1,1662.1,1240.6,1668.9,1240.6,1668.9z
							"/>
					</g>
				</g>
			</g>
		</g>
		<g>
			<g>
				<g>
					<g>
						<path class="st43" d="M1242.4,1654.6l-1.8,14.3c0,0-29.3,5.5-38.2,1l2.2-14.8L1242.4,1654.6z"/>
					</g>
				</g>
			</g>
		</g>
		<g>
			<path class="st44" d="M1360,1166.6c-0.3,9.9-2.1,31.4-4.2,53.9c-0.5,5-1,10.1-1.4,15.1c-2.9,30.3-5.9,58.4-5.9,58.4
				c-3.7,24.2-11.3,66.1-19.9,97.8v0c-2.5,9.1-5,17.4-7.5,24.2c-2.5,6.6-5,11.7-7.4,14.8c-18.2,23.2-59.8,229-59.8,229l-56.9-0.4
				c0,0,12.5-139.4,25.1-174.7c14-39.5,38.4-92.6,32.3-130.7c-3.8-23.9-8.7-99.9-8.7-99.9s-4.8-85.4,17.6-148
				C1268.9,1090.5,1360,1166.6,1360,1166.6z"/>
		</g>
		<g>
			<g>
				<g>
					<g>
						<path class="st42" d="M1400.4,1674.3c0,0,21.8,13.2,31.7,18.2c9.9,4.9,48.4,6.8,52.2,10.5c3.8,3.7,2.2,15.2-4.2,16.3
							c-6.4,1.1-53.4,4.8-69,0.9c-15.6-3.8-44.9,2-51.4-0.3s-1.9-37.2,0.7-45S1400.4,1674.3,1400.4,1674.3z"/>
					</g>
				</g>
			</g>
		</g>
		<g>
			<g>
				<g>
					<g>
						<path class="st43" d="M1402.4,1660l-2,14.3c0,0-29.4,5.1-38.2,0.5l2.4-14.8L1402.4,1660z"/>
					</g>
				</g>
			</g>
		</g>
		<g>
			<path class="st44" d="M1334.4,1455.9c-1.5-45.5-5.5-75.8-17.2-102.1c-9.8-22.1-18.3-91.4-18.3-91.4s-26.7-81.3-21.3-147.5
				c1.4-16.5,104.4,25,104.4,25c2.3,9.6,9.1,40,11.6,62.5c14,128.6,8.7,212.3,8.7,212.3c-8,28.4,12.2,251.7,12.2,251.7h-58
				c0,0-15.2-79.5-16.8-128.9C1339.8,1537.6,1333.8,1463.8,1334.4,1455.9z"/>
		</g>
		<g>
			<g>
				<path class="st45" d="M1333.1,866.9c0,0,27,44.3,34.9,69c7.9,24.7,1.5,96.6,2.9,111c4.3,44.8,10.6,94.2,10.6,94.2L1291,1199
					c0,0-16.3-38-30.4-85.3c-14.2-47.3-15.3-89.9-15.2-118.3c0.4-89.2,48.7-139.6,48.7-139.6L1333.1,866.9z"/>
			</g>
		</g>
		<g>
			<g>
				<path class="st20" d="M1366.4,748c0,0,18.6,19.9,13.3,25.1c-4.3,4.3,12.7,24.1,15.2,27.5c2.4,3.3-7.6,8.8-9.2,11.8
					s-0.7,34.2-9.3,37.4c-8.6,3.2-52-0.2-65.8-8.6c-13.8-8.4-36-57-34.4-80.3C1277.8,737.5,1333.7,713.4,1366.4,748z"/>
			</g>
		</g>
		<g>
			<g>
				<path class="st20" d="M1348.8,843.1c0,0-0.3,2.6-0.7,6.8c-0.2,1.7-0.4,3.7-0.6,5.8c-0.1,1.3-0.2,2.6-0.3,4
					c0,0.4-0.1,0.7-0.1,1.1c-0.1,0.6-0.1,1.3-0.2,1.9c-0.2,3-0.4,6.1-0.6,9.2c-0.4,7.9-0.5,15.5,0.4,19.7
					c2.3,11.6-47.5-37.2-47.5-37.2s4.2-37.8,2.2-80.3C1299.4,731.6,1348.8,843.1,1348.8,843.1z"/>
			</g>
		</g>
		<g>
			<g>
				<path class="st46" d="M1370.2,752.4c0,0,8.8-20.7-18.3-35.1c-31.9-16.9-65.7,25.6-70.2,28.1c-4.5,2.5-24.9,25.5-4.9,55.9
					c25.2,38.4,23.9,37.1,23.9,37.1s2.5-28.3,2.4-33.8c-0.3-10,25.9-11.2,25.9-11.2s-10.8-14.3,1.2-20.7
					C1342.1,766.2,1356,751,1370.2,752.4z"/>
			</g>
		</g>
		<g>
			<g>
				<path class="st20" d="M1315.1,789.8c-1.9-2.7-8.9-14.5-17.9-4.1c-9,10.4,15.1,29.8,17.1,29.6
					C1316.4,815.1,1331.2,812.3,1315.1,789.8z"/>
			</g>
		</g>
		<g>
			<path class="st47" d="M1386.6,1160.2c0,0-4.5-21.2-5.4-24.4l-132.5,22l1.4,17.1C1250,1175,1345.5,1169.3,1386.6,1160.2z"/>
		</g>
		<g>
			<path class="st22" d="M1236.9,1066.8c0,0,20.4,87.9-11.5,190.4c-3.9,12.5,88.2-1.9,88.2-1.9L1236.9,1066.8z"/>
		</g>
		<g>
			<g>
				<path class="st22" d="M1353.9,1248.9c0,0-65.4,14.4-83.8,7.9c0,0-26.7-97.3-36.1-196c-0.7-7.6-1.3-15.3-1.8-22.9c0,0,0,0,0,0
					c-5.2-80.3,15.2-161.8,61.8-182.1c1.3,0.9,66.9,58.7,65.7,111.7c-0.1,3.6-0.1,7.2-0.2,10.8c0,6.5,0,13,0.1,19.5l0,0
					c0.4,20.1,1.7,40.2,3.4,59.7c0.2,2,0.4,4.1,0.6,6.1c0.3,3.3,0.7,6.5,1,9.8c0.5,4.3,1,8.6,1.5,12.8
					C1376.8,1174.6,1353.9,1248.9,1353.9,1248.9z"/>
			</g>
		</g>
		<g>
			<path class="st48" d="M1351.2,905.6c0,0,12.3,48.8,17,110.2c3.9,51.4,9.2,87.7,9.2,87.7l7.9,25.4l3.2-24.5c0,0-2.9-66.3-6.7-93.3
				c-3.9-27.2-5.6-61.7-27.3-106.5L1351.2,905.6z"/>
		</g>
		<g>
			<path class="st48" d="M1349.9,905.6c0,0,1.5,1.4,3.6,1.7s5.1-3-5.6-17.2L1349.9,905.6z"/>
		</g>
		<g>
			<g>
				<path class="st49" d="M1299.9,848.4c0,0,30.5,28.7,48.6,35l3.5,27.5l-57.9-55.2L1299.9,848.4z"/>
			</g>
		</g>
		<g>
			<path class="st22" d="M1320.3,959.5c-12-4.3-61.9-28.5-48.6-56.8c13.3-28.3,47.5-13.2,73.3-1.7c27,12,90.6,49,95.6,45.6
				c5-3.4,27-34.9,31-42c4-7,28-51.9,30.3-55.3c2.2-3.3,37.1,26,37.1,26s-62.7,111.3-79.5,129
				C1442.5,1022.1,1320.3,959.5,1320.3,959.5z"/>
		</g>
		<g>
			<path class="st42" d="M1328.6,1391.7L1328.6,1391.7c-2.5,9.2-5,17.5-7.5,24.2c0,0,0,0,0,0l-19.8-118.3
				C1306.2,1308.8,1328.6,1391.7,1328.6,1391.7z"/>
		</g>
		<g>
			<path class="st50" d="M1359.7,997.8l-57.4-46.9c15.2,8.1,52.6,25.2,57.3,27.3C1359.5,984.7,1359.6,991.3,1359.7,997.8z"/>
		</g>
		<g>
			<path class="st28" d="M1348.1,849.8c-0.2,1.7-0.4,3.7-0.6,5.8c-0.1,1.3-0.2,2.6-0.3,4c-19-1.3-33.7-16.4-34.6-17.4
				C1320.3,848.5,1348.1,849.8,1348.1,849.8z"/>
		</g>
	</g>
	<g class="st51">
		<linearGradient id="SVGID_13_" gradientUnits="userSpaceOnUse" x1="2084.4268" y1="404.1541" x2="2123.7959" y2="404.1541">
			<stop  offset="0" style="stop-color:#D1D7E0"/>
			<stop  offset="1" style="stop-color:#EBEBFF"/>
		</linearGradient>
		<polygon class="st52" points="2093.7,413.7 2123.8,413.7 2114.6,394.6 2084.4,394.6 		"/>
		<linearGradient id="SVGID_14_" gradientUnits="userSpaceOnUse" x1="2070.3232" y1="404.1541" x2="2086.7314" y2="404.1541">
			<stop  offset="0" style="stop-color:#D1D7E0"/>
			<stop  offset="1" style="stop-color:#EBEBFF"/>
		</linearGradient>
		<polygon class="st53" points="2079.5,413.7 2086.7,413.7 2077.5,394.6 2070.3,394.6 		"/>
		<linearGradient id="SVGID_15_" gradientUnits="userSpaceOnUse" x1="1971.3574" y1="386.1484" x2="2097.4609" y2="386.1484">
			<stop  offset="0" style="stop-color:#D1D7E0"/>
			<stop  offset="1" style="stop-color:#EBEBFF"/>
		</linearGradient>
		<polygon class="st54" points="1975.4,390.9 2097.5,390.9 2093.4,381.4 1971.4,381.4 		"/>
	</g>
	<g>
		<g>
			<linearGradient id="SVGID_16_" gradientUnits="userSpaceOnUse" x1="1271.0264" y1="78.0457" x2="1322.7471" y2="78.0457">
				<stop  offset="0" style="stop-color:#D1D7E0"/>
				<stop  offset="1" style="stop-color:#EBEBFF"/>
			</linearGradient>
			<path class="st55" d="M1319.9,85.8h-46.1c-1.6,0-2.8-1.3-2.8-2.8v-10c0-1.6,1.3-2.8,2.8-2.8h46.1c1.6,0,2.8,1.3,2.8,2.8v10
				C1322.7,84.6,1321.5,85.8,1319.9,85.8z"/>
		</g>
		<g>
			<linearGradient id="SVGID_17_" gradientUnits="userSpaceOnUse" x1="1271.0264" y1="115.4216" x2="1322.7471" y2="115.4216">
				<stop  offset="0" style="stop-color:#D1D7E0"/>
				<stop  offset="1" style="stop-color:#EBEBFF"/>
			</linearGradient>
			<path class="st56" d="M1319.9,123.2h-46.1c-1.6,0-2.8-1.3-2.8-2.8v-10c0-1.6,1.3-2.8,2.8-2.8h46.1c1.6,0,2.8,1.3,2.8,2.8v10
				C1322.7,122,1321.5,123.2,1319.9,123.2z"/>
		</g>
		<g>
			<linearGradient id="SVGID_18_" gradientUnits="userSpaceOnUse" x1="1271.0264" y1="152.7976" x2="1322.7471" y2="152.7976">
				<stop  offset="0" style="stop-color:#D1D7E0"/>
				<stop  offset="1" style="stop-color:#EBEBFF"/>
			</linearGradient>
			<path class="st57" d="M1319.9,160.6h-46.1c-1.6,0-2.8-1.3-2.8-2.8v-10c0-1.6,1.3-2.8,2.8-2.8h46.1c1.6,0,2.8,1.3,2.8,2.8v10
				C1322.7,159.3,1321.5,160.6,1319.9,160.6z"/>
		</g>
		<g>
			<linearGradient id="SVGID_19_" gradientUnits="userSpaceOnUse" x1="1344.1025" y1="78.0457" x2="1358.8193" y2="78.0457">
				<stop  offset="0" style="stop-color:#D1D7E0"/>
				<stop  offset="1" style="stop-color:#EBEBFF"/>
			</linearGradient>
			<path class="st58" d="M1356,85.8h-9.1c-1.6,0-2.8-1.3-2.8-2.8v-10c0-1.6,1.3-2.8,2.8-2.8h9.1c1.6,0,2.8,1.3,2.8,2.8v10
				C1358.8,84.6,1357.6,85.8,1356,85.8z"/>
		</g>
		<g>
			<linearGradient id="SVGID_20_" gradientUnits="userSpaceOnUse" x1="1344.1025" y1="115.4216" x2="1358.8193" y2="115.4216">
				<stop  offset="0" style="stop-color:#D1D7E0"/>
				<stop  offset="1" style="stop-color:#EBEBFF"/>
			</linearGradient>
			<path class="st59" d="M1356,123.2h-9.1c-1.6,0-2.8-1.3-2.8-2.8v-10c0-1.6,1.3-2.8,2.8-2.8h9.1c1.6,0,2.8,1.3,2.8,2.8v10
				C1358.8,122,1357.6,123.2,1356,123.2z"/>
		</g>
		<g>
			<linearGradient id="SVGID_21_" gradientUnits="userSpaceOnUse" x1="1344.1025" y1="152.7976" x2="1358.8193" y2="152.7976">
				<stop  offset="0" style="stop-color:#D1D7E0"/>
				<stop  offset="1" style="stop-color:#EBEBFF"/>
			</linearGradient>
			<path class="st60" d="M1356,160.6h-9.1c-1.6,0-2.8-1.3-2.8-2.8v-10c0-1.6,1.3-2.8,2.8-2.8h9.1c1.6,0,2.8,1.3,2.8,2.8v10
				C1358.8,159.3,1357.6,160.6,1356,160.6z"/>
		</g>
	</g>
	<g>
		<linearGradient id="SVGID_22_" gradientUnits="userSpaceOnUse" x1="1107.1641" y1="952.5342" x2="1177.8309" y2="952.5342">
			<stop  offset="0" style="stop-color:#D1D7E0"/>
			<stop  offset="1" style="stop-color:#EBEBFF"/>
		</linearGradient>
		<polygon class="st61" points="1123.7,969.7 1177.8,969.7 1161.3,935.4 1107.2,935.4 		"/>
		<linearGradient id="SVGID_23_" gradientUnits="userSpaceOnUse" x1="1081.8467" y1="952.5342" x2="1111.2998" y2="952.5342">
			<stop  offset="0" style="stop-color:#D1D7E0"/>
			<stop  offset="1" style="stop-color:#EBEBFF"/>
		</linearGradient>
		<polygon class="st62" points="1098.4,969.7 1111.3,969.7 1094.7,935.4 1081.8,935.4 		"/>
	</g>
</g>
</svg>
